%TF.GenerationSoftware,KiCad,Pcbnew,9.0.0-rc3*%
%TF.CreationDate,2025-03-08T22:35:06-05:00*%
%TF.ProjectId,reggie_jig,72656767-6965-45f6-9a69-672e6b696361,rev?*%
%TF.SameCoordinates,Original*%
%TF.FileFunction,Legend,Top*%
%TF.FilePolarity,Positive*%
%FSLAX46Y46*%
G04 Gerber Fmt 4.6, Leading zero omitted, Abs format (unit mm)*
G04 Created by KiCad (PCBNEW 9.0.0-rc3) date 2025-03-08 22:35:06*
%MOMM*%
%LPD*%
G01*
G04 APERTURE LIST*
%ADD10C,0.250000*%
%ADD11C,0.300000*%
%ADD12C,0.150000*%
%ADD13C,0.120000*%
G04 APERTURE END LIST*
D10*
G36*
X134615422Y-107140146D02*
G01*
X134632152Y-107114989D01*
X134660118Y-107095450D01*
X134760868Y-107089832D01*
X134791643Y-107095450D01*
X134816922Y-107115111D01*
X134833653Y-107140268D01*
X134839270Y-107269351D01*
X134942829Y-107169577D01*
X135088276Y-107095450D01*
X135124668Y-107089832D01*
X135370865Y-107095450D01*
X135396144Y-107115111D01*
X135412875Y-107140390D01*
X135418492Y-107168356D01*
X135412875Y-107272159D01*
X135396144Y-107297438D01*
X135370865Y-107314291D01*
X135141521Y-107319909D01*
X135023918Y-107378527D01*
X134898011Y-107506755D01*
X134839270Y-107621182D01*
X134839270Y-108181842D01*
X134833653Y-108212616D01*
X134816922Y-108237651D01*
X134791643Y-108254382D01*
X134760868Y-108260000D01*
X134660118Y-108254382D01*
X134632152Y-108237651D01*
X134615422Y-108212494D01*
X134609804Y-108181842D01*
X134609804Y-107168112D01*
X134615422Y-107140146D01*
G37*
G36*
X136243178Y-107096060D02*
G01*
X136388625Y-107168600D01*
X136497801Y-107277411D01*
X136567777Y-107419804D01*
X136576081Y-107456074D01*
X136576081Y-107673817D01*
X136570586Y-107701782D01*
X136553733Y-107726817D01*
X136528576Y-107746357D01*
X136497801Y-107751974D01*
X135787055Y-107751974D01*
X135842986Y-107922456D01*
X135893422Y-107973625D01*
X136010903Y-108033342D01*
X136190055Y-108033342D01*
X136296301Y-107980219D01*
X136355041Y-107859930D01*
X136399860Y-107820729D01*
X136458600Y-107823538D01*
X136553733Y-107910244D01*
X136570586Y-107938210D01*
X136576081Y-107966175D01*
X136570586Y-107996950D01*
X136553733Y-108022229D01*
X136408286Y-108166332D01*
X136243178Y-108252184D01*
X136209595Y-108260000D01*
X135991364Y-108260000D01*
X135957780Y-108251573D01*
X135812212Y-108178789D01*
X135647226Y-108019298D01*
X135627564Y-107988401D01*
X135554902Y-107770048D01*
X135554902Y-107576974D01*
X135572092Y-107525317D01*
X135809525Y-107525317D01*
X136349546Y-107525317D01*
X136349546Y-107476835D01*
X136296301Y-107368513D01*
X136190055Y-107314291D01*
X136010903Y-107314291D01*
X135893422Y-107374131D01*
X135842986Y-107425544D01*
X135809525Y-107525317D01*
X135572092Y-107525317D01*
X135627564Y-107358621D01*
X135647226Y-107327847D01*
X135789863Y-107182278D01*
X135957780Y-107095450D01*
X135991364Y-107087634D01*
X136209595Y-107087634D01*
X136243178Y-107096060D01*
G37*
G36*
X137543649Y-107095938D02*
G01*
X137689096Y-107167745D01*
X137722679Y-107192658D01*
X137728297Y-107138681D01*
X137745027Y-107114378D01*
X137770184Y-107095450D01*
X137870935Y-107089832D01*
X137901709Y-107095450D01*
X137926988Y-107114989D01*
X137943719Y-107140024D01*
X137949337Y-107167868D01*
X137949337Y-108252184D01*
X137873866Y-108494961D01*
X137854204Y-108525980D01*
X137711566Y-108672770D01*
X137543649Y-108760209D01*
X137510066Y-108768025D01*
X137291835Y-108768025D01*
X137258251Y-108759720D01*
X137093143Y-108673991D01*
X136947697Y-108530254D01*
X136930844Y-108504975D01*
X136925226Y-108477009D01*
X136930844Y-108446235D01*
X136947697Y-108421078D01*
X136972854Y-108404347D01*
X137146266Y-108398729D01*
X137177041Y-108404347D01*
X137202320Y-108421078D01*
X137266556Y-108485436D01*
X137384159Y-108541367D01*
X137490404Y-108541367D01*
X137608007Y-108483848D01*
X137658321Y-108429260D01*
X137722679Y-108236552D01*
X137722679Y-108154975D01*
X137689096Y-108180010D01*
X137543649Y-108252184D01*
X137510066Y-108260000D01*
X137291835Y-108260000D01*
X137258251Y-108251573D01*
X137093143Y-108164867D01*
X136947697Y-108019298D01*
X136928157Y-107988401D01*
X136855373Y-107770048D01*
X136852750Y-107613244D01*
X137081908Y-107613244D01*
X137081908Y-107734389D01*
X137143457Y-107923311D01*
X137193893Y-107974113D01*
X137311374Y-108033342D01*
X137490404Y-108033342D01*
X137722679Y-107917693D01*
X137722679Y-107429940D01*
X137490404Y-107314291D01*
X137311374Y-107314291D01*
X137193893Y-107373520D01*
X137143457Y-107424323D01*
X137081908Y-107613244D01*
X136852750Y-107613244D01*
X136852564Y-107602131D01*
X136928157Y-107358621D01*
X136947697Y-107327847D01*
X137112805Y-107168234D01*
X137258251Y-107095450D01*
X137291835Y-107087634D01*
X137510066Y-107087634D01*
X137543649Y-107095938D01*
G37*
G36*
X138989567Y-107095938D02*
G01*
X139135013Y-107167745D01*
X139168597Y-107192658D01*
X139174214Y-107138681D01*
X139190945Y-107114378D01*
X139216102Y-107095450D01*
X139316852Y-107089832D01*
X139347627Y-107095450D01*
X139372906Y-107114989D01*
X139389637Y-107140024D01*
X139395254Y-107167868D01*
X139395254Y-108252184D01*
X139319783Y-108494961D01*
X139300122Y-108525980D01*
X139157484Y-108672770D01*
X138989567Y-108760209D01*
X138955983Y-108768025D01*
X138737752Y-108768025D01*
X138704169Y-108759720D01*
X138539061Y-108673991D01*
X138393614Y-108530254D01*
X138376762Y-108504975D01*
X138371144Y-108477009D01*
X138376762Y-108446235D01*
X138393614Y-108421078D01*
X138418771Y-108404347D01*
X138592184Y-108398729D01*
X138622958Y-108404347D01*
X138648237Y-108421078D01*
X138712473Y-108485436D01*
X138830076Y-108541367D01*
X138936322Y-108541367D01*
X139053925Y-108483848D01*
X139104239Y-108429260D01*
X139168597Y-108236552D01*
X139168597Y-108154975D01*
X139135013Y-108180010D01*
X138989567Y-108252184D01*
X138955983Y-108260000D01*
X138737752Y-108260000D01*
X138704169Y-108251573D01*
X138539061Y-108164867D01*
X138393614Y-108019298D01*
X138374075Y-107988401D01*
X138301290Y-107770048D01*
X138298668Y-107613244D01*
X138527826Y-107613244D01*
X138527826Y-107734389D01*
X138589375Y-107923311D01*
X138639811Y-107974113D01*
X138757292Y-108033342D01*
X138936322Y-108033342D01*
X139168597Y-107917693D01*
X139168597Y-107429940D01*
X138936322Y-107314291D01*
X138757292Y-107314291D01*
X138639811Y-107373520D01*
X138589375Y-107424323D01*
X138527826Y-107613244D01*
X138298668Y-107613244D01*
X138298482Y-107602131D01*
X138374075Y-107358621D01*
X138393614Y-107327847D01*
X138558722Y-107168234D01*
X138704169Y-107095450D01*
X138737752Y-107087634D01*
X138955983Y-107087634D01*
X138989567Y-107095938D01*
G37*
G36*
X139867498Y-106585226D02*
G01*
X139971057Y-106579609D01*
X140001831Y-106585226D01*
X140099773Y-106674741D01*
X140116503Y-106699898D01*
X140122121Y-106803457D01*
X140116503Y-106834232D01*
X140099773Y-106859389D01*
X140001831Y-106948904D01*
X139898272Y-106954521D01*
X139867498Y-106948904D01*
X139769556Y-106859389D01*
X139752704Y-106834232D01*
X139747208Y-106730673D01*
X139752704Y-106699898D01*
X139769556Y-106674741D01*
X139867498Y-106585226D01*
G37*
G36*
X139825488Y-107137948D02*
G01*
X139842219Y-107112791D01*
X139867498Y-107093251D01*
X139970935Y-107087634D01*
X140001709Y-107093251D01*
X140026988Y-107112791D01*
X140043719Y-107137948D01*
X140049337Y-107166036D01*
X140049337Y-108181598D01*
X140043719Y-108212494D01*
X140026988Y-108237651D01*
X140001709Y-108254382D01*
X139970935Y-108260000D01*
X139867498Y-108254382D01*
X139842219Y-108237651D01*
X139825488Y-108212494D01*
X139819870Y-108181598D01*
X139819870Y-107166036D01*
X139825488Y-107137948D01*
G37*
G36*
X141094818Y-107096060D02*
G01*
X141240265Y-107168600D01*
X141349441Y-107277411D01*
X141419417Y-107419804D01*
X141427721Y-107456074D01*
X141427721Y-107673817D01*
X141422226Y-107701782D01*
X141405373Y-107726817D01*
X141380216Y-107746357D01*
X141349441Y-107751974D01*
X140638695Y-107751974D01*
X140694626Y-107922456D01*
X140745062Y-107973625D01*
X140862543Y-108033342D01*
X141041695Y-108033342D01*
X141147941Y-107980219D01*
X141206681Y-107859930D01*
X141251500Y-107820729D01*
X141310240Y-107823538D01*
X141405373Y-107910244D01*
X141422226Y-107938210D01*
X141427721Y-107966175D01*
X141422226Y-107996950D01*
X141405373Y-108022229D01*
X141259926Y-108166332D01*
X141094818Y-108252184D01*
X141061235Y-108260000D01*
X140843004Y-108260000D01*
X140809420Y-108251573D01*
X140663852Y-108178789D01*
X140498866Y-108019298D01*
X140479204Y-107988401D01*
X140406542Y-107770048D01*
X140406542Y-107576974D01*
X140423732Y-107525317D01*
X140661165Y-107525317D01*
X141201186Y-107525317D01*
X141201186Y-107476835D01*
X141147941Y-107368513D01*
X141041695Y-107314291D01*
X140862543Y-107314291D01*
X140745062Y-107374131D01*
X140694626Y-107425544D01*
X140661165Y-107525317D01*
X140423732Y-107525317D01*
X140479204Y-107358621D01*
X140498866Y-107327847D01*
X140641503Y-107182278D01*
X140809420Y-107095450D01*
X140843004Y-107087634D01*
X141061235Y-107087634D01*
X141094818Y-107096060D01*
G37*
G36*
X142360851Y-107140390D02*
G01*
X142377581Y-107115111D01*
X142405547Y-107095450D01*
X142573464Y-107089832D01*
X142573464Y-106658499D01*
X142579082Y-106627480D01*
X142595812Y-106602201D01*
X142621092Y-106585226D01*
X142651866Y-106579609D01*
X142724528Y-106579609D01*
X142755303Y-106587424D01*
X142780582Y-106604155D01*
X142797313Y-106629312D01*
X142802930Y-106660087D01*
X142802930Y-107087634D01*
X142942759Y-107087634D01*
X142970847Y-107095450D01*
X142996004Y-107115111D01*
X143012735Y-107140390D01*
X143021161Y-107168356D01*
X143021161Y-107241385D01*
X143012735Y-107272159D01*
X142996004Y-107297438D01*
X142970847Y-107314291D01*
X142802930Y-107319909D01*
X142802930Y-108181842D01*
X142797313Y-108212616D01*
X142780582Y-108237651D01*
X142755303Y-108254382D01*
X142651866Y-108260000D01*
X142621092Y-108254382D01*
X142595812Y-108237651D01*
X142579082Y-108212616D01*
X142573464Y-108181842D01*
X142573464Y-107319909D01*
X142433513Y-107319909D01*
X142405547Y-107314291D01*
X142377581Y-107297438D01*
X142360851Y-107272159D01*
X142355233Y-107241385D01*
X142355233Y-107168356D01*
X142360851Y-107140390D01*
G37*
G36*
X143918265Y-107096060D02*
G01*
X144063712Y-107168600D01*
X144172889Y-107277411D01*
X144242864Y-107419804D01*
X144251168Y-107456074D01*
X144251168Y-107673817D01*
X144245673Y-107701782D01*
X144228820Y-107726817D01*
X144203663Y-107746357D01*
X144172889Y-107751974D01*
X143462142Y-107751974D01*
X143518073Y-107922456D01*
X143568510Y-107973625D01*
X143685990Y-108033342D01*
X143865143Y-108033342D01*
X143971388Y-107980219D01*
X144030129Y-107859930D01*
X144074947Y-107820729D01*
X144133688Y-107823538D01*
X144228820Y-107910244D01*
X144245673Y-107938210D01*
X144251168Y-107966175D01*
X144245673Y-107996950D01*
X144228820Y-108022229D01*
X144083374Y-108166332D01*
X143918265Y-108252184D01*
X143884682Y-108260000D01*
X143666451Y-108260000D01*
X143632868Y-108251573D01*
X143487299Y-108178789D01*
X143322313Y-108019298D01*
X143302651Y-107988401D01*
X143229989Y-107770048D01*
X143229989Y-107576974D01*
X143247179Y-107525317D01*
X143484612Y-107525317D01*
X144024633Y-107525317D01*
X144024633Y-107476835D01*
X143971388Y-107368513D01*
X143865143Y-107314291D01*
X143685990Y-107314291D01*
X143568510Y-107374131D01*
X143518073Y-107425544D01*
X143484612Y-107525317D01*
X143247179Y-107525317D01*
X143302651Y-107358621D01*
X143322313Y-107327847D01*
X143464951Y-107182278D01*
X143632868Y-107095450D01*
X143666451Y-107087634D01*
X143884682Y-107087634D01*
X143918265Y-107096060D01*
G37*
G36*
X144535956Y-107938210D02*
G01*
X144572348Y-107896322D01*
X144600314Y-107887896D01*
X144678715Y-107887896D01*
X144731838Y-107910244D01*
X144779466Y-107988646D01*
X144910990Y-108033342D01*
X145101256Y-108033342D01*
X145232780Y-107988524D01*
X145255129Y-107949323D01*
X145255129Y-107912930D01*
X145224354Y-107856999D01*
X144796196Y-107677725D01*
X144625593Y-107588210D01*
X144535956Y-107422979D01*
X144527651Y-107386587D01*
X144535956Y-107353004D01*
X144628401Y-107182278D01*
X144871789Y-107095450D01*
X145115177Y-107089832D01*
X145355879Y-107169089D01*
X145383845Y-107183255D01*
X145473360Y-107355690D01*
X145481786Y-107383656D01*
X145478977Y-107414431D01*
X145464933Y-107439588D01*
X145434159Y-107461936D01*
X145403384Y-107467554D01*
X145302634Y-107461936D01*
X145260746Y-107425544D01*
X145232780Y-107366803D01*
X145101256Y-107322107D01*
X144910990Y-107322107D01*
X144779466Y-107366803D01*
X144768230Y-107389152D01*
X144787892Y-107428230D01*
X144857745Y-107461692D01*
X145215928Y-107606772D01*
X145386653Y-107696165D01*
X145473360Y-107860785D01*
X145481786Y-107966908D01*
X145473360Y-108003178D01*
X145383845Y-108170729D01*
X145140334Y-108260000D01*
X144871789Y-108260000D01*
X144628401Y-108170484D01*
X144535956Y-108002568D01*
X144530460Y-107968984D01*
X144535956Y-107938210D01*
G37*
G36*
X145694277Y-107140390D02*
G01*
X145711008Y-107115111D01*
X145738974Y-107095450D01*
X145906891Y-107089832D01*
X145906891Y-106658499D01*
X145912508Y-106627480D01*
X145929239Y-106602201D01*
X145954518Y-106585226D01*
X145985293Y-106579609D01*
X146057955Y-106579609D01*
X146088729Y-106587424D01*
X146114009Y-106604155D01*
X146130739Y-106629312D01*
X146136357Y-106660087D01*
X146136357Y-107087634D01*
X146276186Y-107087634D01*
X146304274Y-107095450D01*
X146329431Y-107115111D01*
X146346161Y-107140390D01*
X146354588Y-107168356D01*
X146354588Y-107241385D01*
X146346161Y-107272159D01*
X146329431Y-107297438D01*
X146304274Y-107314291D01*
X146136357Y-107319909D01*
X146136357Y-108181842D01*
X146130739Y-108212616D01*
X146114009Y-108237651D01*
X146088729Y-108254382D01*
X145985293Y-108260000D01*
X145954518Y-108254382D01*
X145929239Y-108237651D01*
X145912508Y-108212616D01*
X145906891Y-108181842D01*
X145906891Y-107319909D01*
X145766939Y-107319909D01*
X145738974Y-107314291D01*
X145711008Y-107297438D01*
X145694277Y-107272159D01*
X145688660Y-107241385D01*
X145688660Y-107168356D01*
X145694277Y-107140390D01*
G37*
D11*
G36*
X141327965Y-117552393D02*
G01*
X141353122Y-117513192D01*
X141392323Y-117488035D01*
X141504309Y-117479609D01*
X141549005Y-117488035D01*
X141588206Y-117516001D01*
X141613363Y-117555202D01*
X141985467Y-118510191D01*
X142357693Y-117554713D01*
X142382850Y-117515390D01*
X142422051Y-117487424D01*
X142536723Y-117478998D01*
X142581542Y-117487424D01*
X142615125Y-117509895D01*
X142643091Y-117549096D01*
X142654204Y-117593914D01*
X142645900Y-117638733D01*
X142094644Y-119084406D01*
X142072295Y-119123607D01*
X142033094Y-119148764D01*
X141988276Y-119160000D01*
X141943579Y-119151573D01*
X141904378Y-119129225D01*
X141879221Y-119090024D01*
X141325157Y-117639221D01*
X141319539Y-117594403D01*
X141327965Y-117552393D01*
G37*
G36*
X143623237Y-117490844D02*
G01*
X143760380Y-117560942D01*
X143928175Y-117720921D01*
X143950645Y-117751817D01*
X144026116Y-117906179D01*
X144093283Y-118110976D01*
X144101709Y-118492728D01*
X144020621Y-118753702D01*
X143928297Y-118922107D01*
X143791154Y-119059616D01*
X143623237Y-119152184D01*
X143570115Y-119160000D01*
X143295952Y-119160000D01*
X143242829Y-119148764D01*
X143074912Y-119056318D01*
X142915422Y-118888279D01*
X142839829Y-118734162D01*
X142772662Y-118529609D01*
X142764613Y-118165687D01*
X143069295Y-118165687D01*
X143069295Y-118473921D01*
X143128035Y-118647700D01*
X143234403Y-118807557D01*
X143382658Y-118855184D01*
X143483408Y-118855184D01*
X143631664Y-118807557D01*
X143738032Y-118647700D01*
X143796772Y-118473921D01*
X143796772Y-118165687D01*
X143738032Y-117991908D01*
X143631664Y-117832051D01*
X143483408Y-117784424D01*
X143382658Y-117784424D01*
X143234403Y-117832051D01*
X143128035Y-117991908D01*
X143069295Y-118165687D01*
X142764613Y-118165687D01*
X142764235Y-118148590D01*
X142839829Y-117904836D01*
X142937770Y-117719944D01*
X143105565Y-117560209D01*
X143251133Y-117487424D01*
X143287526Y-117479609D01*
X143570115Y-117479609D01*
X143623237Y-117490844D01*
G37*
G36*
X144356943Y-117552271D02*
G01*
X144382100Y-117513192D01*
X144421301Y-117488035D01*
X144466120Y-117479609D01*
X144580792Y-117488035D01*
X144617184Y-117513192D01*
X144642341Y-117552393D01*
X144653454Y-117597334D01*
X144653454Y-118611430D01*
X144706577Y-118773974D01*
X144734665Y-118801939D01*
X144896964Y-118855184D01*
X144997592Y-118855184D01*
X145159891Y-118801939D01*
X145187979Y-118773852D01*
X145241102Y-118611308D01*
X145241102Y-117596723D01*
X145252337Y-117551905D01*
X145277494Y-117512704D01*
X145313886Y-117487424D01*
X145428558Y-117478998D01*
X145473377Y-117487424D01*
X145512578Y-117512581D01*
X145537735Y-117551782D01*
X145546039Y-117596601D01*
X145546039Y-118629016D01*
X145470446Y-118872404D01*
X145442480Y-118917100D01*
X145305460Y-119054242D01*
X145260642Y-119082208D01*
X145053646Y-119152184D01*
X144877302Y-119157801D01*
X144633914Y-119082208D01*
X144589096Y-119054242D01*
X144452076Y-118917222D01*
X144424110Y-118872526D01*
X144348517Y-118629138D01*
X144348517Y-117597090D01*
X144356943Y-117552271D01*
G37*
G36*
X145730198Y-117551905D02*
G01*
X145755355Y-117512581D01*
X145791748Y-117487424D01*
X145839375Y-117479609D01*
X146731960Y-117479609D01*
X146776657Y-117488035D01*
X146815858Y-117513192D01*
X146841015Y-117552271D01*
X146849441Y-117666943D01*
X146841015Y-117711762D01*
X146815858Y-117748032D01*
X146776657Y-117773189D01*
X146731960Y-117784424D01*
X146438136Y-117784424D01*
X146438136Y-119042274D01*
X146426901Y-119087215D01*
X146401744Y-119126416D01*
X146365352Y-119151573D01*
X146250680Y-119160000D01*
X146205861Y-119151573D01*
X146166660Y-119126416D01*
X146141503Y-119087215D01*
X146133077Y-119042274D01*
X146133077Y-117784424D01*
X145839375Y-117784424D01*
X145791748Y-117773189D01*
X145755355Y-117748032D01*
X145730198Y-117711517D01*
X145721772Y-117596723D01*
X145730198Y-117551905D01*
G37*
G36*
X143336217Y-112581475D02*
G01*
X143361374Y-112541908D01*
X143400575Y-112516507D01*
X143445394Y-112508080D01*
X143789532Y-112508080D01*
X143834351Y-112516507D01*
X143870621Y-112541786D01*
X143895900Y-112580987D01*
X143907013Y-112625806D01*
X143907013Y-112900701D01*
X143893091Y-112953946D01*
X143803576Y-113122229D01*
X143635659Y-113282086D01*
X143495708Y-113352184D01*
X143445394Y-113360000D01*
X143168422Y-113360000D01*
X143117986Y-113348886D01*
X142950069Y-113256685D01*
X142810240Y-113119787D01*
X142720725Y-112952236D01*
X142639515Y-112692362D01*
X142639515Y-112351643D01*
X142715108Y-112108621D01*
X142810240Y-111924340D01*
X142980844Y-111765094D01*
X143117986Y-111695240D01*
X143168422Y-111679609D01*
X143445394Y-111679609D01*
X143495708Y-111690844D01*
X143635659Y-111760697D01*
X143803576Y-111920066D01*
X143893091Y-112087983D01*
X143904204Y-112132801D01*
X143895900Y-112185924D01*
X143870621Y-112225125D01*
X143839846Y-112244665D01*
X143797958Y-112258709D01*
X143719556Y-112258709D01*
X143677669Y-112250282D01*
X143641277Y-112227934D01*
X143613311Y-112194351D01*
X143554448Y-112073939D01*
X143512561Y-112032051D01*
X143417428Y-111984424D01*
X143196388Y-111984424D01*
X143101256Y-112032051D01*
X143059246Y-112074061D01*
X143003314Y-112186290D01*
X142944574Y-112365687D01*
X142944574Y-112673921D01*
X143003314Y-112853318D01*
X143059246Y-112965547D01*
X143101256Y-113007557D01*
X143196388Y-113055184D01*
X143417428Y-113055184D01*
X143512561Y-113008412D01*
X143554448Y-112967135D01*
X143602076Y-112873468D01*
X143602076Y-112812896D01*
X143445394Y-112812896D01*
X143400575Y-112804469D01*
X143361374Y-112779068D01*
X143336217Y-112742309D01*
X143327913Y-112626660D01*
X143336217Y-112581475D01*
G37*
G36*
X144152599Y-111801974D02*
G01*
X144169330Y-111740547D01*
X144200226Y-111706964D01*
X144242114Y-111687424D01*
X144314898Y-111693042D01*
X144354099Y-111718199D01*
X145045184Y-112674776D01*
X145045184Y-111797090D01*
X145056420Y-111752149D01*
X145081577Y-111712704D01*
X145117969Y-111687424D01*
X145162787Y-111678998D01*
X145277459Y-111687424D01*
X145316660Y-111712704D01*
X145341817Y-111752027D01*
X145350122Y-111796845D01*
X145350122Y-113244961D01*
X145333391Y-113306632D01*
X145302494Y-113340338D01*
X145260607Y-113360000D01*
X145212979Y-113360000D01*
X145148621Y-113329225D01*
X144457536Y-112372648D01*
X144457536Y-113243374D01*
X144446423Y-113287948D01*
X144421266Y-113327027D01*
X144384874Y-113352184D01*
X144270202Y-113360610D01*
X144225383Y-113352184D01*
X144186182Y-113327027D01*
X144161025Y-113287948D01*
X144152599Y-113243251D01*
X144152599Y-111801974D01*
G37*
G36*
X146505146Y-111755202D02*
G01*
X146549965Y-111783290D01*
X146709455Y-111951329D01*
X146784926Y-112105324D01*
X146852093Y-112309755D01*
X146860519Y-112690652D01*
X146784926Y-112934284D01*
X146709455Y-113088279D01*
X146549965Y-113256318D01*
X146505146Y-113284406D01*
X146261758Y-113360000D01*
X145780478Y-113360000D01*
X145732972Y-113352184D01*
X145696580Y-113326905D01*
X145671423Y-113287704D01*
X145662997Y-113242885D01*
X145662997Y-113055184D01*
X145965247Y-113055184D01*
X146242219Y-113055184D01*
X146404518Y-113001939D01*
X146438101Y-112965547D01*
X146496842Y-112853318D01*
X146555582Y-112673921D01*
X146555582Y-112365687D01*
X146496842Y-112186290D01*
X146438101Y-112074061D01*
X146404518Y-112037669D01*
X146242219Y-111984424D01*
X145965247Y-111984424D01*
X145965247Y-113055184D01*
X145662997Y-113055184D01*
X145662997Y-111796723D01*
X145671423Y-111751905D01*
X145696580Y-111712704D01*
X145732972Y-111687424D01*
X145780600Y-111679609D01*
X146261758Y-111679609D01*
X146505146Y-111755202D01*
G37*
G36*
X110577965Y-117552393D02*
G01*
X110603122Y-117513192D01*
X110642323Y-117488035D01*
X110754309Y-117479609D01*
X110799005Y-117488035D01*
X110838206Y-117516001D01*
X110863363Y-117555202D01*
X111235467Y-118510191D01*
X111607693Y-117554713D01*
X111632850Y-117515390D01*
X111672051Y-117487424D01*
X111786723Y-117478998D01*
X111831542Y-117487424D01*
X111865125Y-117509895D01*
X111893091Y-117549096D01*
X111904204Y-117593914D01*
X111895900Y-117638733D01*
X111344644Y-119084406D01*
X111322295Y-119123607D01*
X111283094Y-119148764D01*
X111238276Y-119160000D01*
X111193579Y-119151573D01*
X111154378Y-119129225D01*
X111129221Y-119090024D01*
X110575157Y-117639221D01*
X110569539Y-117594403D01*
X110577965Y-117552393D01*
G37*
G36*
X112092637Y-117552393D02*
G01*
X112109368Y-117527236D01*
X112156995Y-117488035D01*
X112271667Y-117479609D01*
X112316364Y-117488035D01*
X112352756Y-117513192D01*
X112377913Y-117552393D01*
X112389148Y-117597212D01*
X112389148Y-119042397D01*
X112377913Y-119087215D01*
X112352756Y-119126416D01*
X112316364Y-119151573D01*
X112271667Y-119160000D01*
X112156995Y-119151573D01*
X112117794Y-119126416D01*
X112092637Y-119087215D01*
X112084211Y-119042397D01*
X112084211Y-117597212D01*
X112092637Y-117552393D01*
G37*
G36*
X112705565Y-117601974D02*
G01*
X112722295Y-117540547D01*
X112753192Y-117506964D01*
X112795080Y-117487424D01*
X112867864Y-117493042D01*
X112907065Y-117518199D01*
X113598150Y-118474776D01*
X113598150Y-117597090D01*
X113609385Y-117552149D01*
X113634542Y-117512704D01*
X113670935Y-117487424D01*
X113715753Y-117478998D01*
X113830425Y-117487424D01*
X113869626Y-117512704D01*
X113894783Y-117552027D01*
X113903087Y-117596845D01*
X113903087Y-119044961D01*
X113886357Y-119106632D01*
X113855460Y-119140338D01*
X113813572Y-119160000D01*
X113765945Y-119160000D01*
X113701587Y-119129225D01*
X113010502Y-118172648D01*
X113010502Y-119043374D01*
X112999389Y-119087948D01*
X112974232Y-119127027D01*
X112937840Y-119152184D01*
X112823168Y-119160610D01*
X112778349Y-119152184D01*
X112739148Y-119127027D01*
X112713991Y-119087948D01*
X112705565Y-119043251D01*
X112705565Y-117601974D01*
G37*
G36*
X111386217Y-112631475D02*
G01*
X111411374Y-112591908D01*
X111450575Y-112566507D01*
X111495394Y-112558080D01*
X111839532Y-112558080D01*
X111884351Y-112566507D01*
X111920621Y-112591786D01*
X111945900Y-112630987D01*
X111957013Y-112675806D01*
X111957013Y-112950701D01*
X111943091Y-113003946D01*
X111853576Y-113172229D01*
X111685659Y-113332086D01*
X111545708Y-113402184D01*
X111495394Y-113410000D01*
X111218422Y-113410000D01*
X111167986Y-113398886D01*
X111000069Y-113306685D01*
X110860240Y-113169787D01*
X110770725Y-113002236D01*
X110689515Y-112742362D01*
X110689515Y-112401643D01*
X110765108Y-112158621D01*
X110860240Y-111974340D01*
X111030844Y-111815094D01*
X111167986Y-111745240D01*
X111218422Y-111729609D01*
X111495394Y-111729609D01*
X111545708Y-111740844D01*
X111685659Y-111810697D01*
X111853576Y-111970066D01*
X111943091Y-112137983D01*
X111954204Y-112182801D01*
X111945900Y-112235924D01*
X111920621Y-112275125D01*
X111889846Y-112294665D01*
X111847958Y-112308709D01*
X111769556Y-112308709D01*
X111727669Y-112300282D01*
X111691277Y-112277934D01*
X111663311Y-112244351D01*
X111604448Y-112123939D01*
X111562561Y-112082051D01*
X111467428Y-112034424D01*
X111246388Y-112034424D01*
X111151256Y-112082051D01*
X111109246Y-112124061D01*
X111053314Y-112236290D01*
X110994574Y-112415687D01*
X110994574Y-112723921D01*
X111053314Y-112903318D01*
X111109246Y-113015547D01*
X111151256Y-113057557D01*
X111246388Y-113105184D01*
X111467428Y-113105184D01*
X111562561Y-113058412D01*
X111604448Y-113017135D01*
X111652076Y-112923468D01*
X111652076Y-112862896D01*
X111495394Y-112862896D01*
X111450575Y-112854469D01*
X111411374Y-112829068D01*
X111386217Y-112792309D01*
X111377913Y-112676660D01*
X111386217Y-112631475D01*
G37*
G36*
X112202599Y-111851974D02*
G01*
X112219330Y-111790547D01*
X112250226Y-111756964D01*
X112292114Y-111737424D01*
X112364898Y-111743042D01*
X112404099Y-111768199D01*
X113095184Y-112724776D01*
X113095184Y-111847090D01*
X113106420Y-111802149D01*
X113131577Y-111762704D01*
X113167969Y-111737424D01*
X113212787Y-111728998D01*
X113327459Y-111737424D01*
X113366660Y-111762704D01*
X113391817Y-111802027D01*
X113400122Y-111846845D01*
X113400122Y-113294961D01*
X113383391Y-113356632D01*
X113352494Y-113390338D01*
X113310607Y-113410000D01*
X113262979Y-113410000D01*
X113198621Y-113379225D01*
X112507536Y-112422648D01*
X112507536Y-113293374D01*
X112496423Y-113337948D01*
X112471266Y-113377027D01*
X112434874Y-113402184D01*
X112320202Y-113410610D01*
X112275383Y-113402184D01*
X112236182Y-113377027D01*
X112211025Y-113337948D01*
X112202599Y-113293251D01*
X112202599Y-111851974D01*
G37*
G36*
X114555146Y-111805202D02*
G01*
X114599965Y-111833290D01*
X114759455Y-112001329D01*
X114834926Y-112155324D01*
X114902093Y-112359755D01*
X114910519Y-112740652D01*
X114834926Y-112984284D01*
X114759455Y-113138279D01*
X114599965Y-113306318D01*
X114555146Y-113334406D01*
X114311758Y-113410000D01*
X113830478Y-113410000D01*
X113782972Y-113402184D01*
X113746580Y-113376905D01*
X113721423Y-113337704D01*
X113712997Y-113292885D01*
X113712997Y-113105184D01*
X114015247Y-113105184D01*
X114292219Y-113105184D01*
X114454518Y-113051939D01*
X114488101Y-113015547D01*
X114546842Y-112903318D01*
X114605582Y-112723921D01*
X114605582Y-112415687D01*
X114546842Y-112236290D01*
X114488101Y-112124061D01*
X114454518Y-112087669D01*
X114292219Y-112034424D01*
X114015247Y-112034424D01*
X114015247Y-113105184D01*
X113712997Y-113105184D01*
X113712997Y-111846723D01*
X113721423Y-111801905D01*
X113746580Y-111762704D01*
X113782972Y-111737424D01*
X113830600Y-111729609D01*
X114311758Y-111729609D01*
X114555146Y-111805202D01*
G37*
D12*
%TO.C,REF\u002A\u002A*%
X121330000Y-110290000D02*
X117270000Y-110290000D01*
X117270000Y-110290000D02*
X117270000Y-109630000D01*
X121330000Y-107210000D02*
X117270000Y-107210000D01*
X117270000Y-107210000D02*
X117270000Y-107870000D01*
D10*
X120200000Y-108750000D02*
G75*
G02*
X118400000Y-108750000I-900000J0D01*
G01*
X118400000Y-108750000D02*
G75*
G02*
X120200000Y-108750000I900000J0D01*
G01*
D13*
X123510000Y-113872936D02*
X123510000Y-115327064D01*
X121690000Y-113872936D02*
X121690000Y-115327064D01*
%TD*%
M02*
