%TF.GenerationSoftware,KiCad,Pcbnew,9.0.0-rc3*%
%TF.CreationDate,2025-03-08T22:35:06-05:00*%
%TF.ProjectId,reggie_jig,72656767-6965-45f6-9a69-672e6b696361,rev?*%
%TF.SameCoordinates,Original*%
%TF.FileFunction,Copper,L1,Top*%
%TF.FilePolarity,Positive*%
%FSLAX46Y46*%
G04 Gerber Fmt 4.6, Leading zero omitted, Abs format (unit mm)*
G04 Created by KiCad (PCBNEW 9.0.0-rc3) date 2025-03-08 22:35:06*
%MOMM*%
%LPD*%
G01*
G04 APERTURE LIST*
G04 Aperture macros list*
%AMRoundRect*
0 Rectangle with rounded corners*
0 $1 Rounding radius*
0 $2 $3 $4 $5 $6 $7 $8 $9 X,Y pos of 4 corners*
0 Add a 4 corners polygon primitive as box body*
4,1,4,$2,$3,$4,$5,$6,$7,$8,$9,$2,$3,0*
0 Add four circle primitives for the rounded corners*
1,1,$1+$1,$2,$3*
1,1,$1+$1,$4,$5*
1,1,$1+$1,$6,$7*
1,1,$1+$1,$8,$9*
0 Add four rect primitives between the rounded corners*
20,1,$1+$1,$2,$3,$4,$5,0*
20,1,$1+$1,$4,$5,$6,$7,0*
20,1,$1+$1,$6,$7,$8,$9,0*
20,1,$1+$1,$8,$9,$2,$3,0*%
G04 Aperture macros list end*
%TA.AperFunction,Conductor*%
%ADD10C,0.905000*%
%TD*%
%TA.AperFunction,SMDPad,CuDef*%
%ADD11RoundRect,0.250000X-0.365000X-0.430000X0.365000X-0.430000X0.365000X0.430000X-0.365000X0.430000X0*%
%TD*%
%TA.AperFunction,SMDPad,CuDef*%
%ADD12RoundRect,0.250000X-0.625000X0.312500X-0.625000X-0.312500X0.625000X-0.312500X0.625000X0.312500X0*%
%TD*%
%TA.AperFunction,ViaPad*%
%ADD13C,4.000000*%
%TD*%
%TA.AperFunction,Conductor*%
%ADD14C,0.300000*%
%TD*%
G04 APERTURE END LIST*
%TO.N,EN*%
D10*
X125852500Y-111100000D02*
G75*
G02*
X124947500Y-111100000I-452500J0D01*
G01*
X124947500Y-111100000D02*
G75*
G02*
X125852500Y-111100000I452500J0D01*
G01*
%TO.N,GND*%
X127852500Y-119800000D02*
G75*
G02*
X126947500Y-119800000I-452500J0D01*
G01*
X126947500Y-119800000D02*
G75*
G02*
X127852500Y-119800000I452500J0D01*
G01*
%TO.N,VOUT*%
X131852500Y-119800000D02*
G75*
G02*
X130947500Y-119800000I-452500J0D01*
G01*
X130947500Y-119800000D02*
G75*
G02*
X131852500Y-119800000I452500J0D01*
G01*
%TO.N,FB*%
X126052500Y-113700000D02*
G75*
G02*
X125147500Y-113700000I-452500J0D01*
G01*
X125147500Y-113700000D02*
G75*
G02*
X126052500Y-113700000I452500J0D01*
G01*
%TO.N,GND*%
X129852500Y-119800000D02*
G75*
G02*
X128947500Y-119800000I-452500J0D01*
G01*
X128947500Y-119800000D02*
G75*
G02*
X129852500Y-119800000I452500J0D01*
G01*
%TO.N,VIN*%
X125852500Y-119800000D02*
G75*
G02*
X124947500Y-119800000I-452500J0D01*
G01*
X124947500Y-119800000D02*
G75*
G02*
X125852500Y-119800000I452500J0D01*
G01*
%TD*%
D11*
%TO.P,REF\u002A\u002A,1*%
%TO.N,GND*%
X117120000Y-108750000D03*
%TO.P,REF\u002A\u002A,2*%
%TO.N,EN*%
X121480000Y-108750000D03*
%TD*%
D12*
%TO.P,REF\u002A\u002A,1*%
%TO.N,FB*%
X122600000Y-113137500D03*
%TO.P,REF\u002A\u002A,2*%
%TO.N,GND*%
X122600000Y-116062500D03*
%TD*%
D13*
%TO.N,VOUT*%
X149800000Y-118500000D03*
%TO.N,GND*%
X149800000Y-112500000D03*
%TO.N,VIN*%
X107800000Y-118500000D03*
%TO.N,GND*%
X107800000Y-112500000D03*
%TD*%
D14*
%TO.N,FB*%
X124400000Y-113700000D02*
X125600000Y-113700000D01*
X123837500Y-113137500D02*
X124400000Y-113700000D01*
X122600000Y-113137500D02*
X123837500Y-113137500D01*
%TO.N,EN*%
X123050000Y-108750000D02*
X121480000Y-108750000D01*
X125400000Y-111100000D02*
X123050000Y-108750000D01*
%TD*%
%TA.AperFunction,Conductor*%
%TO.N,VOUT*%
G36*
X152088968Y-115518612D02*
G01*
X152100975Y-115521000D01*
X152276799Y-115574335D01*
X152288109Y-115579020D01*
X152450139Y-115665627D01*
X152460327Y-115672434D01*
X152602348Y-115788988D01*
X152611011Y-115797651D01*
X152727565Y-115939672D01*
X152734372Y-115949860D01*
X152820977Y-116111886D01*
X152825666Y-116123205D01*
X152878998Y-116299020D01*
X152881388Y-116311037D01*
X152899699Y-116496943D01*
X152900000Y-116503069D01*
X152900000Y-119226959D01*
X152899650Y-119233561D01*
X152878389Y-119433723D01*
X152875616Y-119446630D01*
X152813821Y-119634704D01*
X152808398Y-119646742D01*
X152708477Y-119817636D01*
X152700647Y-119828266D01*
X152564803Y-119976823D01*
X152560090Y-119981458D01*
X147285861Y-124647123D01*
X147281468Y-124650668D01*
X147142607Y-124752706D01*
X147132937Y-124758545D01*
X146980529Y-124832665D01*
X146969962Y-124836668D01*
X146806709Y-124882131D01*
X146795592Y-124884166D01*
X146623989Y-124899744D01*
X146618339Y-124900000D01*
X131503070Y-124900000D01*
X131496944Y-124899699D01*
X131311037Y-124881388D01*
X131299020Y-124878998D01*
X131123205Y-124825666D01*
X131111886Y-124820977D01*
X130949860Y-124734372D01*
X130939672Y-124727565D01*
X130797651Y-124611011D01*
X130788988Y-124602348D01*
X130672434Y-124460327D01*
X130665627Y-124450139D01*
X130579022Y-124288113D01*
X130574335Y-124276799D01*
X130521000Y-124100975D01*
X130518611Y-124088962D01*
X130503850Y-123939092D01*
X130503851Y-123926832D01*
X130504209Y-123923199D01*
X130504951Y-123913141D01*
X130505252Y-123907015D01*
X130505500Y-123896930D01*
X130505500Y-119926646D01*
X130504866Y-119910515D01*
X130504421Y-119904861D01*
X130504999Y-119890167D01*
X130505499Y-119887009D01*
X130505500Y-119887004D01*
X130505500Y-119712999D01*
X130505500Y-119712995D01*
X130504997Y-119709824D01*
X130504420Y-119695139D01*
X130504867Y-119689462D01*
X130505500Y-119673344D01*
X130505500Y-119247227D01*
X130505801Y-119241101D01*
X130507194Y-119226959D01*
X130518612Y-119111031D01*
X130520999Y-119099026D01*
X130574336Y-118923196D01*
X130579018Y-118911893D01*
X130665630Y-118749855D01*
X130672430Y-118739677D01*
X130788989Y-118597649D01*
X130797651Y-118588988D01*
X130939677Y-118472430D01*
X130949855Y-118465630D01*
X131111893Y-118379018D01*
X131123196Y-118374336D01*
X131299026Y-118320999D01*
X131311031Y-118318612D01*
X131441102Y-118305800D01*
X131447228Y-118305500D01*
X136409510Y-118305500D01*
X136418972Y-118305281D01*
X136418986Y-118305280D01*
X136419001Y-118305280D01*
X136424788Y-118305012D01*
X136434309Y-118304349D01*
X136610024Y-118288009D01*
X136610031Y-118288008D01*
X136610034Y-118288008D01*
X136628854Y-118285373D01*
X136628861Y-118285371D01*
X136628888Y-118285368D01*
X136640263Y-118283234D01*
X136658800Y-118278859D01*
X136658837Y-118278848D01*
X136658851Y-118278845D01*
X136828474Y-118230405D01*
X136828492Y-118230400D01*
X136837612Y-118227565D01*
X136843103Y-118225717D01*
X136852037Y-118222478D01*
X140446724Y-116824543D01*
X143724419Y-115567345D01*
X143729830Y-115565550D01*
X143897576Y-115518276D01*
X143908811Y-115516196D01*
X144022450Y-115505762D01*
X144028165Y-115505500D01*
X151896932Y-115505500D01*
X151898370Y-115505464D01*
X151907015Y-115505252D01*
X151913141Y-115504951D01*
X151923199Y-115504209D01*
X151926833Y-115503850D01*
X151939078Y-115503849D01*
X152088968Y-115518612D01*
G37*
%TD.AperFunction*%
%TD*%
%TA.AperFunction,Conductor*%
%TO.N,VIN*%
G36*
X105573166Y-115503850D02*
G01*
X105576801Y-115504209D01*
X105586859Y-115504951D01*
X105592985Y-115505252D01*
X105601518Y-115505461D01*
X105603068Y-115505500D01*
X105603070Y-115505500D01*
X111628877Y-115505500D01*
X111633842Y-115505697D01*
X111760336Y-115515781D01*
X111770131Y-115517351D01*
X111893472Y-115547359D01*
X111898234Y-115548721D01*
X114776763Y-116496943D01*
X115972215Y-116890739D01*
X115972424Y-116890808D01*
X120046050Y-118248683D01*
X120202095Y-118287087D01*
X120362278Y-118300000D01*
X120380816Y-118300000D01*
X120385784Y-118300198D01*
X120441619Y-118304650D01*
X120441638Y-118304651D01*
X120441649Y-118304652D01*
X120449796Y-118305139D01*
X120454763Y-118305337D01*
X120462948Y-118305500D01*
X125352772Y-118305500D01*
X125358897Y-118305800D01*
X125488966Y-118318611D01*
X125500975Y-118321000D01*
X125676799Y-118374335D01*
X125688109Y-118379020D01*
X125850139Y-118465627D01*
X125860327Y-118472434D01*
X126002348Y-118588988D01*
X126011011Y-118597651D01*
X126127565Y-118739672D01*
X126134372Y-118749860D01*
X126220977Y-118911886D01*
X126225666Y-118923205D01*
X126278998Y-119099020D01*
X126281388Y-119111037D01*
X126294199Y-119241101D01*
X126294500Y-119247227D01*
X126294500Y-119673344D01*
X126295133Y-119689475D01*
X126295579Y-119695139D01*
X126295004Y-119709812D01*
X126294500Y-119712992D01*
X126294500Y-119887010D01*
X126295003Y-119890190D01*
X126295579Y-119904856D01*
X126295133Y-119910518D01*
X126294500Y-119926648D01*
X126294500Y-123896931D01*
X126294747Y-123907004D01*
X126295048Y-123913129D01*
X126295793Y-123923228D01*
X126296150Y-123926850D01*
X126296149Y-123939091D01*
X126281388Y-124088962D01*
X126278998Y-124100979D01*
X126225666Y-124276794D01*
X126220977Y-124288113D01*
X126134372Y-124450139D01*
X126127565Y-124460327D01*
X126011011Y-124602348D01*
X126002348Y-124611011D01*
X125860327Y-124727565D01*
X125850139Y-124734372D01*
X125688113Y-124820977D01*
X125676794Y-124825666D01*
X125500979Y-124878998D01*
X125488962Y-124881388D01*
X125303056Y-124899699D01*
X125296930Y-124900000D01*
X110181661Y-124900000D01*
X110176011Y-124899744D01*
X110004407Y-124884166D01*
X109993291Y-124882131D01*
X109964347Y-124874071D01*
X109830037Y-124836668D01*
X109819470Y-124832665D01*
X109667062Y-124758545D01*
X109657396Y-124752709D01*
X109518520Y-124650660D01*
X109514144Y-124647128D01*
X104939903Y-120600684D01*
X104935202Y-120596060D01*
X104799351Y-120447496D01*
X104791522Y-120436867D01*
X104691601Y-120265973D01*
X104686178Y-120253935D01*
X104624381Y-120065855D01*
X104621611Y-120052958D01*
X104600350Y-119852791D01*
X104600000Y-119846190D01*
X104600000Y-116503069D01*
X104600301Y-116496943D01*
X104618612Y-116311031D01*
X104620999Y-116299026D01*
X104674336Y-116123196D01*
X104679018Y-116111893D01*
X104765630Y-115949855D01*
X104772430Y-115939677D01*
X104888989Y-115797649D01*
X104897651Y-115788988D01*
X105039677Y-115672430D01*
X105049855Y-115665630D01*
X105211893Y-115579018D01*
X105223196Y-115574336D01*
X105399026Y-115520999D01*
X105411029Y-115518612D01*
X105560921Y-115503849D01*
X105573166Y-115503850D01*
G37*
%TD.AperFunction*%
%TD*%
%TA.AperFunction,Conductor*%
%TO.N,GND*%
G36*
X118170571Y-107400283D02*
G01*
X118351253Y-107417569D01*
X118362929Y-107419824D01*
X118534185Y-107470206D01*
X118545225Y-107474635D01*
X118703821Y-107556573D01*
X118713820Y-107563014D01*
X118801598Y-107632218D01*
X118854001Y-107673533D01*
X118862605Y-107681760D01*
X118979286Y-107816847D01*
X118986174Y-107826556D01*
X119075127Y-107981316D01*
X119080049Y-107992154D01*
X119139021Y-108163807D01*
X119140686Y-108169528D01*
X119356987Y-109070782D01*
X119501990Y-109674960D01*
X120572010Y-114133373D01*
X120633893Y-114313500D01*
X120728804Y-114478626D01*
X120728811Y-114478636D01*
X120853302Y-114622764D01*
X121002868Y-114740682D01*
X121002869Y-114740683D01*
X121002871Y-114740684D01*
X121172083Y-114828107D01*
X121354801Y-114881862D01*
X121544397Y-114900000D01*
X126070372Y-114900000D01*
X126070373Y-114900000D01*
X126263970Y-114881081D01*
X126450242Y-114825040D01*
X126622140Y-114733998D01*
X126773161Y-114611399D01*
X126897590Y-114461883D01*
X129900706Y-110040626D01*
X129904354Y-110035781D01*
X130022936Y-109893291D01*
X130031574Y-109884757D01*
X130173124Y-109769846D01*
X130183255Y-109763144D01*
X130344365Y-109677816D01*
X130355605Y-109673201D01*
X130530182Y-109620678D01*
X130542104Y-109618325D01*
X130726599Y-109600295D01*
X130732678Y-109600000D01*
X151896930Y-109600000D01*
X151903056Y-109600301D01*
X152088966Y-109618611D01*
X152100975Y-109621000D01*
X152276799Y-109674335D01*
X152288109Y-109679020D01*
X152445490Y-109763142D01*
X152450139Y-109765627D01*
X152460327Y-109772434D01*
X152602348Y-109888988D01*
X152611011Y-109897651D01*
X152727565Y-110039672D01*
X152734372Y-110049860D01*
X152820977Y-110211886D01*
X152825666Y-110223205D01*
X152878998Y-110399020D01*
X152881388Y-110411037D01*
X152899699Y-110596943D01*
X152900000Y-110603069D01*
X152900000Y-114296930D01*
X152899699Y-114303056D01*
X152881388Y-114488962D01*
X152878998Y-114500979D01*
X152825666Y-114676794D01*
X152820977Y-114688113D01*
X152734372Y-114850139D01*
X152727565Y-114860327D01*
X152611011Y-115002348D01*
X152602348Y-115011011D01*
X152460327Y-115127565D01*
X152450139Y-115134372D01*
X152288113Y-115220977D01*
X152276794Y-115225666D01*
X152100979Y-115278998D01*
X152088962Y-115281388D01*
X151903056Y-115299699D01*
X151896930Y-115300000D01*
X143987601Y-115300000D01*
X143895409Y-115308573D01*
X143803215Y-115317146D01*
X143687447Y-115350206D01*
X143625157Y-115367994D01*
X143625155Y-115367994D01*
X143625154Y-115367995D01*
X143625140Y-115368000D01*
X136777554Y-118030951D01*
X136772063Y-118032799D01*
X136602371Y-118081258D01*
X136590996Y-118083392D01*
X136415281Y-118099732D01*
X136409494Y-118100000D01*
X131300000Y-118100000D01*
X131230035Y-118106891D01*
X131104913Y-118119214D01*
X131104908Y-118119215D01*
X130917321Y-118176118D01*
X130744435Y-118268526D01*
X130744429Y-118268530D01*
X130592893Y-118392893D01*
X130468530Y-118544429D01*
X130468526Y-118544435D01*
X130376118Y-118717321D01*
X130319215Y-118904908D01*
X130319214Y-118904913D01*
X130300000Y-119100004D01*
X130300000Y-119673347D01*
X130299231Y-119683124D01*
X130294500Y-119712993D01*
X130294500Y-119887013D01*
X130299230Y-119916867D01*
X130300000Y-119926646D01*
X130300000Y-123896930D01*
X130299699Y-123903056D01*
X130281388Y-124088962D01*
X130278998Y-124100979D01*
X130225666Y-124276794D01*
X130220977Y-124288113D01*
X130134372Y-124450139D01*
X130127565Y-124460327D01*
X130011011Y-124602348D01*
X130002348Y-124611011D01*
X129860327Y-124727565D01*
X129850139Y-124734372D01*
X129688113Y-124820977D01*
X129676794Y-124825666D01*
X129500979Y-124878998D01*
X129488962Y-124881388D01*
X129303056Y-124899699D01*
X129296930Y-124900000D01*
X127503070Y-124900000D01*
X127496944Y-124899699D01*
X127311037Y-124881388D01*
X127299020Y-124878998D01*
X127123205Y-124825666D01*
X127111886Y-124820977D01*
X126949860Y-124734372D01*
X126939672Y-124727565D01*
X126797651Y-124611011D01*
X126788988Y-124602348D01*
X126672434Y-124460327D01*
X126665627Y-124450139D01*
X126579022Y-124288113D01*
X126574335Y-124276799D01*
X126521000Y-124100975D01*
X126518611Y-124088962D01*
X126500301Y-123903056D01*
X126500000Y-123896930D01*
X126500000Y-119926646D01*
X126500770Y-119916867D01*
X126505499Y-119887013D01*
X126505500Y-119887002D01*
X126505500Y-119712997D01*
X126505500Y-119712995D01*
X126500769Y-119683124D01*
X126500000Y-119673347D01*
X126500000Y-119100004D01*
X126480785Y-118904913D01*
X126480785Y-118904910D01*
X126423880Y-118717317D01*
X126331470Y-118544430D01*
X126207107Y-118392893D01*
X126055570Y-118268530D01*
X126055564Y-118268526D01*
X125962020Y-118218526D01*
X125882683Y-118176120D01*
X125882680Y-118176119D01*
X125882678Y-118176118D01*
X125695091Y-118119215D01*
X125695086Y-118119214D01*
X125576856Y-118107569D01*
X125500000Y-118100000D01*
X125499996Y-118100000D01*
X120462948Y-118100000D01*
X120457981Y-118099802D01*
X120306992Y-118087764D01*
X120297187Y-118086191D01*
X120149980Y-118050375D01*
X120145233Y-118049018D01*
X111952414Y-115350206D01*
X111952409Y-115350205D01*
X111797973Y-115312631D01*
X111797967Y-115312630D01*
X111797961Y-115312629D01*
X111797963Y-115312629D01*
X111639538Y-115300000D01*
X111639535Y-115300000D01*
X105603070Y-115300000D01*
X105596944Y-115299699D01*
X105411037Y-115281388D01*
X105399020Y-115278998D01*
X105223205Y-115225666D01*
X105211886Y-115220977D01*
X105049860Y-115134372D01*
X105039672Y-115127565D01*
X104897651Y-115011011D01*
X104888988Y-115002348D01*
X104772434Y-114860327D01*
X104765627Y-114850139D01*
X104707122Y-114740684D01*
X104679020Y-114688109D01*
X104674335Y-114676799D01*
X104621000Y-114500975D01*
X104618611Y-114488962D01*
X104617593Y-114478628D01*
X104600301Y-114303056D01*
X104600000Y-114296930D01*
X104600000Y-111264035D01*
X104600326Y-111257657D01*
X104620173Y-111064174D01*
X104622759Y-111051702D01*
X104680506Y-110869343D01*
X104685578Y-110857641D01*
X104779143Y-110690810D01*
X104786472Y-110680396D01*
X104911966Y-110536028D01*
X104921271Y-110527309D01*
X105076008Y-110409489D01*
X105081279Y-110405885D01*
X105082875Y-110404910D01*
X106998568Y-109234208D01*
X116305001Y-109234208D01*
X116307850Y-109264604D01*
X116352654Y-109392646D01*
X116352654Y-109392647D01*
X116433208Y-109501791D01*
X116542353Y-109582345D01*
X116670392Y-109627148D01*
X116670397Y-109627149D01*
X116700799Y-109629999D01*
X116720000Y-109629999D01*
X117520000Y-109629999D01*
X117539208Y-109629999D01*
X117569604Y-109627149D01*
X117697646Y-109582345D01*
X117697647Y-109582345D01*
X117806791Y-109501791D01*
X117887345Y-109392647D01*
X117887345Y-109392646D01*
X117932148Y-109264607D01*
X117932149Y-109264602D01*
X117935000Y-109234199D01*
X117935000Y-109150000D01*
X117520000Y-109150000D01*
X117520000Y-109629999D01*
X116720000Y-109629999D01*
X116720000Y-109150000D01*
X116305001Y-109150000D01*
X116305001Y-109234208D01*
X106998568Y-109234208D01*
X108583235Y-108265800D01*
X116305000Y-108265800D01*
X116305000Y-108350000D01*
X116720000Y-108350000D01*
X117520000Y-108350000D01*
X117934999Y-108350000D01*
X117934999Y-108265791D01*
X117932149Y-108235395D01*
X117887345Y-108107353D01*
X117887345Y-108107352D01*
X117806791Y-107998208D01*
X117697646Y-107917654D01*
X117569607Y-107872851D01*
X117569602Y-107872850D01*
X117539199Y-107870000D01*
X117520000Y-107870000D01*
X117520000Y-108350000D01*
X116720000Y-108350000D01*
X116720000Y-107870000D01*
X116700800Y-107870000D01*
X116670395Y-107872850D01*
X116542353Y-107917654D01*
X116542352Y-107917654D01*
X116433208Y-107998208D01*
X116352654Y-108107352D01*
X116352654Y-108107353D01*
X116307851Y-108235392D01*
X116307850Y-108235397D01*
X116305000Y-108265800D01*
X108583235Y-108265800D01*
X109757479Y-107548206D01*
X109762473Y-107545460D01*
X109918632Y-107468649D01*
X109929269Y-107464576D01*
X110094027Y-107418220D01*
X110105229Y-107416148D01*
X110278519Y-107400260D01*
X110284225Y-107400000D01*
X118164620Y-107400000D01*
X118170571Y-107400283D01*
G37*
%TD.AperFunction*%
%TD*%
M02*
