%TF.GenerationSoftware,KiCad,Pcbnew,9.0.0*%
%TF.CreationDate,2025-02-28T11:22:31-05:00*%
%TF.ProjectId,reggie,72656767-6965-42e6-9b69-6361645f7063,rev?*%
%TF.SameCoordinates,Original*%
%TF.FileFunction,Legend,Bot*%
%TF.FilePolarity,Positive*%
%FSLAX46Y46*%
G04 Gerber Fmt 4.6, Leading zero omitted, Abs format (unit mm)*
G04 Created by KiCad (PCBNEW 9.0.0) date 2025-02-28 11:22:31*
%MOMM*%
%LPD*%
G01*
G04 APERTURE LIST*
%ADD10C,0.100000*%
%ADD11C,0.125000*%
%ADD12C,0.120000*%
G04 APERTURE END LIST*
D10*
X125428151Y-104994969D02*
X125654823Y-104994969D01*
X125478787Y-104853610D02*
X125427654Y-104981564D01*
X125550000Y-104600000D02*
X125850000Y-105000000D01*
X125478787Y-104756557D02*
X125554311Y-104914256D01*
X125850000Y-105000000D02*
X125250000Y-105100000D01*
X125546302Y-104712251D02*
X125654823Y-104994969D01*
X125478787Y-104853610D02*
X125654823Y-104994969D01*
X125250000Y-105100000D02*
X125550000Y-104600000D01*
X125763344Y-105014443D02*
X125546302Y-104712251D01*
X127050000Y-103900000D02*
X125250000Y-105100000D01*
D11*
G36*
X127556960Y-109040737D02*
G01*
X127544381Y-109020954D01*
X127524781Y-109008253D01*
X127502371Y-109004040D01*
X127330302Y-109004040D01*
X127307893Y-109008253D01*
X127289758Y-109020893D01*
X127277118Y-109040493D01*
X127271562Y-109062903D01*
X127271562Y-109200350D01*
X127278523Y-109226973D01*
X127323280Y-109311114D01*
X127407239Y-109391043D01*
X127477214Y-109426092D01*
X127502371Y-109430000D01*
X127640857Y-109430000D01*
X127666075Y-109424443D01*
X127750034Y-109378342D01*
X127819948Y-109309893D01*
X127864706Y-109226118D01*
X127905311Y-109096181D01*
X127905311Y-108925821D01*
X127867514Y-108804310D01*
X127819948Y-108712170D01*
X127734646Y-108632547D01*
X127666075Y-108597620D01*
X127640857Y-108589804D01*
X127502371Y-108589804D01*
X127477214Y-108595422D01*
X127407239Y-108630348D01*
X127323280Y-108710033D01*
X127278523Y-108793991D01*
X127272966Y-108816400D01*
X127277118Y-108842962D01*
X127289758Y-108862562D01*
X127305145Y-108872332D01*
X127326089Y-108879354D01*
X127365290Y-108879354D01*
X127386234Y-108875141D01*
X127404430Y-108863967D01*
X127418413Y-108847175D01*
X127447844Y-108786969D01*
X127468788Y-108766025D01*
X127516354Y-108742212D01*
X127626874Y-108742212D01*
X127674440Y-108766025D01*
X127695445Y-108787030D01*
X127723411Y-108843145D01*
X127752781Y-108932843D01*
X127752781Y-109086960D01*
X127723411Y-109176659D01*
X127695445Y-109232773D01*
X127674440Y-109253778D01*
X127626874Y-109277592D01*
X127516354Y-109277592D01*
X127468788Y-109254206D01*
X127447844Y-109233567D01*
X127424030Y-109186734D01*
X127424030Y-109156448D01*
X127502371Y-109156448D01*
X127524781Y-109152234D01*
X127544381Y-109139534D01*
X127556960Y-109121154D01*
X127561112Y-109063330D01*
X127556960Y-109040737D01*
G37*
G36*
X127148769Y-108650987D02*
G01*
X127140403Y-108620273D01*
X127124955Y-108603482D01*
X127104011Y-108593712D01*
X127067619Y-108596521D01*
X127048019Y-108609099D01*
X126702476Y-109087388D01*
X126702476Y-108648545D01*
X126696858Y-108626074D01*
X126684280Y-108606352D01*
X126666084Y-108593712D01*
X126643675Y-108589499D01*
X126586339Y-108593712D01*
X126566738Y-108606352D01*
X126554160Y-108626013D01*
X126550007Y-108648422D01*
X126550007Y-109372480D01*
X126558373Y-109403316D01*
X126573821Y-109420169D01*
X126594765Y-109430000D01*
X126618579Y-109430000D01*
X126650758Y-109414612D01*
X126996300Y-108936324D01*
X126996300Y-109371687D01*
X127001857Y-109393974D01*
X127014435Y-109413513D01*
X127032631Y-109426092D01*
X127089967Y-109430305D01*
X127112377Y-109426092D01*
X127131977Y-109413513D01*
X127144556Y-109393974D01*
X127148769Y-109371625D01*
X127148769Y-108650987D01*
G37*
G36*
X126358582Y-108593712D02*
G01*
X126376778Y-108606352D01*
X126389357Y-108625952D01*
X126393570Y-108648361D01*
X126393570Y-109371442D01*
X126389357Y-109393852D01*
X126376778Y-109413452D01*
X126358582Y-109426092D01*
X126334829Y-109430000D01*
X126094189Y-109430000D01*
X125972495Y-109392203D01*
X125950086Y-109378159D01*
X125870341Y-109294139D01*
X125832605Y-109217142D01*
X125794809Y-109095326D01*
X125798403Y-108932843D01*
X125947277Y-108932843D01*
X125947277Y-109086960D01*
X125976647Y-109176659D01*
X126006018Y-109232773D01*
X126022809Y-109250969D01*
X126103959Y-109277592D01*
X126242445Y-109277592D01*
X126242445Y-108742212D01*
X126103959Y-108742212D01*
X126022809Y-108768834D01*
X126006018Y-108787030D01*
X125976647Y-108843145D01*
X125947277Y-108932843D01*
X125798403Y-108932843D01*
X125799022Y-108904877D01*
X125832605Y-108802662D01*
X125870341Y-108725664D01*
X125950086Y-108641645D01*
X125972495Y-108627601D01*
X126094189Y-108589804D01*
X126334768Y-108589804D01*
X126358582Y-108593712D01*
G37*
G36*
X124335737Y-108626196D02*
G01*
X124323158Y-108606596D01*
X124303558Y-108594017D01*
X124247565Y-108589804D01*
X124225217Y-108594017D01*
X124205616Y-108608000D01*
X124193038Y-108627601D01*
X124006986Y-109105095D01*
X123820873Y-108627356D01*
X123808294Y-108607695D01*
X123788694Y-108593712D01*
X123731358Y-108589499D01*
X123708948Y-108593712D01*
X123692157Y-108604947D01*
X123678174Y-108624548D01*
X123672617Y-108646957D01*
X123676769Y-108669366D01*
X123952397Y-109392203D01*
X123963572Y-109411803D01*
X123983172Y-109424382D01*
X124005581Y-109430000D01*
X124027930Y-109425786D01*
X124047530Y-109414612D01*
X124060109Y-109395012D01*
X124337141Y-108669610D01*
X124339950Y-108647201D01*
X124335737Y-108626196D01*
G37*
G36*
X123578401Y-108626196D02*
G01*
X123570035Y-108613618D01*
X123546222Y-108594017D01*
X123488886Y-108589804D01*
X123466537Y-108594017D01*
X123448341Y-108606596D01*
X123435763Y-108626196D01*
X123430145Y-108648606D01*
X123430145Y-109371198D01*
X123435763Y-109393607D01*
X123448341Y-109413208D01*
X123466537Y-109425786D01*
X123488886Y-109430000D01*
X123546222Y-109425786D01*
X123565822Y-109413208D01*
X123578401Y-109393607D01*
X123582614Y-109371198D01*
X123582614Y-108648606D01*
X123578401Y-108626196D01*
G37*
G36*
X126071841Y-101225952D02*
G01*
X126059263Y-101206290D01*
X126039662Y-101193712D01*
X126017314Y-101189804D01*
X125604605Y-101189804D01*
X125582196Y-101194017D01*
X125562595Y-101206596D01*
X125550017Y-101226135D01*
X125545803Y-101283471D01*
X125550017Y-101305881D01*
X125562595Y-101324016D01*
X125582196Y-101336594D01*
X125604605Y-101342212D01*
X125923586Y-101342212D01*
X125923586Y-101533698D01*
X125776674Y-101533698D01*
X125754265Y-101537911D01*
X125734664Y-101550612D01*
X125722086Y-101570396D01*
X125717872Y-101626816D01*
X125722086Y-101649408D01*
X125734664Y-101669192D01*
X125754265Y-101681892D01*
X125776674Y-101686106D01*
X125923586Y-101686106D01*
X125923586Y-101877592D01*
X125604605Y-101877592D01*
X125582196Y-101883210D01*
X125562595Y-101895788D01*
X125550017Y-101914045D01*
X125545803Y-101971442D01*
X125550017Y-101993852D01*
X125562595Y-102013513D01*
X125582196Y-102026092D01*
X125604605Y-102030000D01*
X126017314Y-102030000D01*
X126039662Y-102025786D01*
X126059263Y-102013208D01*
X126071841Y-101993607D01*
X126076055Y-101971137D01*
X126076055Y-101248361D01*
X126071841Y-101225952D01*
G37*
G36*
X125422461Y-101250987D02*
G01*
X125414095Y-101220273D01*
X125398647Y-101203482D01*
X125377703Y-101193712D01*
X125341311Y-101196521D01*
X125321711Y-101209099D01*
X124976168Y-101687388D01*
X124976168Y-101248545D01*
X124970550Y-101226074D01*
X124957972Y-101206352D01*
X124939776Y-101193712D01*
X124917367Y-101189499D01*
X124860031Y-101193712D01*
X124840430Y-101206352D01*
X124827852Y-101226013D01*
X124823699Y-101248422D01*
X124823699Y-101972480D01*
X124832065Y-102003316D01*
X124847513Y-102020169D01*
X124868457Y-102030000D01*
X124892271Y-102030000D01*
X124924450Y-102014612D01*
X125269992Y-101536324D01*
X125269992Y-101971687D01*
X125275549Y-101993974D01*
X125288127Y-102013513D01*
X125306323Y-102026092D01*
X125363659Y-102030305D01*
X125386069Y-102026092D01*
X125405669Y-102013513D01*
X125418248Y-101993974D01*
X125422461Y-101971625D01*
X125422461Y-101250987D01*
G37*
G36*
X130458975Y-108626196D02*
G01*
X130446396Y-108606596D01*
X130426796Y-108594017D01*
X130370803Y-108589804D01*
X130348455Y-108594017D01*
X130328854Y-108608000D01*
X130316276Y-108627601D01*
X130130224Y-109105095D01*
X129944111Y-108627356D01*
X129931532Y-108607695D01*
X129911932Y-108593712D01*
X129854596Y-108589499D01*
X129832186Y-108593712D01*
X129815395Y-108604947D01*
X129801412Y-108624548D01*
X129795855Y-108646957D01*
X129800007Y-108669366D01*
X130075635Y-109392203D01*
X130086810Y-109411803D01*
X130106410Y-109424382D01*
X130128819Y-109430000D01*
X130151168Y-109425786D01*
X130170768Y-109414612D01*
X130183347Y-109395012D01*
X130460379Y-108669610D01*
X130463188Y-108647201D01*
X130458975Y-108626196D01*
G37*
G36*
X129497391Y-108593712D02*
G01*
X129570175Y-108630104D01*
X129654072Y-108709972D01*
X129703043Y-108802418D01*
X129740840Y-108924295D01*
X129736626Y-109114804D01*
X129703043Y-109217081D01*
X129665246Y-109294139D01*
X129585501Y-109378159D01*
X129501543Y-109424382D01*
X129474981Y-109430000D01*
X129337900Y-109430000D01*
X129311339Y-109426092D01*
X129227380Y-109379808D01*
X129158809Y-109311053D01*
X129112647Y-109226851D01*
X129072103Y-109096364D01*
X129075712Y-108932843D01*
X129224571Y-108932843D01*
X129224571Y-109086960D01*
X129253941Y-109173850D01*
X129307125Y-109253778D01*
X129381253Y-109277592D01*
X129431628Y-109277592D01*
X129505756Y-109253778D01*
X129558940Y-109173850D01*
X129588310Y-109086960D01*
X129588310Y-108932843D01*
X129558940Y-108845954D01*
X129505756Y-108766025D01*
X129431628Y-108742212D01*
X129381253Y-108742212D01*
X129307125Y-108766025D01*
X129253941Y-108845954D01*
X129224571Y-108932843D01*
X129075712Y-108932843D01*
X129076316Y-108905488D01*
X129109899Y-108803089D01*
X129147635Y-108725908D01*
X129158870Y-108710460D01*
X129242767Y-108630471D01*
X129311339Y-108595422D01*
X129337900Y-108589804D01*
X129479194Y-108589804D01*
X129497391Y-108593712D01*
G37*
D12*
X123040000Y-104935436D02*
X123040000Y-106389564D01*
X124860000Y-104935436D02*
X124860000Y-106389564D01*
M02*
