%TF.GenerationSoftware,KiCad,Pcbnew,9.0.0*%
%TF.CreationDate,2025-02-28T11:22:31-05:00*%
%TF.ProjectId,reggie,72656767-6965-42e6-9b69-6361645f7063,rev?*%
%TF.SameCoordinates,Original*%
%TF.FileFunction,Legend,Top*%
%TF.FilePolarity,Positive*%
%FSLAX46Y46*%
G04 Gerber Fmt 4.6, Leading zero omitted, Abs format (unit mm)*
G04 Created by KiCad (PCBNEW 9.0.0) date 2025-02-28 11:22:31*
%MOMM*%
%LPD*%
G01*
G04 APERTURE LIST*
%ADD10C,0.120000*%
%ADD11C,0.150000*%
%ADD12C,0.200000*%
G04 APERTURE END LIST*
D10*
X128961252Y-107795000D02*
X128438748Y-107795000D01*
X128961252Y-109265000D02*
X128438748Y-109265000D01*
X122670000Y-106053641D02*
X122670000Y-105746359D01*
X123430000Y-106053641D02*
X123430000Y-105746359D01*
X122690000Y-103292164D02*
X122690000Y-103507836D01*
X123410000Y-103292164D02*
X123410000Y-103507836D01*
X128981252Y-106015000D02*
X128458748Y-106015000D01*
X128981252Y-107485000D02*
X128458748Y-107485000D01*
D11*
X126160000Y-101350000D02*
X126160000Y-101570000D01*
X126190000Y-105340000D02*
X126190000Y-105550000D01*
X126190000Y-105550000D02*
X130340000Y-105550000D01*
X130320000Y-101550000D02*
X130330000Y-101350000D01*
X130330000Y-101350000D02*
X126160000Y-101350000D01*
X130340000Y-105550000D02*
X130340000Y-105350000D01*
D10*
X124488748Y-107825000D02*
X125011252Y-107825000D01*
X124488748Y-109295000D02*
X125011252Y-109295000D01*
X123520000Y-103246359D02*
X123520000Y-103553641D01*
X124280000Y-103246359D02*
X124280000Y-103553641D01*
X124790000Y-103507836D02*
X124790000Y-103292164D01*
X125510000Y-103507836D02*
X125510000Y-103292164D01*
X124492164Y-106840000D02*
X124707836Y-106840000D01*
X124492164Y-107560000D02*
X124707836Y-107560000D01*
D12*
X123750000Y-106575000D02*
X123750000Y-106100000D01*
X123850000Y-105250000D02*
X125450000Y-105250000D01*
X123850000Y-105750000D02*
X123850000Y-105250000D01*
X125450000Y-105250000D02*
X125450000Y-105750000D01*
X125450000Y-105750000D02*
X123850000Y-105750000D01*
M02*
