%TF.GenerationSoftware,KiCad,Pcbnew,9.0.0*%
%TF.CreationDate,2025-02-28T11:20:30-05:00*%
%TF.ProjectId,reggie,72656767-6965-42e6-9b69-6361645f7063,rev?*%
%TF.SameCoordinates,Original*%
%TF.FileFunction,Copper,L1,Top*%
%TF.FilePolarity,Positive*%
%FSLAX46Y46*%
G04 Gerber Fmt 4.6, Leading zero omitted, Abs format (unit mm)*
G04 Created by KiCad (PCBNEW 9.0.0) date 2025-02-28 11:20:30*
%MOMM*%
%LPD*%
G01*
G04 APERTURE LIST*
G04 Aperture macros list*
%AMRoundRect*
0 Rectangle with rounded corners*
0 $1 Rounding radius*
0 $2 $3 $4 $5 $6 $7 $8 $9 X,Y pos of 4 corners*
0 Add a 4 corners polygon primitive as box body*
4,1,4,$2,$3,$4,$5,$6,$7,$8,$9,$2,$3,0*
0 Add four circle primitives for the rounded corners*
1,1,$1+$1,$2,$3*
1,1,$1+$1,$4,$5*
1,1,$1+$1,$6,$7*
1,1,$1+$1,$8,$9*
0 Add four rect primitives between the rounded corners*
20,1,$1+$1,$2,$3,$4,$5,0*
20,1,$1+$1,$4,$5,$6,$7,0*
20,1,$1+$1,$6,$7,$8,$9,0*
20,1,$1+$1,$8,$9,$2,$3,0*%
G04 Aperture macros list end*
%TA.AperFunction,SMDPad,CuDef*%
%ADD10RoundRect,0.250000X0.250000X0.475000X-0.250000X0.475000X-0.250000X-0.475000X0.250000X-0.475000X0*%
%TD*%
%TA.AperFunction,SMDPad,CuDef*%
%ADD11RoundRect,0.135000X0.185000X-0.135000X0.185000X0.135000X-0.185000X0.135000X-0.185000X-0.135000X0*%
%TD*%
%TA.AperFunction,SMDPad,CuDef*%
%ADD12RoundRect,0.140000X-0.170000X0.140000X-0.170000X-0.140000X0.170000X-0.140000X0.170000X0.140000X0*%
%TD*%
%TA.AperFunction,SMDPad,CuDef*%
%ADD13RoundRect,0.250000X-0.550000X-1.500000X0.550000X-1.500000X0.550000X1.500000X-0.550000X1.500000X0*%
%TD*%
%TA.AperFunction,ComponentPad*%
%ADD14C,1.350000*%
%TD*%
%TA.AperFunction,ComponentPad*%
%ADD15O,1.350000X1.350000*%
%TD*%
%TA.AperFunction,SMDPad,CuDef*%
%ADD16RoundRect,0.250000X-0.250000X-0.475000X0.250000X-0.475000X0.250000X0.475000X-0.250000X0.475000X0*%
%TD*%
%TA.AperFunction,SMDPad,CuDef*%
%ADD17RoundRect,0.135000X-0.185000X0.135000X-0.185000X-0.135000X0.185000X-0.135000X0.185000X0.135000X0*%
%TD*%
%TA.AperFunction,SMDPad,CuDef*%
%ADD18RoundRect,0.140000X0.170000X-0.140000X0.170000X0.140000X-0.170000X0.140000X-0.170000X-0.140000X0*%
%TD*%
%TA.AperFunction,SMDPad,CuDef*%
%ADD19RoundRect,0.140000X-0.140000X-0.170000X0.140000X-0.170000X0.140000X0.170000X-0.140000X0.170000X0*%
%TD*%
%TA.AperFunction,SMDPad,CuDef*%
%ADD20RoundRect,0.075000X0.075000X0.162500X-0.075000X0.162500X-0.075000X-0.162500X0.075000X-0.162500X0*%
%TD*%
%TA.AperFunction,ViaPad*%
%ADD21C,0.500000*%
%TD*%
%TA.AperFunction,Conductor*%
%ADD22C,0.300000*%
%TD*%
%TA.AperFunction,Conductor*%
%ADD23C,0.127000*%
%TD*%
G04 APERTURE END LIST*
D10*
%TO.P,C5,1*%
%TO.N,VOUT*%
X129650000Y-108530000D03*
%TO.P,C5,2*%
%TO.N,GND*%
X127750000Y-108530000D03*
%TD*%
D11*
%TO.P,R1,1*%
%TO.N,VIN*%
X123050000Y-106410000D03*
%TO.P,R1,2*%
%TO.N,EN*%
X123050000Y-105390000D03*
%TD*%
D12*
%TO.P,C4,1*%
%TO.N,VOUT*%
X123050000Y-102920000D03*
%TO.P,C4,2*%
%TO.N,FB*%
X123050000Y-103880000D03*
%TD*%
D10*
%TO.P,C6,1*%
%TO.N,VOUT*%
X129670000Y-106750000D03*
%TO.P,C6,2*%
%TO.N,GND*%
X127770000Y-106750000D03*
%TD*%
D13*
%TO.P,L1,1,1*%
%TO.N,Net-(IC1-SW)*%
X126650000Y-103450000D03*
%TO.P,L1,2,2*%
%TO.N,VOUT*%
X129850000Y-103450000D03*
%TD*%
D14*
%TO.P,J1,1,Pin_1*%
%TO.N,VIN*%
X123750000Y-110300000D03*
D15*
%TO.P,J1,2,Pin_2*%
%TO.N,GND*%
X125750000Y-110300000D03*
%TO.P,J1,3,Pin_3*%
X127750000Y-110300000D03*
%TO.P,J1,4,Pin_4*%
%TO.N,VOUT*%
X129750000Y-110300000D03*
%TD*%
D16*
%TO.P,C1,1*%
%TO.N,VIN*%
X123800000Y-108560000D03*
%TO.P,C1,2*%
%TO.N,GND*%
X125700000Y-108560000D03*
%TD*%
D17*
%TO.P,R2,1*%
%TO.N,VOUT*%
X123900000Y-102890000D03*
%TO.P,R2,2*%
%TO.N,FB*%
X123900000Y-103910000D03*
%TD*%
D18*
%TO.P,C3,1*%
%TO.N,Net-(IC1-BST)*%
X125150000Y-103880000D03*
%TO.P,C3,2*%
%TO.N,Net-(IC1-SW)*%
X125150000Y-102920000D03*
%TD*%
D14*
%TO.P,J2,1,Pin_1*%
%TO.N,EN*%
X123750000Y-101600000D03*
%TD*%
D19*
%TO.P,C2,1*%
%TO.N,VIN*%
X124120000Y-107200000D03*
%TO.P,C2,2*%
%TO.N,GND*%
X125080000Y-107200000D03*
%TD*%
D20*
%TO.P,IC1,1,VIN*%
%TO.N,VIN*%
X124150000Y-106338000D03*
%TO.P,IC1,2,SW*%
%TO.N,Net-(IC1-SW)*%
X124650000Y-106338000D03*
%TO.P,IC1,3,GND*%
%TO.N,GND*%
X125150000Y-106338000D03*
%TO.P,IC1,4,BST*%
%TO.N,Net-(IC1-BST)*%
X125150000Y-104662000D03*
%TO.P,IC1,5,EN*%
%TO.N,EN*%
X124650000Y-104662000D03*
%TO.P,IC1,6,FB*%
%TO.N,FB*%
X124150000Y-104662000D03*
%TD*%
D21*
%TO.N,GND*%
X126150000Y-107000000D03*
X126150000Y-106400000D03*
X125550000Y-107000000D03*
X125550000Y-106400000D03*
X126150000Y-107600000D03*
X125550000Y-107600000D03*
X126750000Y-106400000D03*
X126750000Y-107000000D03*
X126550000Y-108200000D03*
X126750000Y-107600000D03*
%TO.N,VOUT*%
X123050000Y-102500000D03*
%TO.N,FB*%
X123459175Y-103520618D03*
%TD*%
D22*
%TO.N,VOUT*%
X123050000Y-102920000D02*
X123050000Y-102500000D01*
X123870000Y-102920000D02*
X123900000Y-102890000D01*
X123050000Y-102920000D02*
X123870000Y-102920000D01*
D23*
%TO.N,EN*%
X124650000Y-104450000D02*
X124650000Y-104662000D01*
X124550000Y-104350000D02*
X124650000Y-104450000D01*
X124550000Y-104350000D02*
X124550000Y-102400000D01*
X124550000Y-104562000D02*
X124550000Y-104350000D01*
X124560837Y-104910837D02*
X124560837Y-104751163D01*
X124650000Y-104821674D02*
X124650000Y-104662000D01*
X124560837Y-104910837D02*
X124650000Y-104821674D01*
X123050000Y-105390000D02*
X124081674Y-105390000D01*
X124560837Y-104751163D02*
X124650000Y-104662000D01*
X124650000Y-104662000D02*
X124550000Y-104562000D01*
X124550000Y-104900000D02*
X124560837Y-104910837D01*
X124081674Y-105390000D02*
X124560837Y-104910837D01*
X124550000Y-104350000D02*
X124550000Y-104900000D01*
X124550000Y-102400000D02*
X123750000Y-101600000D01*
D22*
%TO.N,Net-(IC1-SW)*%
X125150000Y-102920000D02*
X126420000Y-102920000D01*
X126420000Y-102920000D02*
X126650000Y-103150000D01*
%TD*%
%TA.AperFunction,Conductor*%
%TO.N,VOUT*%
G36*
X123271345Y-102543931D02*
G01*
X123283023Y-102546302D01*
X123290449Y-102551306D01*
X123292161Y-102560096D01*
X123292002Y-102560776D01*
X123269685Y-102644658D01*
X123269232Y-102646018D01*
X123242770Y-102711763D01*
X123216935Y-102778446D01*
X123204617Y-102837740D01*
X123200620Y-102908956D01*
X123196734Y-102917024D01*
X123188938Y-102920000D01*
X122910587Y-102920000D01*
X122902314Y-102916573D01*
X122898945Y-102909466D01*
X122887427Y-102794500D01*
X122887427Y-102794499D01*
X122857238Y-102711786D01*
X122846964Y-102688008D01*
X122846509Y-102686764D01*
X122834194Y-102646018D01*
X122808520Y-102561068D01*
X122809407Y-102552157D01*
X122816335Y-102546483D01*
X122817377Y-102546220D01*
X123047675Y-102499472D01*
X123052325Y-102499472D01*
X123271345Y-102543931D01*
G37*
%TD.AperFunction*%
%TD*%
%TA.AperFunction,Conductor*%
%TO.N,Net-(IC1-BST)*%
G36*
X125461484Y-103554756D02*
G01*
X125496792Y-103569381D01*
X125496793Y-103569382D01*
X125530617Y-103603205D01*
X125545243Y-103638516D01*
X125550000Y-103662432D01*
X125550000Y-103906257D01*
X125544398Y-103932120D01*
X125398681Y-104252697D01*
X125395930Y-104259206D01*
X125393510Y-104265383D01*
X125391105Y-104272040D01*
X125380858Y-104302964D01*
X125380849Y-104302994D01*
X125377138Y-104316579D01*
X125374327Y-104329555D01*
X125374324Y-104329575D01*
X125372073Y-104343521D01*
X125372072Y-104343525D01*
X125368605Y-104375921D01*
X125368043Y-104382935D01*
X125367687Y-104389589D01*
X125367500Y-104396660D01*
X125367500Y-104780793D01*
X125366298Y-104792989D01*
X125362387Y-104812646D01*
X125353071Y-104835150D01*
X125352814Y-104835535D01*
X125335546Y-104852808D01*
X125332619Y-104854763D01*
X125316052Y-104862598D01*
X125299690Y-104867562D01*
X125277165Y-104876893D01*
X125259708Y-104886224D01*
X125242444Y-104892401D01*
X125237936Y-104893298D01*
X125225739Y-104894500D01*
X125074260Y-104894500D01*
X125062070Y-104893299D01*
X125044663Y-104889837D01*
X125030142Y-104885040D01*
X125027396Y-104883741D01*
X125027390Y-104883739D01*
X124992671Y-104873206D01*
X124985983Y-104872214D01*
X124980829Y-104871449D01*
X124939800Y-104846857D01*
X124927500Y-104809626D01*
X124927500Y-104479557D01*
X124927500Y-104479556D01*
X124915751Y-104420488D01*
X124915750Y-104420486D01*
X124915749Y-104420484D01*
X124910533Y-104412678D01*
X124900000Y-104377955D01*
X124900000Y-104373611D01*
X124899071Y-104365631D01*
X124897325Y-104350632D01*
X124889443Y-104328885D01*
X124762178Y-104074358D01*
X124759321Y-104067705D01*
X124755154Y-104056208D01*
X124751833Y-104042137D01*
X124750419Y-104029989D01*
X124750000Y-104022763D01*
X124750000Y-103662432D01*
X124754757Y-103638516D01*
X124759105Y-103628016D01*
X124769381Y-103603207D01*
X124803203Y-103569383D01*
X124828016Y-103559105D01*
X124838516Y-103554757D01*
X124862432Y-103550000D01*
X125437568Y-103550000D01*
X125461484Y-103554756D01*
G37*
%TD.AperFunction*%
%TD*%
%TA.AperFunction,Conductor*%
%TO.N,VOUT*%
G36*
X130854194Y-101618306D02*
G01*
X130872500Y-101662500D01*
X130872500Y-110496930D01*
X130872199Y-110503056D01*
X130856338Y-110664088D01*
X130853948Y-110676105D01*
X130807871Y-110828002D01*
X130803182Y-110839321D01*
X130728358Y-110979307D01*
X130721551Y-110989494D01*
X130620856Y-111112192D01*
X130612192Y-111120856D01*
X130489494Y-111221551D01*
X130479307Y-111228358D01*
X130339321Y-111303182D01*
X130328002Y-111307871D01*
X130176105Y-111353948D01*
X130164088Y-111356338D01*
X130003056Y-111372199D01*
X129996930Y-111372500D01*
X128765713Y-111372500D01*
X128748871Y-111365523D01*
X128730988Y-111361966D01*
X128727431Y-111356643D01*
X128721519Y-111354194D01*
X128704414Y-111322194D01*
X128701199Y-111306030D01*
X128700000Y-111293844D01*
X128700000Y-105962500D01*
X128718306Y-105918306D01*
X128741333Y-105908767D01*
X128749998Y-105900000D01*
X128750000Y-105900000D01*
X128702272Y-101795465D01*
X128703467Y-101782565D01*
X128712798Y-101735654D01*
X128722130Y-101713127D01*
X128751673Y-101668913D01*
X128768913Y-101651673D01*
X128813128Y-101622129D01*
X128835656Y-101612798D01*
X128893962Y-101601200D01*
X128906155Y-101600000D01*
X130810000Y-101600000D01*
X130854194Y-101618306D01*
G37*
%TD.AperFunction*%
%TD*%
%TA.AperFunction,Conductor*%
%TO.N,Net-(IC1-SW)*%
G36*
X127371186Y-101601201D02*
G01*
X127429489Y-101612798D01*
X127452020Y-101622130D01*
X127496232Y-101651672D01*
X127513475Y-101668915D01*
X127543017Y-101713127D01*
X127552349Y-101735657D01*
X127563947Y-101793961D01*
X127565148Y-101806155D01*
X127565148Y-105095520D01*
X127564043Y-105107219D01*
X127553363Y-105163268D01*
X127544759Y-105185026D01*
X127514214Y-105233223D01*
X127507019Y-105242512D01*
X126887471Y-105903362D01*
X126877846Y-105911727D01*
X126827281Y-105947313D01*
X126803997Y-105957401D01*
X126743455Y-105969952D01*
X126730768Y-105971253D01*
X125099997Y-105971253D01*
X125097254Y-105971799D01*
X125085062Y-105973000D01*
X125055055Y-105973000D01*
X124995989Y-105984748D01*
X124995988Y-105984749D01*
X124929006Y-106029506D01*
X124884249Y-106096488D01*
X124884248Y-106096489D01*
X124872500Y-106155555D01*
X124872500Y-106459653D01*
X124855262Y-106502753D01*
X124816769Y-106543177D01*
X124790132Y-106559737D01*
X124717395Y-106582444D01*
X124701829Y-106585209D01*
X124616129Y-106589409D01*
X124603513Y-106588749D01*
X124542977Y-106579382D01*
X124519417Y-106570622D01*
X124472964Y-106541599D01*
X124454760Y-106524265D01*
X124438679Y-106501129D01*
X124427500Y-106465458D01*
X124427500Y-106155557D01*
X124427500Y-106155556D01*
X124415751Y-106096488D01*
X124415750Y-106096486D01*
X124415749Y-106096484D01*
X124410533Y-106088678D01*
X124400000Y-106053955D01*
X124400000Y-105479537D01*
X124400978Y-105468523D01*
X124410451Y-105415610D01*
X124418094Y-105394949D01*
X124445340Y-105348604D01*
X124451755Y-105339619D01*
X124678594Y-105074973D01*
X124688386Y-105065770D01*
X124726463Y-105037026D01*
X124751921Y-105025612D01*
X124804012Y-105015251D01*
X124811068Y-105010535D01*
X124845795Y-105000000D01*
X124954204Y-105000000D01*
X124988928Y-105010534D01*
X124995985Y-105015249D01*
X124995988Y-105015251D01*
X125055056Y-105027000D01*
X125055057Y-105027000D01*
X125244943Y-105027000D01*
X125244944Y-105027000D01*
X125304012Y-105015251D01*
X125327877Y-104999304D01*
X125350402Y-104989974D01*
X125376537Y-104984776D01*
X125441421Y-104941421D01*
X125484776Y-104876537D01*
X125500000Y-104800000D01*
X125500000Y-104396659D01*
X125500355Y-104390007D01*
X125500880Y-104385101D01*
X125503820Y-104357632D01*
X125506635Y-104344637D01*
X125516882Y-104313711D01*
X125519301Y-104307537D01*
X125732073Y-103839439D01*
X125745467Y-103799018D01*
X125750000Y-103756678D01*
X125750000Y-103145000D01*
X125728033Y-103091967D01*
X125675000Y-103070000D01*
X125658945Y-103063349D01*
X125645883Y-103057939D01*
X125624122Y-103036177D01*
X125612059Y-103024114D01*
X125604757Y-103006485D01*
X125600000Y-102982568D01*
X125600000Y-102857431D01*
X125604756Y-102833517D01*
X125612060Y-102815883D01*
X125645883Y-102782060D01*
X125675000Y-102770000D01*
X125728033Y-102748033D01*
X125750000Y-102695000D01*
X125750000Y-101806155D01*
X125751201Y-101793962D01*
X125762798Y-101735658D01*
X125772130Y-101713127D01*
X125801673Y-101668913D01*
X125818913Y-101651673D01*
X125863128Y-101622129D01*
X125885656Y-101612798D01*
X125943962Y-101601200D01*
X125956155Y-101600000D01*
X127358993Y-101600000D01*
X127371186Y-101601201D01*
G37*
%TD.AperFunction*%
%TD*%
%TA.AperFunction,Conductor*%
%TO.N,FB*%
G36*
X124261484Y-103554756D02*
G01*
X124296792Y-103569381D01*
X124296793Y-103569382D01*
X124330617Y-103603205D01*
X124345243Y-103638516D01*
X124350000Y-103662432D01*
X124350000Y-104825670D01*
X124331694Y-104869864D01*
X124269864Y-104931694D01*
X124225670Y-104950000D01*
X123347576Y-104950000D01*
X123335384Y-104948799D01*
X123323033Y-104946342D01*
X123315345Y-104944813D01*
X123292816Y-104935481D01*
X123275828Y-104924130D01*
X123266357Y-104916357D01*
X122733642Y-104383642D01*
X122725869Y-104374171D01*
X122714518Y-104357183D01*
X122705186Y-104334651D01*
X122701201Y-104314614D01*
X122700000Y-104302423D01*
X122700000Y-103662432D01*
X122704757Y-103638516D01*
X122709105Y-103628016D01*
X122719381Y-103603207D01*
X122753203Y-103569383D01*
X122778016Y-103559105D01*
X122788516Y-103554757D01*
X122812432Y-103550000D01*
X124237568Y-103550000D01*
X124261484Y-103554756D01*
G37*
%TD.AperFunction*%
%TD*%
%TA.AperFunction,Conductor*%
%TO.N,EN*%
G36*
X124408757Y-101472453D02*
G01*
X124413723Y-101479905D01*
X124413820Y-101480468D01*
X124429326Y-101585727D01*
X124429438Y-101586882D01*
X124434244Y-101689011D01*
X124434236Y-101690254D01*
X124423989Y-101862827D01*
X124423980Y-101862965D01*
X124416009Y-101974862D01*
X124427602Y-102093709D01*
X124427603Y-102093712D01*
X124446586Y-102150993D01*
X124477369Y-102210799D01*
X124522344Y-102273981D01*
X124526491Y-102279806D01*
X124544087Y-102299172D01*
X124587400Y-102346843D01*
X124590428Y-102355271D01*
X124587014Y-102362984D01*
X124513007Y-102436991D01*
X124504734Y-102440418D01*
X124496841Y-102437355D01*
X124433865Y-102379805D01*
X124368340Y-102332046D01*
X124307012Y-102299172D01*
X124248476Y-102278803D01*
X124133883Y-102265885D01*
X124133879Y-102265885D01*
X124012965Y-102273981D01*
X124012770Y-102273992D01*
X123815030Y-102283923D01*
X123813140Y-102283865D01*
X123630955Y-102263446D01*
X123623115Y-102259119D01*
X123620631Y-102250516D01*
X123620780Y-102249551D01*
X123640259Y-102150993D01*
X123747773Y-101606982D01*
X123752739Y-101599531D01*
X123756982Y-101597773D01*
X124399979Y-101470695D01*
X124408757Y-101472453D01*
G37*
%TD.AperFunction*%
%TD*%
%TA.AperFunction,Conductor*%
%TO.N,VIN*%
G36*
X124032562Y-105900675D02*
G01*
X124038253Y-105901518D01*
X124134848Y-105915831D01*
X124152378Y-105921144D01*
X124231697Y-105958615D01*
X124263837Y-105994044D01*
X124267500Y-106015126D01*
X124267500Y-106053955D01*
X124271212Y-106078980D01*
X124273205Y-106092419D01*
X124283736Y-106127135D01*
X124283742Y-106127151D01*
X124285645Y-106131175D01*
X124290441Y-106145694D01*
X124293798Y-106162565D01*
X124295000Y-106174762D01*
X124295000Y-106465458D01*
X124301064Y-106505082D01*
X124312243Y-106540753D01*
X124329879Y-106576752D01*
X124329880Y-106576754D01*
X124329882Y-106576757D01*
X124345958Y-106599885D01*
X124345964Y-106599893D01*
X124363373Y-106620205D01*
X124363383Y-106620215D01*
X124363389Y-106620222D01*
X124373055Y-106629426D01*
X124381599Y-106637562D01*
X124402753Y-106653967D01*
X124402757Y-106653970D01*
X124425640Y-106668267D01*
X124443553Y-106679459D01*
X124471333Y-106718401D01*
X124472626Y-106726245D01*
X124608818Y-108088164D01*
X124608821Y-108088187D01*
X124616957Y-108137795D01*
X124631258Y-108186002D01*
X124631266Y-108186026D01*
X124724627Y-108440769D01*
X124726287Y-108445999D01*
X124742412Y-108505778D01*
X124744328Y-108516573D01*
X124749759Y-108578251D01*
X124750000Y-108583733D01*
X124750000Y-111310000D01*
X124731694Y-111354194D01*
X124687500Y-111372500D01*
X123503070Y-111372500D01*
X123496944Y-111372199D01*
X123335911Y-111356338D01*
X123323894Y-111353948D01*
X123171997Y-111307871D01*
X123160678Y-111303182D01*
X123020692Y-111228358D01*
X123010505Y-111221551D01*
X122887807Y-111120856D01*
X122879143Y-111112192D01*
X122778445Y-110989490D01*
X122771644Y-110979311D01*
X122696815Y-110839317D01*
X122692130Y-110828007D01*
X122646050Y-110676101D01*
X122643661Y-110664088D01*
X122637215Y-110598643D01*
X122627801Y-110503056D01*
X122627500Y-110496930D01*
X122627500Y-106175848D01*
X122634312Y-106147474D01*
X122671899Y-106073705D01*
X122683390Y-106057888D01*
X122757888Y-105983390D01*
X122773702Y-105971900D01*
X122867573Y-105924070D01*
X122886166Y-105918028D01*
X122995145Y-105900769D01*
X123004922Y-105900000D01*
X124023401Y-105900000D01*
X124032562Y-105900675D01*
G37*
%TD.AperFunction*%
%TD*%
%TA.AperFunction,Conductor*%
%TO.N,GND*%
G36*
X128549194Y-105918306D02*
G01*
X128567500Y-105962500D01*
X128567500Y-111293844D01*
X128567817Y-111300308D01*
X128568143Y-111306937D01*
X128552025Y-111351975D01*
X128508781Y-111372425D01*
X128505718Y-111372500D01*
X124945000Y-111372500D01*
X124900806Y-111354194D01*
X124882500Y-111310000D01*
X124882500Y-108583736D01*
X124882372Y-108577918D01*
X124882372Y-108577914D01*
X124882131Y-108572432D01*
X124881748Y-108566629D01*
X124876317Y-108504951D01*
X124876317Y-108504947D01*
X124874791Y-108493432D01*
X124874789Y-108493418D01*
X124872873Y-108482623D01*
X124870340Y-108471270D01*
X124854215Y-108411491D01*
X124852578Y-108405914D01*
X124852571Y-108405890D01*
X124850924Y-108400704D01*
X124850918Y-108400684D01*
X124849035Y-108395175D01*
X124757781Y-108146183D01*
X124756548Y-108142458D01*
X124747477Y-108111885D01*
X124745722Y-108104235D01*
X124740562Y-108072773D01*
X124740053Y-108068919D01*
X124611963Y-106788016D01*
X124625781Y-106742222D01*
X124667934Y-106719609D01*
X124671091Y-106719374D01*
X124678089Y-106719031D01*
X124708302Y-106717551D01*
X124708305Y-106717550D01*
X124708315Y-106717550D01*
X124725002Y-106715667D01*
X124740568Y-106712902D01*
X124756880Y-106708924D01*
X124789207Y-106698832D01*
X124829602Y-106686222D01*
X124829605Y-106686220D01*
X124829617Y-106686217D01*
X124860089Y-106672264D01*
X124886726Y-106655704D01*
X124912724Y-106634549D01*
X124951217Y-106594125D01*
X124978287Y-106551957D01*
X124995525Y-106508857D01*
X125005000Y-106459653D01*
X125005000Y-106174756D01*
X125006198Y-106162580D01*
X125006631Y-106160400D01*
X125015959Y-106137864D01*
X125017620Y-106135377D01*
X125034877Y-106118120D01*
X125037364Y-106116458D01*
X125059900Y-106107130D01*
X125062087Y-106106695D01*
X125074257Y-106105500D01*
X125085046Y-106105500D01*
X125085062Y-106105500D01*
X125098051Y-106104862D01*
X125105621Y-106104116D01*
X125106254Y-106104054D01*
X125112380Y-106103753D01*
X126730756Y-106103753D01*
X126730768Y-106103753D01*
X126744284Y-106103062D01*
X126756971Y-106101761D01*
X126770352Y-106099693D01*
X126830894Y-106087142D01*
X126856672Y-106078980D01*
X126879956Y-106068892D01*
X126903538Y-106055669D01*
X126954103Y-106020083D01*
X126964763Y-106011736D01*
X126974388Y-106003371D01*
X126984135Y-105993984D01*
X127053726Y-105919752D01*
X127097307Y-105900032D01*
X127099322Y-105900000D01*
X128505000Y-105900000D01*
X128549194Y-105918306D01*
G37*
%TD.AperFunction*%
%TD*%
M02*
