%TF.GenerationSoftware,KiCad,Pcbnew,9.0.0*%
%TF.CreationDate,2025-02-28T11:20:30-05:00*%
%TF.ProjectId,reggie,72656767-6965-42e6-9b69-6361645f7063,rev?*%
%TF.SameCoordinates,Original*%
%TF.FileFunction,Legend,Bot*%
%TF.FilePolarity,Positive*%
%FSLAX46Y46*%
G04 Gerber Fmt 4.6, Leading zero omitted, Abs format (unit mm)*
G04 Created by KiCad (PCBNEW 9.0.0) date 2025-02-28 11:20:30*
%MOMM*%
%LPD*%
G01*
G04 APERTURE LIST*
G04 Aperture macros list*
%AMRoundRect*
0 Rectangle with rounded corners*
0 $1 Rounding radius*
0 $2 $3 $4 $5 $6 $7 $8 $9 X,Y pos of 4 corners*
0 Add a 4 corners polygon primitive as box body*
4,1,4,$2,$3,$4,$5,$6,$7,$8,$9,$2,$3,0*
0 Add four circle primitives for the rounded corners*
1,1,$1+$1,$2,$3*
1,1,$1+$1,$4,$5*
1,1,$1+$1,$6,$7*
1,1,$1+$1,$8,$9*
0 Add four rect primitives between the rounded corners*
20,1,$1+$1,$2,$3,$4,$5,0*
20,1,$1+$1,$4,$5,$6,$7,0*
20,1,$1+$1,$6,$7,$8,$9,0*
20,1,$1+$1,$8,$9,$2,$3,0*%
G04 Aperture macros list end*
%ADD10C,0.100000*%
%ADD11C,0.125000*%
%ADD12C,0.120000*%
%ADD13C,1.350000*%
%ADD14O,1.350000X1.350000*%
%ADD15RoundRect,0.250000X-0.625000X0.312500X-0.625000X-0.312500X0.625000X-0.312500X0.625000X0.312500X0*%
G04 APERTURE END LIST*
D10*
X125428151Y-104994969D02*
X125654823Y-104994969D01*
X125478787Y-104853610D02*
X125427654Y-104981564D01*
X125550000Y-104600000D02*
X125850000Y-105000000D01*
X125478787Y-104756557D02*
X125554311Y-104914256D01*
X125850000Y-105000000D02*
X125250000Y-105100000D01*
X125546302Y-104712251D02*
X125654823Y-104994969D01*
X125478787Y-104853610D02*
X125654823Y-104994969D01*
X125250000Y-105100000D02*
X125550000Y-104600000D01*
X125763344Y-105014443D02*
X125546302Y-104712251D01*
X127050000Y-103900000D02*
X125250000Y-105100000D01*
D11*
G36*
X127556960Y-109040737D02*
G01*
X127544381Y-109020954D01*
X127524781Y-109008253D01*
X127502371Y-109004040D01*
X127330302Y-109004040D01*
X127307893Y-109008253D01*
X127289758Y-109020893D01*
X127277118Y-109040493D01*
X127271562Y-109062903D01*
X127271562Y-109200350D01*
X127278523Y-109226973D01*
X127323280Y-109311114D01*
X127407239Y-109391043D01*
X127477214Y-109426092D01*
X127502371Y-109430000D01*
X127640857Y-109430000D01*
X127666075Y-109424443D01*
X127750034Y-109378342D01*
X127819948Y-109309893D01*
X127864706Y-109226118D01*
X127905311Y-109096181D01*
X127905311Y-108925821D01*
X127867514Y-108804310D01*
X127819948Y-108712170D01*
X127734646Y-108632547D01*
X127666075Y-108597620D01*
X127640857Y-108589804D01*
X127502371Y-108589804D01*
X127477214Y-108595422D01*
X127407239Y-108630348D01*
X127323280Y-108710033D01*
X127278523Y-108793991D01*
X127272966Y-108816400D01*
X127277118Y-108842962D01*
X127289758Y-108862562D01*
X127305145Y-108872332D01*
X127326089Y-108879354D01*
X127365290Y-108879354D01*
X127386234Y-108875141D01*
X127404430Y-108863967D01*
X127418413Y-108847175D01*
X127447844Y-108786969D01*
X127468788Y-108766025D01*
X127516354Y-108742212D01*
X127626874Y-108742212D01*
X127674440Y-108766025D01*
X127695445Y-108787030D01*
X127723411Y-108843145D01*
X127752781Y-108932843D01*
X127752781Y-109086960D01*
X127723411Y-109176659D01*
X127695445Y-109232773D01*
X127674440Y-109253778D01*
X127626874Y-109277592D01*
X127516354Y-109277592D01*
X127468788Y-109254206D01*
X127447844Y-109233567D01*
X127424030Y-109186734D01*
X127424030Y-109156448D01*
X127502371Y-109156448D01*
X127524781Y-109152234D01*
X127544381Y-109139534D01*
X127556960Y-109121154D01*
X127561112Y-109063330D01*
X127556960Y-109040737D01*
G37*
G36*
X127148769Y-108650987D02*
G01*
X127140403Y-108620273D01*
X127124955Y-108603482D01*
X127104011Y-108593712D01*
X127067619Y-108596521D01*
X127048019Y-108609099D01*
X126702476Y-109087388D01*
X126702476Y-108648545D01*
X126696858Y-108626074D01*
X126684280Y-108606352D01*
X126666084Y-108593712D01*
X126643675Y-108589499D01*
X126586339Y-108593712D01*
X126566738Y-108606352D01*
X126554160Y-108626013D01*
X126550007Y-108648422D01*
X126550007Y-109372480D01*
X126558373Y-109403316D01*
X126573821Y-109420169D01*
X126594765Y-109430000D01*
X126618579Y-109430000D01*
X126650758Y-109414612D01*
X126996300Y-108936324D01*
X126996300Y-109371687D01*
X127001857Y-109393974D01*
X127014435Y-109413513D01*
X127032631Y-109426092D01*
X127089967Y-109430305D01*
X127112377Y-109426092D01*
X127131977Y-109413513D01*
X127144556Y-109393974D01*
X127148769Y-109371625D01*
X127148769Y-108650987D01*
G37*
G36*
X126358582Y-108593712D02*
G01*
X126376778Y-108606352D01*
X126389357Y-108625952D01*
X126393570Y-108648361D01*
X126393570Y-109371442D01*
X126389357Y-109393852D01*
X126376778Y-109413452D01*
X126358582Y-109426092D01*
X126334829Y-109430000D01*
X126094189Y-109430000D01*
X125972495Y-109392203D01*
X125950086Y-109378159D01*
X125870341Y-109294139D01*
X125832605Y-109217142D01*
X125794809Y-109095326D01*
X125798403Y-108932843D01*
X125947277Y-108932843D01*
X125947277Y-109086960D01*
X125976647Y-109176659D01*
X126006018Y-109232773D01*
X126022809Y-109250969D01*
X126103959Y-109277592D01*
X126242445Y-109277592D01*
X126242445Y-108742212D01*
X126103959Y-108742212D01*
X126022809Y-108768834D01*
X126006018Y-108787030D01*
X125976647Y-108843145D01*
X125947277Y-108932843D01*
X125798403Y-108932843D01*
X125799022Y-108904877D01*
X125832605Y-108802662D01*
X125870341Y-108725664D01*
X125950086Y-108641645D01*
X125972495Y-108627601D01*
X126094189Y-108589804D01*
X126334768Y-108589804D01*
X126358582Y-108593712D01*
G37*
G36*
X124335737Y-108626196D02*
G01*
X124323158Y-108606596D01*
X124303558Y-108594017D01*
X124247565Y-108589804D01*
X124225217Y-108594017D01*
X124205616Y-108608000D01*
X124193038Y-108627601D01*
X124006986Y-109105095D01*
X123820873Y-108627356D01*
X123808294Y-108607695D01*
X123788694Y-108593712D01*
X123731358Y-108589499D01*
X123708948Y-108593712D01*
X123692157Y-108604947D01*
X123678174Y-108624548D01*
X123672617Y-108646957D01*
X123676769Y-108669366D01*
X123952397Y-109392203D01*
X123963572Y-109411803D01*
X123983172Y-109424382D01*
X124005581Y-109430000D01*
X124027930Y-109425786D01*
X124047530Y-109414612D01*
X124060109Y-109395012D01*
X124337141Y-108669610D01*
X124339950Y-108647201D01*
X124335737Y-108626196D01*
G37*
G36*
X123578401Y-108626196D02*
G01*
X123570035Y-108613618D01*
X123546222Y-108594017D01*
X123488886Y-108589804D01*
X123466537Y-108594017D01*
X123448341Y-108606596D01*
X123435763Y-108626196D01*
X123430145Y-108648606D01*
X123430145Y-109371198D01*
X123435763Y-109393607D01*
X123448341Y-109413208D01*
X123466537Y-109425786D01*
X123488886Y-109430000D01*
X123546222Y-109425786D01*
X123565822Y-109413208D01*
X123578401Y-109393607D01*
X123582614Y-109371198D01*
X123582614Y-108648606D01*
X123578401Y-108626196D01*
G37*
G36*
X126071841Y-101225952D02*
G01*
X126059263Y-101206290D01*
X126039662Y-101193712D01*
X126017314Y-101189804D01*
X125604605Y-101189804D01*
X125582196Y-101194017D01*
X125562595Y-101206596D01*
X125550017Y-101226135D01*
X125545803Y-101283471D01*
X125550017Y-101305881D01*
X125562595Y-101324016D01*
X125582196Y-101336594D01*
X125604605Y-101342212D01*
X125923586Y-101342212D01*
X125923586Y-101533698D01*
X125776674Y-101533698D01*
X125754265Y-101537911D01*
X125734664Y-101550612D01*
X125722086Y-101570396D01*
X125717872Y-101626816D01*
X125722086Y-101649408D01*
X125734664Y-101669192D01*
X125754265Y-101681892D01*
X125776674Y-101686106D01*
X125923586Y-101686106D01*
X125923586Y-101877592D01*
X125604605Y-101877592D01*
X125582196Y-101883210D01*
X125562595Y-101895788D01*
X125550017Y-101914045D01*
X125545803Y-101971442D01*
X125550017Y-101993852D01*
X125562595Y-102013513D01*
X125582196Y-102026092D01*
X125604605Y-102030000D01*
X126017314Y-102030000D01*
X126039662Y-102025786D01*
X126059263Y-102013208D01*
X126071841Y-101993607D01*
X126076055Y-101971137D01*
X126076055Y-101248361D01*
X126071841Y-101225952D01*
G37*
G36*
X125422461Y-101250987D02*
G01*
X125414095Y-101220273D01*
X125398647Y-101203482D01*
X125377703Y-101193712D01*
X125341311Y-101196521D01*
X125321711Y-101209099D01*
X124976168Y-101687388D01*
X124976168Y-101248545D01*
X124970550Y-101226074D01*
X124957972Y-101206352D01*
X124939776Y-101193712D01*
X124917367Y-101189499D01*
X124860031Y-101193712D01*
X124840430Y-101206352D01*
X124827852Y-101226013D01*
X124823699Y-101248422D01*
X124823699Y-101972480D01*
X124832065Y-102003316D01*
X124847513Y-102020169D01*
X124868457Y-102030000D01*
X124892271Y-102030000D01*
X124924450Y-102014612D01*
X125269992Y-101536324D01*
X125269992Y-101971687D01*
X125275549Y-101993974D01*
X125288127Y-102013513D01*
X125306323Y-102026092D01*
X125363659Y-102030305D01*
X125386069Y-102026092D01*
X125405669Y-102013513D01*
X125418248Y-101993974D01*
X125422461Y-101971625D01*
X125422461Y-101250987D01*
G37*
G36*
X130458975Y-108626196D02*
G01*
X130446396Y-108606596D01*
X130426796Y-108594017D01*
X130370803Y-108589804D01*
X130348455Y-108594017D01*
X130328854Y-108608000D01*
X130316276Y-108627601D01*
X130130224Y-109105095D01*
X129944111Y-108627356D01*
X129931532Y-108607695D01*
X129911932Y-108593712D01*
X129854596Y-108589499D01*
X129832186Y-108593712D01*
X129815395Y-108604947D01*
X129801412Y-108624548D01*
X129795855Y-108646957D01*
X129800007Y-108669366D01*
X130075635Y-109392203D01*
X130086810Y-109411803D01*
X130106410Y-109424382D01*
X130128819Y-109430000D01*
X130151168Y-109425786D01*
X130170768Y-109414612D01*
X130183347Y-109395012D01*
X130460379Y-108669610D01*
X130463188Y-108647201D01*
X130458975Y-108626196D01*
G37*
G36*
X129497391Y-108593712D02*
G01*
X129570175Y-108630104D01*
X129654072Y-108709972D01*
X129703043Y-108802418D01*
X129740840Y-108924295D01*
X129736626Y-109114804D01*
X129703043Y-109217081D01*
X129665246Y-109294139D01*
X129585501Y-109378159D01*
X129501543Y-109424382D01*
X129474981Y-109430000D01*
X129337900Y-109430000D01*
X129311339Y-109426092D01*
X129227380Y-109379808D01*
X129158809Y-109311053D01*
X129112647Y-109226851D01*
X129072103Y-109096364D01*
X129075712Y-108932843D01*
X129224571Y-108932843D01*
X129224571Y-109086960D01*
X129253941Y-109173850D01*
X129307125Y-109253778D01*
X129381253Y-109277592D01*
X129431628Y-109277592D01*
X129505756Y-109253778D01*
X129558940Y-109173850D01*
X129588310Y-109086960D01*
X129588310Y-108932843D01*
X129558940Y-108845954D01*
X129505756Y-108766025D01*
X129431628Y-108742212D01*
X129381253Y-108742212D01*
X129307125Y-108766025D01*
X129253941Y-108845954D01*
X129224571Y-108932843D01*
X129075712Y-108932843D01*
X129076316Y-108905488D01*
X129109899Y-108803089D01*
X129147635Y-108725908D01*
X129158870Y-108710460D01*
X129242767Y-108630471D01*
X129311339Y-108595422D01*
X129337900Y-108589804D01*
X129479194Y-108589804D01*
X129497391Y-108593712D01*
G37*
D12*
%TO.C,R3*%
X123040000Y-104935436D02*
X123040000Y-106389564D01*
X124860000Y-104935436D02*
X124860000Y-106389564D01*
%TD*%
%LPC*%
D11*
G36*
X130564381Y-105568071D02*
G01*
X130550972Y-105577303D01*
X130519062Y-105587378D01*
X130468687Y-105587378D01*
X130437619Y-105577303D01*
X130418348Y-105564663D01*
X130405745Y-105545319D01*
X130395670Y-105514215D01*
X130395670Y-105504983D01*
X130405745Y-105472999D01*
X130418348Y-105454498D01*
X130437619Y-105441895D01*
X130468687Y-105430977D01*
X130534156Y-105430134D01*
X130546759Y-105423393D01*
X130555991Y-105413318D01*
X130560205Y-105395660D01*
X130557677Y-105382177D01*
X130552621Y-105373788D01*
X130468687Y-105266150D01*
X130587059Y-105266150D01*
X130600468Y-105262779D01*
X130612228Y-105255232D01*
X130619775Y-105244278D01*
X130622303Y-105230832D01*
X130619775Y-105196394D01*
X130612228Y-105184597D01*
X130600468Y-105177050D01*
X130587059Y-105174705D01*
X130360389Y-105174705D01*
X130346981Y-105177233D01*
X130336063Y-105183938D01*
X130328516Y-105194855D01*
X130325145Y-105207458D01*
X130325988Y-105220061D01*
X130331850Y-105231821D01*
X130425053Y-105351146D01*
X130389809Y-105362064D01*
X130376363Y-105370454D01*
X130335220Y-105412476D01*
X130326831Y-105425921D01*
X130305838Y-105488093D01*
X130304153Y-105520040D01*
X130326831Y-105593130D01*
X130335220Y-105606575D01*
X130376363Y-105647718D01*
X130389809Y-105656145D01*
X130462825Y-105678823D01*
X130535841Y-105677137D01*
X130597977Y-105656181D01*
X130612228Y-105647791D01*
X130639083Y-105618409D01*
X130660075Y-105576460D01*
X130663446Y-105563015D01*
X130660918Y-105548763D01*
X130654214Y-105537003D01*
X130642453Y-105528613D01*
X130628202Y-105526085D01*
X130596291Y-105527771D01*
X130584531Y-105534475D01*
X130579512Y-105541179D01*
X130564381Y-105568071D01*
G37*
G36*
X130198969Y-105558179D02*
G01*
X130187246Y-105549862D01*
X130152807Y-105547334D01*
X130139399Y-105549862D01*
X130128481Y-105558179D01*
X130107488Y-105578182D01*
X130099941Y-105589833D01*
X130097413Y-105623172D01*
X130099941Y-105637313D01*
X130107488Y-105648158D01*
X130128481Y-105668967D01*
X130139399Y-105676478D01*
X130173800Y-105679006D01*
X130187246Y-105676478D01*
X130198969Y-105668967D01*
X130219119Y-105648158D01*
X130226667Y-105637313D01*
X130230037Y-105603168D01*
X130226667Y-105589833D01*
X130219119Y-105578182D01*
X130198969Y-105558179D01*
G37*
G36*
X129924856Y-105568071D02*
G01*
X129911447Y-105577303D01*
X129879536Y-105587378D01*
X129829161Y-105587378D01*
X129798094Y-105577303D01*
X129778823Y-105564663D01*
X129766220Y-105545319D01*
X129756145Y-105514215D01*
X129756145Y-105504983D01*
X129766220Y-105472999D01*
X129778823Y-105454498D01*
X129798094Y-105441895D01*
X129829161Y-105430977D01*
X129894631Y-105430134D01*
X129907234Y-105423393D01*
X129916466Y-105413318D01*
X129920679Y-105395660D01*
X129918151Y-105382177D01*
X129913095Y-105373788D01*
X129829161Y-105266150D01*
X129947534Y-105266150D01*
X129960943Y-105262779D01*
X129972703Y-105255232D01*
X129980250Y-105244278D01*
X129982778Y-105230832D01*
X129980250Y-105196394D01*
X129972703Y-105184597D01*
X129960943Y-105177050D01*
X129947534Y-105174705D01*
X129720864Y-105174705D01*
X129707455Y-105177233D01*
X129696537Y-105183938D01*
X129688990Y-105194855D01*
X129685620Y-105207458D01*
X129686462Y-105220061D01*
X129692324Y-105231821D01*
X129785527Y-105351146D01*
X129750283Y-105362064D01*
X129736837Y-105370454D01*
X129695695Y-105412476D01*
X129687305Y-105425921D01*
X129666312Y-105488093D01*
X129664627Y-105520040D01*
X129687305Y-105593130D01*
X129695695Y-105606575D01*
X129736837Y-105647718D01*
X129750283Y-105656145D01*
X129823299Y-105678823D01*
X129896316Y-105677137D01*
X129958451Y-105656181D01*
X129972703Y-105647791D01*
X129999557Y-105618409D01*
X130020550Y-105576460D01*
X130023921Y-105563015D01*
X130021393Y-105548763D01*
X130014688Y-105537003D01*
X130002928Y-105528613D01*
X129988676Y-105526085D01*
X129956766Y-105527771D01*
X129945006Y-105534475D01*
X129939986Y-105541179D01*
X129924856Y-105568071D01*
G37*
G36*
X129629126Y-105196541D02*
G01*
X129621579Y-105184780D01*
X129609819Y-105177233D01*
X129576223Y-105174705D01*
X129562814Y-105177233D01*
X129551054Y-105185623D01*
X129543507Y-105197383D01*
X129431876Y-105483880D01*
X129320208Y-105197237D01*
X129312661Y-105185440D01*
X129300901Y-105177050D01*
X129266499Y-105174522D01*
X129253053Y-105177050D01*
X129242978Y-105183791D01*
X129234589Y-105195551D01*
X129231255Y-105208997D01*
X129233746Y-105222443D01*
X129399123Y-105656145D01*
X129405827Y-105667905D01*
X129417588Y-105675452D01*
X129431033Y-105678823D01*
X129444442Y-105676295D01*
X129456202Y-105669590D01*
X129463750Y-105657830D01*
X129629969Y-105222589D01*
X129631654Y-105209144D01*
X129629126Y-105196541D01*
G37*
G36*
X128989967Y-105631745D02*
G01*
X128982420Y-105619984D01*
X128798579Y-105414930D01*
X128759964Y-105356935D01*
X128744027Y-105325831D01*
X128744027Y-105300625D01*
X128755787Y-105277067D01*
X128779271Y-105266150D01*
X128844740Y-105266150D01*
X128868261Y-105277067D01*
X128879985Y-105300588D01*
X128882513Y-105326600D01*
X128890060Y-105338360D01*
X128901820Y-105345907D01*
X128915266Y-105348435D01*
X128949667Y-105345907D01*
X128960585Y-105338360D01*
X128968132Y-105326600D01*
X128970660Y-105292162D01*
X128967289Y-105277067D01*
X128946297Y-105235595D01*
X128919442Y-105206652D01*
X128910210Y-105200058D01*
X128869067Y-105179395D01*
X128853130Y-105174705D01*
X128770881Y-105174705D01*
X128754945Y-105178076D01*
X128713802Y-105199068D01*
X128683577Y-105225960D01*
X128656722Y-105277251D01*
X128653352Y-105292381D01*
X128653352Y-105333561D01*
X128656722Y-105349534D01*
X128679364Y-105394927D01*
X128720506Y-105457099D01*
X128838036Y-105587378D01*
X128667640Y-105587378D01*
X128654194Y-105590749D01*
X128642434Y-105598296D01*
X128634887Y-105609250D01*
X128632359Y-105643688D01*
X128634887Y-105657134D01*
X128642434Y-105668931D01*
X128654194Y-105676478D01*
X128667640Y-105678823D01*
X128956372Y-105678823D01*
X128969817Y-105676295D01*
X128981578Y-105668747D01*
X128989125Y-105656987D01*
X128991653Y-105644348D01*
X128989967Y-105631745D01*
G37*
G36*
X128527176Y-105558179D02*
G01*
X128515452Y-105549862D01*
X128481014Y-105547334D01*
X128467605Y-105549862D01*
X128456687Y-105558179D01*
X128435695Y-105578182D01*
X128428148Y-105589833D01*
X128425620Y-105623172D01*
X128428148Y-105637313D01*
X128435695Y-105648158D01*
X128456687Y-105668967D01*
X128467605Y-105676478D01*
X128502007Y-105679006D01*
X128515452Y-105676478D01*
X128527176Y-105668967D01*
X128547326Y-105648158D01*
X128554873Y-105637313D01*
X128558244Y-105603168D01*
X128554873Y-105589833D01*
X128547326Y-105578182D01*
X128527176Y-105558179D01*
G37*
G36*
X128184222Y-105177050D02*
G01*
X128256433Y-105203062D01*
X128305965Y-105273550D01*
X128310984Y-105286117D01*
X128331977Y-105396063D01*
X128331134Y-105507657D01*
X128310984Y-105589869D01*
X128301752Y-105606649D01*
X128259767Y-105647791D01*
X128246358Y-105656181D01*
X128184222Y-105677137D01*
X128173341Y-105678823D01*
X128141431Y-105677137D01*
X128079296Y-105656071D01*
X128065887Y-105647682D01*
X128024744Y-105606429D01*
X128016354Y-105592947D01*
X127995362Y-105530628D01*
X127993676Y-105519674D01*
X127994470Y-105504616D01*
X128085194Y-105504616D01*
X128085194Y-105513885D01*
X128095269Y-105545136D01*
X128107835Y-105564590D01*
X128127143Y-105577230D01*
X128158210Y-105587378D01*
X128167443Y-105587378D01*
X128199353Y-105577230D01*
X128217818Y-105564590D01*
X128227050Y-105550229D01*
X128239653Y-105500366D01*
X128230421Y-105472523D01*
X128217818Y-105453948D01*
X128199353Y-105441272D01*
X128167443Y-105430281D01*
X128158210Y-105430281D01*
X128127143Y-105441272D01*
X128107835Y-105453948D01*
X128095269Y-105472523D01*
X128085194Y-105504616D01*
X127994470Y-105504616D01*
X127995362Y-105487690D01*
X128016354Y-105425372D01*
X128024744Y-105411926D01*
X128065887Y-105369794D01*
X128079296Y-105361404D01*
X128141431Y-105341181D01*
X128152349Y-105339496D01*
X128184222Y-105341181D01*
X128232912Y-105357155D01*
X128222837Y-105306230D01*
X128203530Y-105277837D01*
X128167443Y-105266150D01*
X128138060Y-105266150D01*
X128107835Y-105276225D01*
X128093584Y-105298060D01*
X128082666Y-105304765D01*
X128049913Y-105307292D01*
X128035662Y-105303922D01*
X128023901Y-105296375D01*
X128016354Y-105283772D01*
X128014669Y-105269520D01*
X128018040Y-105256148D01*
X128039032Y-105215372D01*
X128047422Y-105204527D01*
X128059182Y-105197859D01*
X128132199Y-105175365D01*
X128184222Y-105177050D01*
G37*
G36*
X127877063Y-105281427D02*
G01*
X127870358Y-105269667D01*
X127859440Y-105261241D01*
X127823354Y-105242776D01*
X127765431Y-105184780D01*
X127754514Y-105177233D01*
X127740262Y-105174705D01*
X127726817Y-105177233D01*
X127715899Y-105184780D01*
X127708352Y-105196541D01*
X127704981Y-105209986D01*
X127704981Y-105643542D01*
X127708352Y-105656987D01*
X127715899Y-105668747D01*
X127726817Y-105676295D01*
X127761218Y-105678823D01*
X127774664Y-105676295D01*
X127786424Y-105668747D01*
X127793971Y-105656987D01*
X127796499Y-105643542D01*
X127796499Y-105329311D01*
X127828409Y-105344405D01*
X127841818Y-105348618D01*
X127856107Y-105346090D01*
X127867830Y-105338543D01*
X127876257Y-105326783D01*
X127878748Y-105313338D01*
X127877063Y-105281427D01*
G37*
G36*
X127504104Y-105196541D02*
G01*
X127496557Y-105184780D01*
X127485639Y-105177233D01*
X127471351Y-105174705D01*
X127437792Y-105177233D01*
X127426031Y-105184780D01*
X127418484Y-105196541D01*
X127415956Y-105209986D01*
X127415956Y-105475490D01*
X127269924Y-105330117D01*
X127258163Y-105322570D01*
X127224568Y-105320079D01*
X127210316Y-105322607D01*
X127199399Y-105330154D01*
X127191851Y-105341877D01*
X127189324Y-105355286D01*
X127191851Y-105368695D01*
X127199399Y-105380419D01*
X127311030Y-105491061D01*
X127197713Y-105620168D01*
X127191851Y-105630206D01*
X127189324Y-105646143D01*
X127192694Y-105659552D01*
X127201084Y-105670433D01*
X127210316Y-105676295D01*
X127224568Y-105678823D01*
X127265710Y-105678823D01*
X127279999Y-105676478D01*
X127292565Y-105667245D01*
X127381555Y-105563161D01*
X127415956Y-105597600D01*
X127415956Y-105644604D01*
X127418484Y-105658013D01*
X127426031Y-105669773D01*
X127437792Y-105676478D01*
X127471351Y-105679006D01*
X127485639Y-105676478D01*
X127496557Y-105668931D01*
X127504104Y-105657134D01*
X127506632Y-105643688D01*
X127506632Y-105210023D01*
X127504104Y-105196541D01*
G37*
G36*
X130603126Y-106606176D02*
G01*
X130598950Y-106593683D01*
X130589717Y-106582875D01*
X130577957Y-106577050D01*
X130567882Y-106574705D01*
X130361363Y-106574705D01*
X130347954Y-106577233D01*
X130336193Y-106584780D01*
X130328646Y-106596504D01*
X130326118Y-106630906D01*
X130328646Y-106644351D01*
X130336193Y-106655232D01*
X130347954Y-106662779D01*
X130361363Y-106666150D01*
X130516664Y-106666150D01*
X130525054Y-106724768D01*
X130505747Y-106718430D01*
X130432730Y-106720079D01*
X130370632Y-106741145D01*
X130357186Y-106749571D01*
X130316043Y-106790824D01*
X130307654Y-106804306D01*
X130286661Y-106866624D01*
X130284976Y-106919674D01*
X130307654Y-106992910D01*
X130316043Y-107006392D01*
X130357186Y-107047682D01*
X130370632Y-107056071D01*
X130443648Y-107078823D01*
X130516664Y-107077137D01*
X130578800Y-107056181D01*
X130593051Y-107047791D01*
X130619906Y-107018409D01*
X130640898Y-106976460D01*
X130644269Y-106963015D01*
X130641741Y-106948763D01*
X130635037Y-106937003D01*
X130623276Y-106928613D01*
X130609025Y-106926085D01*
X130577114Y-106927771D01*
X130563669Y-106936160D01*
X130545204Y-106968071D01*
X130531795Y-106977303D01*
X130499885Y-106987378D01*
X130449510Y-106987378D01*
X130418442Y-106977193D01*
X130399171Y-106964480D01*
X130386568Y-106944953D01*
X130376493Y-106913556D01*
X130376493Y-106883001D01*
X130386568Y-106851603D01*
X130399171Y-106832076D01*
X130418442Y-106819363D01*
X130449510Y-106809178D01*
X130518350Y-106809178D01*
X130551909Y-106825958D01*
X130567882Y-106829328D01*
X130592209Y-106829328D01*
X130605654Y-106825115D01*
X130615729Y-106815883D01*
X130622434Y-106804196D01*
X130623276Y-106790860D01*
X130603126Y-106606176D01*
G37*
G36*
X130249475Y-106596541D02*
G01*
X130241928Y-106584780D01*
X130230167Y-106577233D01*
X130196572Y-106574705D01*
X130183163Y-106577233D01*
X130171403Y-106585623D01*
X130163856Y-106597383D01*
X130052224Y-106883880D01*
X129940557Y-106597237D01*
X129933009Y-106585440D01*
X129921249Y-106577050D01*
X129886848Y-106574522D01*
X129873402Y-106577050D01*
X129863327Y-106583791D01*
X129854937Y-106595551D01*
X129851603Y-106608997D01*
X129854095Y-106622443D01*
X130019471Y-107056145D01*
X130026176Y-107067905D01*
X130037936Y-107075452D01*
X130051382Y-107078823D01*
X130064791Y-107076295D01*
X130076551Y-107069590D01*
X130084098Y-107057830D01*
X130250317Y-106622589D01*
X130252003Y-106609144D01*
X130249475Y-106596541D01*
G37*
G36*
X129549023Y-106681427D02*
G01*
X129542319Y-106669667D01*
X129531401Y-106661241D01*
X129495314Y-106642776D01*
X129437392Y-106584780D01*
X129426474Y-106577233D01*
X129412223Y-106574705D01*
X129398777Y-106577233D01*
X129387859Y-106584780D01*
X129380312Y-106596541D01*
X129376942Y-106609986D01*
X129376942Y-107043542D01*
X129380312Y-107056987D01*
X129387859Y-107068747D01*
X129398777Y-107076295D01*
X129433179Y-107078823D01*
X129446624Y-107076295D01*
X129458384Y-107068747D01*
X129465932Y-107056987D01*
X129468460Y-107043542D01*
X129468460Y-106729311D01*
X129500370Y-106744405D01*
X129513779Y-106748618D01*
X129528067Y-106746090D01*
X129539791Y-106738543D01*
X129548217Y-106726783D01*
X129550708Y-106713338D01*
X129549023Y-106681427D01*
G37*
G36*
X129147524Y-106958179D02*
G01*
X129135801Y-106949862D01*
X129101363Y-106947334D01*
X129087954Y-106949862D01*
X129077036Y-106958179D01*
X129056043Y-106978182D01*
X129048496Y-106989833D01*
X129045968Y-107023172D01*
X129048496Y-107037313D01*
X129056043Y-107048158D01*
X129077036Y-107068967D01*
X129087954Y-107076478D01*
X129122355Y-107079006D01*
X129135801Y-107076478D01*
X129147524Y-107068967D01*
X129167674Y-107048158D01*
X129175222Y-107037313D01*
X129178592Y-107003168D01*
X129175222Y-106989833D01*
X129167674Y-106978182D01*
X129147524Y-106958179D01*
G37*
G36*
X128931333Y-106606176D02*
G01*
X128927156Y-106593683D01*
X128917924Y-106582875D01*
X128906164Y-106577050D01*
X128896089Y-106574705D01*
X128689569Y-106574705D01*
X128676160Y-106577233D01*
X128664400Y-106584780D01*
X128656853Y-106596504D01*
X128654325Y-106630906D01*
X128656853Y-106644351D01*
X128664400Y-106655232D01*
X128676160Y-106662779D01*
X128689569Y-106666150D01*
X128844871Y-106666150D01*
X128853261Y-106724768D01*
X128833953Y-106718430D01*
X128760937Y-106720079D01*
X128698838Y-106741145D01*
X128685393Y-106749571D01*
X128644250Y-106790824D01*
X128635860Y-106804306D01*
X128614867Y-106866624D01*
X128613182Y-106919674D01*
X128635860Y-106992910D01*
X128644250Y-107006392D01*
X128685393Y-107047682D01*
X128698838Y-107056071D01*
X128771854Y-107078823D01*
X128844871Y-107077137D01*
X128907006Y-107056181D01*
X128921258Y-107047791D01*
X128948112Y-107018409D01*
X128969105Y-106976460D01*
X128972476Y-106963015D01*
X128969948Y-106948763D01*
X128963243Y-106937003D01*
X128951483Y-106928613D01*
X128937231Y-106926085D01*
X128905321Y-106927771D01*
X128891875Y-106936160D01*
X128873411Y-106968071D01*
X128860002Y-106977303D01*
X128828091Y-106987378D01*
X128777716Y-106987378D01*
X128746649Y-106977193D01*
X128727378Y-106964480D01*
X128714775Y-106944953D01*
X128704700Y-106913556D01*
X128704700Y-106883001D01*
X128714775Y-106851603D01*
X128727378Y-106832076D01*
X128746649Y-106819363D01*
X128777716Y-106809178D01*
X128846556Y-106809178D01*
X128880115Y-106825958D01*
X128896089Y-106829328D01*
X128920415Y-106829328D01*
X128933861Y-106825115D01*
X128943936Y-106815883D01*
X128950640Y-106804196D01*
X128951483Y-106790860D01*
X128931333Y-106606176D01*
G37*
G36*
X128426593Y-106575548D02*
G01*
X128493747Y-106597347D01*
X128505471Y-106604088D01*
X128513861Y-106614969D01*
X128534853Y-106656111D01*
X128538224Y-106672048D01*
X128538224Y-106713154D01*
X128534853Y-106729091D01*
X128513861Y-106770197D01*
X128491219Y-106795366D01*
X128528149Y-106832296D01*
X128555846Y-106882634D01*
X128559217Y-106898608D01*
X128559217Y-106960670D01*
X128555846Y-106975801D01*
X128534890Y-107017750D01*
X128507999Y-107047095D01*
X128493747Y-107055485D01*
X128420694Y-107078163D01*
X128327528Y-107076478D01*
X128265393Y-107055485D01*
X128251141Y-107047095D01*
X128224250Y-107017750D01*
X128203294Y-106975801D01*
X128199923Y-106960670D01*
X128199923Y-106907620D01*
X128291441Y-106907620D01*
X128291441Y-106952940D01*
X128298988Y-106968071D01*
X128312434Y-106977303D01*
X128344307Y-106987378D01*
X128414833Y-106987378D01*
X128446706Y-106977303D01*
X128460152Y-106968071D01*
X128467699Y-106952940D01*
X128467699Y-106907620D01*
X128453447Y-106879081D01*
X128440844Y-106866478D01*
X128408091Y-106849698D01*
X128379552Y-106842994D01*
X128351048Y-106849698D01*
X128318296Y-106866478D01*
X128305693Y-106879081D01*
X128291441Y-106907620D01*
X128199923Y-106907620D01*
X128199923Y-106898608D01*
X128203294Y-106882634D01*
X128230991Y-106832296D01*
X128267920Y-106795366D01*
X128245279Y-106770197D01*
X128224286Y-106729091D01*
X128220916Y-106713154D01*
X128220916Y-106680438D01*
X128311591Y-106680438D01*
X128311591Y-106704765D01*
X128323351Y-106728285D01*
X128351048Y-106741694D01*
X128379588Y-106749241D01*
X128408128Y-106741694D01*
X128435825Y-106728285D01*
X128447585Y-106704765D01*
X128447585Y-106680438D01*
X128445058Y-106676225D01*
X128414833Y-106666150D01*
X128344307Y-106666150D01*
X128314119Y-106676225D01*
X128311591Y-106680438D01*
X128220916Y-106680438D01*
X128220916Y-106672048D01*
X128224286Y-106656111D01*
X128245279Y-106614969D01*
X128253669Y-106604088D01*
X128265393Y-106597347D01*
X128338446Y-106574705D01*
X128426593Y-106575548D01*
G37*
G36*
X128123280Y-106596541D02*
G01*
X128115733Y-106584780D01*
X128104815Y-106577233D01*
X128090527Y-106574705D01*
X128056968Y-106577233D01*
X128045208Y-106584780D01*
X128037660Y-106596541D01*
X128035133Y-106609986D01*
X128035133Y-106875490D01*
X127889100Y-106730117D01*
X127877339Y-106722570D01*
X127843744Y-106720079D01*
X127829492Y-106722607D01*
X127818575Y-106730154D01*
X127811028Y-106741877D01*
X127808500Y-106755286D01*
X127811028Y-106768695D01*
X127818575Y-106780419D01*
X127930206Y-106891061D01*
X127816889Y-107020168D01*
X127811028Y-107030206D01*
X127808500Y-107046143D01*
X127811870Y-107059552D01*
X127820260Y-107070433D01*
X127829492Y-107076295D01*
X127843744Y-107078823D01*
X127884887Y-107078823D01*
X127899175Y-107076478D01*
X127911741Y-107067245D01*
X128000731Y-106963161D01*
X128035133Y-106997600D01*
X128035133Y-107044604D01*
X128037660Y-107058013D01*
X128045208Y-107069773D01*
X128056968Y-107076478D01*
X128090527Y-107079006D01*
X128104815Y-107076478D01*
X128115733Y-107068931D01*
X128123280Y-107057134D01*
X128125808Y-107043688D01*
X128125808Y-106610023D01*
X128123280Y-106596541D01*
G37*
G36*
X130594717Y-102881427D02*
G01*
X130588013Y-102869667D01*
X130577095Y-102861241D01*
X130541008Y-102842776D01*
X130483086Y-102784780D01*
X130472168Y-102777233D01*
X130457917Y-102774705D01*
X130444471Y-102777233D01*
X130433553Y-102784780D01*
X130426006Y-102796541D01*
X130422636Y-102809986D01*
X130422636Y-103243542D01*
X130426006Y-103256987D01*
X130433553Y-103268747D01*
X130444471Y-103276295D01*
X130478873Y-103278823D01*
X130492318Y-103276295D01*
X130504078Y-103268747D01*
X130511626Y-103256987D01*
X130514153Y-103243542D01*
X130514153Y-102929311D01*
X130546064Y-102944405D01*
X130559473Y-102948618D01*
X130573761Y-102946090D01*
X130585485Y-102938543D01*
X130593911Y-102926783D01*
X130596402Y-102913338D01*
X130594717Y-102881427D01*
G37*
G36*
X130193218Y-103158179D02*
G01*
X130181495Y-103149862D01*
X130147056Y-103147334D01*
X130133648Y-103149862D01*
X130122730Y-103158179D01*
X130101737Y-103178182D01*
X130094190Y-103189833D01*
X130091662Y-103223172D01*
X130094190Y-103237313D01*
X130101737Y-103248158D01*
X130122730Y-103268967D01*
X130133648Y-103276478D01*
X130168049Y-103279006D01*
X130181495Y-103276478D01*
X130193218Y-103268967D01*
X130213368Y-103248158D01*
X130220916Y-103237313D01*
X130224286Y-103203168D01*
X130220916Y-103189833D01*
X130213368Y-103178182D01*
X130193218Y-103158179D01*
G37*
G36*
X129977027Y-102806176D02*
G01*
X129972850Y-102793683D01*
X129963618Y-102782875D01*
X129951858Y-102777050D01*
X129941783Y-102774705D01*
X129735263Y-102774705D01*
X129721854Y-102777233D01*
X129710094Y-102784780D01*
X129702547Y-102796504D01*
X129700019Y-102830906D01*
X129702547Y-102844351D01*
X129710094Y-102855232D01*
X129721854Y-102862779D01*
X129735263Y-102866150D01*
X129890565Y-102866150D01*
X129898955Y-102924768D01*
X129879647Y-102918430D01*
X129806631Y-102920079D01*
X129744532Y-102941145D01*
X129731086Y-102949571D01*
X129689944Y-102990824D01*
X129681554Y-103004306D01*
X129660561Y-103066624D01*
X129658876Y-103119674D01*
X129681554Y-103192910D01*
X129689944Y-103206392D01*
X129731086Y-103247682D01*
X129744532Y-103256071D01*
X129817548Y-103278823D01*
X129890565Y-103277137D01*
X129952700Y-103256181D01*
X129966952Y-103247791D01*
X129993806Y-103218409D01*
X130014799Y-103176460D01*
X130018170Y-103163015D01*
X130015642Y-103148763D01*
X130008937Y-103137003D01*
X129997177Y-103128613D01*
X129982925Y-103126085D01*
X129951015Y-103127771D01*
X129937569Y-103136160D01*
X129919105Y-103168071D01*
X129905696Y-103177303D01*
X129873785Y-103187378D01*
X129823410Y-103187378D01*
X129792343Y-103177193D01*
X129773072Y-103164480D01*
X129760469Y-103144953D01*
X129750394Y-103113556D01*
X129750394Y-103083001D01*
X129760469Y-103051603D01*
X129773072Y-103032076D01*
X129792343Y-103019363D01*
X129823410Y-103009178D01*
X129892250Y-103009178D01*
X129925809Y-103025958D01*
X129941783Y-103029328D01*
X129966109Y-103029328D01*
X129979555Y-103025115D01*
X129989630Y-103015883D01*
X129996334Y-103004196D01*
X129997177Y-102990860D01*
X129977027Y-102806176D01*
G37*
G36*
X129623375Y-102796541D02*
G01*
X129615828Y-102784780D01*
X129604068Y-102777233D01*
X129570472Y-102774705D01*
X129557063Y-102777233D01*
X129545303Y-102785623D01*
X129537756Y-102797383D01*
X129426125Y-103083880D01*
X129314457Y-102797237D01*
X129306910Y-102785440D01*
X129295150Y-102777050D01*
X129260748Y-102774522D01*
X129247302Y-102777050D01*
X129237227Y-102783791D01*
X129228838Y-102795551D01*
X129225504Y-102808997D01*
X129227995Y-102822443D01*
X129393372Y-103256145D01*
X129400076Y-103267905D01*
X129411837Y-103275452D01*
X129425282Y-103278823D01*
X129438691Y-103276295D01*
X129450451Y-103269590D01*
X129457999Y-103257830D01*
X129624218Y-102822589D01*
X129625903Y-102809144D01*
X129623375Y-102796541D01*
G37*
G36*
X128983374Y-102796394D02*
G01*
X128975827Y-102784597D01*
X128964066Y-102777050D01*
X128950657Y-102774705D01*
X128661889Y-102774705D01*
X128648443Y-102777233D01*
X128636683Y-102785623D01*
X128629136Y-102797383D01*
X128626608Y-102811671D01*
X128629979Y-102825117D01*
X128836462Y-103258672D01*
X128844888Y-103269590D01*
X128856612Y-103277137D01*
X128888522Y-103278823D01*
X128902810Y-103276295D01*
X128914534Y-103267905D01*
X128922118Y-103256145D01*
X128923766Y-103241856D01*
X128920432Y-103228411D01*
X128748351Y-102866150D01*
X128950657Y-102866150D01*
X128964066Y-102862779D01*
X128975827Y-102855232D01*
X128983374Y-102844278D01*
X128985902Y-102809840D01*
X128983374Y-102796394D01*
G37*
G36*
X128520839Y-103158179D02*
G01*
X128509115Y-103149862D01*
X128474677Y-103147334D01*
X128461268Y-103149862D01*
X128450350Y-103158179D01*
X128429358Y-103178182D01*
X128421810Y-103189833D01*
X128419283Y-103223172D01*
X128421810Y-103237313D01*
X128429358Y-103248158D01*
X128450350Y-103268967D01*
X128461268Y-103276478D01*
X128495670Y-103279006D01*
X128509115Y-103276478D01*
X128520839Y-103268967D01*
X128540989Y-103248158D01*
X128548536Y-103237313D01*
X128551906Y-103203168D01*
X128548536Y-103189833D01*
X128540989Y-103178182D01*
X128520839Y-103158179D01*
G37*
G36*
X128304647Y-102806176D02*
G01*
X128300471Y-102793683D01*
X128291238Y-102782875D01*
X128279478Y-102777050D01*
X128269403Y-102774705D01*
X128062883Y-102774705D01*
X128049474Y-102777233D01*
X128037714Y-102784780D01*
X128030167Y-102796504D01*
X128027639Y-102830906D01*
X128030167Y-102844351D01*
X128037714Y-102855232D01*
X128049474Y-102862779D01*
X128062883Y-102866150D01*
X128218185Y-102866150D01*
X128226575Y-102924768D01*
X128207268Y-102918430D01*
X128134251Y-102920079D01*
X128072152Y-102941145D01*
X128058707Y-102949571D01*
X128017564Y-102990824D01*
X128009174Y-103004306D01*
X127988182Y-103066624D01*
X127986496Y-103119674D01*
X128009174Y-103192910D01*
X128017564Y-103206392D01*
X128058707Y-103247682D01*
X128072152Y-103256071D01*
X128145169Y-103278823D01*
X128218185Y-103277137D01*
X128280321Y-103256181D01*
X128294572Y-103247791D01*
X128321427Y-103218409D01*
X128342419Y-103176460D01*
X128345790Y-103163015D01*
X128343262Y-103148763D01*
X128336558Y-103137003D01*
X128324797Y-103128613D01*
X128310546Y-103126085D01*
X128278635Y-103127771D01*
X128265190Y-103136160D01*
X128246725Y-103168071D01*
X128233316Y-103177303D01*
X128201406Y-103187378D01*
X128151031Y-103187378D01*
X128119963Y-103177193D01*
X128100692Y-103164480D01*
X128088089Y-103144953D01*
X128078014Y-103113556D01*
X128078014Y-103083001D01*
X128088089Y-103051603D01*
X128100692Y-103032076D01*
X128119963Y-103019363D01*
X128151031Y-103009178D01*
X128219871Y-103009178D01*
X128253429Y-103025958D01*
X128269403Y-103029328D01*
X128293730Y-103029328D01*
X128307175Y-103025115D01*
X128317250Y-103015883D01*
X128323955Y-103004196D01*
X128324797Y-102990860D01*
X128304647Y-102806176D01*
G37*
G36*
X127909853Y-102796541D02*
G01*
X127902306Y-102784780D01*
X127891388Y-102777233D01*
X127877100Y-102774705D01*
X127843541Y-102777233D01*
X127831781Y-102784780D01*
X127824234Y-102796541D01*
X127821706Y-102809986D01*
X127821706Y-103075490D01*
X127675673Y-102930117D01*
X127663913Y-102922570D01*
X127630317Y-102920079D01*
X127616066Y-102922607D01*
X127605148Y-102930154D01*
X127597601Y-102941877D01*
X127595073Y-102955286D01*
X127597601Y-102968695D01*
X127605148Y-102980419D01*
X127716779Y-103091061D01*
X127603463Y-103220168D01*
X127597601Y-103230206D01*
X127595073Y-103246143D01*
X127598443Y-103259552D01*
X127606833Y-103270433D01*
X127616066Y-103276295D01*
X127630317Y-103278823D01*
X127671460Y-103278823D01*
X127685748Y-103276478D01*
X127698314Y-103267245D01*
X127787304Y-103163161D01*
X127821706Y-103197600D01*
X127821706Y-103244604D01*
X127824234Y-103258013D01*
X127831781Y-103269773D01*
X127843541Y-103276478D01*
X127877100Y-103279006D01*
X127891388Y-103276478D01*
X127902306Y-103268931D01*
X127909853Y-103257134D01*
X127912381Y-103243688D01*
X127912381Y-102810023D01*
X127909853Y-102796541D01*
G37*
G36*
X130551528Y-101321427D02*
G01*
X130544824Y-101309667D01*
X130533906Y-101301241D01*
X130497819Y-101282776D01*
X130439897Y-101224780D01*
X130428979Y-101217233D01*
X130414728Y-101214705D01*
X130401282Y-101217233D01*
X130390364Y-101224780D01*
X130382817Y-101236541D01*
X130379447Y-101249986D01*
X130379447Y-101683542D01*
X130382817Y-101696987D01*
X130390364Y-101708747D01*
X130401282Y-101716295D01*
X130435684Y-101718823D01*
X130449129Y-101716295D01*
X130460889Y-101708747D01*
X130468437Y-101696987D01*
X130470964Y-101683542D01*
X130470964Y-101369311D01*
X130502875Y-101384405D01*
X130516284Y-101388618D01*
X130530572Y-101386090D01*
X130542296Y-101378543D01*
X130550722Y-101366783D01*
X130553213Y-101353338D01*
X130551528Y-101321427D01*
G37*
G36*
X130219712Y-101236541D02*
G01*
X130212165Y-101224780D01*
X130200404Y-101217233D01*
X130166809Y-101214705D01*
X130153400Y-101217233D01*
X130141640Y-101225623D01*
X130134093Y-101237383D01*
X130022461Y-101523880D01*
X129910794Y-101237237D01*
X129903246Y-101225440D01*
X129891486Y-101217050D01*
X129857085Y-101214522D01*
X129843639Y-101217050D01*
X129833564Y-101223791D01*
X129825174Y-101235551D01*
X129821840Y-101248997D01*
X129824332Y-101262443D01*
X129989708Y-101696145D01*
X129996413Y-101707905D01*
X130008173Y-101715452D01*
X130021619Y-101718823D01*
X130035028Y-101716295D01*
X130046788Y-101709590D01*
X130054335Y-101697830D01*
X130220554Y-101262589D01*
X130222240Y-101249144D01*
X130219712Y-101236541D01*
G37*
G36*
X129519260Y-101321427D02*
G01*
X129512556Y-101309667D01*
X129501638Y-101301241D01*
X129465551Y-101282776D01*
X129407629Y-101224780D01*
X129396711Y-101217233D01*
X129382460Y-101214705D01*
X129369014Y-101217233D01*
X129358096Y-101224780D01*
X129350549Y-101236541D01*
X129347179Y-101249986D01*
X129347179Y-101683542D01*
X129350549Y-101696987D01*
X129358096Y-101708747D01*
X129369014Y-101716295D01*
X129403416Y-101718823D01*
X129416861Y-101716295D01*
X129428621Y-101708747D01*
X129436169Y-101696987D01*
X129438697Y-101683542D01*
X129438697Y-101369311D01*
X129470607Y-101384405D01*
X129484016Y-101388618D01*
X129498304Y-101386090D01*
X129510028Y-101378543D01*
X129518454Y-101366783D01*
X129520945Y-101353338D01*
X129519260Y-101321427D01*
G37*
G36*
X129036355Y-101215548D02*
G01*
X129103510Y-101237347D01*
X129115233Y-101244088D01*
X129123623Y-101254969D01*
X129144616Y-101296111D01*
X129147986Y-101312048D01*
X129147986Y-101353154D01*
X129144616Y-101369091D01*
X129123623Y-101410197D01*
X129100982Y-101435366D01*
X129137911Y-101472296D01*
X129165609Y-101522634D01*
X129168979Y-101538608D01*
X129168979Y-101600670D01*
X129165609Y-101615801D01*
X129144653Y-101657750D01*
X129117761Y-101687095D01*
X129103510Y-101695485D01*
X129030457Y-101718163D01*
X128937290Y-101716478D01*
X128875155Y-101695485D01*
X128860903Y-101687095D01*
X128834012Y-101657750D01*
X128813056Y-101615801D01*
X128809686Y-101600670D01*
X128809686Y-101547620D01*
X128901203Y-101547620D01*
X128901203Y-101592940D01*
X128908751Y-101608071D01*
X128922196Y-101617303D01*
X128954070Y-101627378D01*
X129024595Y-101627378D01*
X129056469Y-101617303D01*
X129069914Y-101608071D01*
X129077461Y-101592940D01*
X129077461Y-101547620D01*
X129063210Y-101519081D01*
X129050607Y-101506478D01*
X129017854Y-101489698D01*
X128989314Y-101482994D01*
X128960811Y-101489698D01*
X128928058Y-101506478D01*
X128915455Y-101519081D01*
X128901203Y-101547620D01*
X128809686Y-101547620D01*
X128809686Y-101538608D01*
X128813056Y-101522634D01*
X128840753Y-101472296D01*
X128877683Y-101435366D01*
X128855042Y-101410197D01*
X128834049Y-101369091D01*
X128830678Y-101353154D01*
X128830678Y-101320438D01*
X128921354Y-101320438D01*
X128921354Y-101344765D01*
X128933114Y-101368285D01*
X128960811Y-101381694D01*
X128989351Y-101389241D01*
X129017891Y-101381694D01*
X129045588Y-101368285D01*
X129057348Y-101344765D01*
X129057348Y-101320438D01*
X129054820Y-101316225D01*
X129024595Y-101306150D01*
X128954070Y-101306150D01*
X128923881Y-101316225D01*
X128921354Y-101320438D01*
X128830678Y-101320438D01*
X128830678Y-101312048D01*
X128834049Y-101296111D01*
X128855042Y-101254969D01*
X128863431Y-101244088D01*
X128875155Y-101237347D01*
X128948208Y-101214705D01*
X129036355Y-101215548D01*
G37*
G36*
X128733042Y-101236541D02*
G01*
X128725495Y-101224780D01*
X128714578Y-101217233D01*
X128700289Y-101214705D01*
X128666730Y-101217233D01*
X128654970Y-101224780D01*
X128647423Y-101236541D01*
X128644895Y-101249986D01*
X128644895Y-101515490D01*
X128498862Y-101370117D01*
X128487102Y-101362570D01*
X128453506Y-101360079D01*
X128439255Y-101362607D01*
X128428337Y-101370154D01*
X128420790Y-101381877D01*
X128418262Y-101395286D01*
X128420790Y-101408695D01*
X128428337Y-101420419D01*
X128539968Y-101531061D01*
X128426652Y-101660168D01*
X128420790Y-101670206D01*
X128418262Y-101686143D01*
X128421633Y-101699552D01*
X128430022Y-101710433D01*
X128439255Y-101716295D01*
X128453506Y-101718823D01*
X128494649Y-101718823D01*
X128508937Y-101716478D01*
X128521504Y-101707245D01*
X128610493Y-101603161D01*
X128644895Y-101637600D01*
X128644895Y-101684604D01*
X128647423Y-101698013D01*
X128654970Y-101709773D01*
X128666730Y-101716478D01*
X128700289Y-101719006D01*
X128714578Y-101716478D01*
X128725495Y-101708931D01*
X128733042Y-101697134D01*
X128735570Y-101683688D01*
X128735570Y-101250023D01*
X128733042Y-101236541D01*
G37*
G36*
X130565260Y-106268071D02*
G01*
X130551851Y-106277303D01*
X130519941Y-106287378D01*
X130469566Y-106287378D01*
X130438498Y-106277303D01*
X130419227Y-106264663D01*
X130406624Y-106245319D01*
X130396549Y-106214215D01*
X130396549Y-106204983D01*
X130406624Y-106172999D01*
X130419227Y-106154498D01*
X130438498Y-106141895D01*
X130469566Y-106130977D01*
X130535035Y-106130134D01*
X130547638Y-106123393D01*
X130556870Y-106113318D01*
X130561084Y-106095660D01*
X130558556Y-106082177D01*
X130553500Y-106073788D01*
X130469566Y-105966150D01*
X130587938Y-105966150D01*
X130601347Y-105962779D01*
X130613107Y-105955232D01*
X130620654Y-105944278D01*
X130623182Y-105930832D01*
X130620654Y-105896394D01*
X130613107Y-105884597D01*
X130601347Y-105877050D01*
X130587938Y-105874705D01*
X130361268Y-105874705D01*
X130347860Y-105877233D01*
X130336942Y-105883938D01*
X130329395Y-105894855D01*
X130326024Y-105907458D01*
X130326867Y-105920061D01*
X130332729Y-105931821D01*
X130425932Y-106051146D01*
X130390688Y-106062064D01*
X130377242Y-106070454D01*
X130336099Y-106112476D01*
X130327710Y-106125921D01*
X130306717Y-106188093D01*
X130305032Y-106220040D01*
X130327710Y-106293130D01*
X130336099Y-106306575D01*
X130377242Y-106347718D01*
X130390688Y-106356145D01*
X130463704Y-106378823D01*
X130536720Y-106377137D01*
X130598856Y-106356181D01*
X130613107Y-106347791D01*
X130639962Y-106318409D01*
X130660954Y-106276460D01*
X130664325Y-106263015D01*
X130661797Y-106248763D01*
X130655093Y-106237003D01*
X130643332Y-106228613D01*
X130629081Y-106226085D01*
X130597170Y-106227771D01*
X130585410Y-106234475D01*
X130580391Y-106241179D01*
X130565260Y-106268071D01*
G37*
G36*
X130199848Y-106258179D02*
G01*
X130188125Y-106249862D01*
X130153686Y-106247334D01*
X130140278Y-106249862D01*
X130129360Y-106258179D01*
X130108367Y-106278182D01*
X130100820Y-106289833D01*
X130098292Y-106323172D01*
X130100820Y-106337313D01*
X130108367Y-106348158D01*
X130129360Y-106368967D01*
X130140278Y-106376478D01*
X130174679Y-106379006D01*
X130188125Y-106376478D01*
X130199848Y-106368967D01*
X130219998Y-106348158D01*
X130227546Y-106337313D01*
X130230916Y-106303168D01*
X130227546Y-106289833D01*
X130219998Y-106278182D01*
X130199848Y-106258179D01*
G37*
G36*
X129983657Y-105906176D02*
G01*
X129979480Y-105893683D01*
X129970248Y-105882875D01*
X129958488Y-105877050D01*
X129948413Y-105874705D01*
X129741893Y-105874705D01*
X129728484Y-105877233D01*
X129716724Y-105884780D01*
X129709177Y-105896504D01*
X129706649Y-105930906D01*
X129709177Y-105944351D01*
X129716724Y-105955232D01*
X129728484Y-105962779D01*
X129741893Y-105966150D01*
X129897195Y-105966150D01*
X129905585Y-106024768D01*
X129886277Y-106018430D01*
X129813261Y-106020079D01*
X129751162Y-106041145D01*
X129737716Y-106049571D01*
X129696574Y-106090824D01*
X129688184Y-106104306D01*
X129667191Y-106166624D01*
X129665506Y-106219674D01*
X129688184Y-106292910D01*
X129696574Y-106306392D01*
X129737716Y-106347682D01*
X129751162Y-106356071D01*
X129824178Y-106378823D01*
X129897195Y-106377137D01*
X129959330Y-106356181D01*
X129973582Y-106347791D01*
X130000436Y-106318409D01*
X130021429Y-106276460D01*
X130024800Y-106263015D01*
X130022272Y-106248763D01*
X130015567Y-106237003D01*
X130003807Y-106228613D01*
X129989555Y-106226085D01*
X129957645Y-106227771D01*
X129944199Y-106236160D01*
X129925735Y-106268071D01*
X129912326Y-106277303D01*
X129880415Y-106287378D01*
X129830040Y-106287378D01*
X129798973Y-106277193D01*
X129779702Y-106264480D01*
X129767099Y-106244953D01*
X129757024Y-106213556D01*
X129757024Y-106183001D01*
X129767099Y-106151603D01*
X129779702Y-106132076D01*
X129798973Y-106119363D01*
X129830040Y-106109178D01*
X129898880Y-106109178D01*
X129932439Y-106125958D01*
X129948413Y-106129328D01*
X129972739Y-106129328D01*
X129986185Y-106125115D01*
X129996260Y-106115883D01*
X130002964Y-106104196D01*
X130003807Y-106090860D01*
X129983657Y-105906176D01*
G37*
G36*
X129630005Y-105896541D02*
G01*
X129622458Y-105884780D01*
X129610698Y-105877233D01*
X129577102Y-105874705D01*
X129563693Y-105877233D01*
X129551933Y-105885623D01*
X129544386Y-105897383D01*
X129432755Y-106183880D01*
X129321087Y-105897237D01*
X129313540Y-105885440D01*
X129301780Y-105877050D01*
X129267378Y-105874522D01*
X129253932Y-105877050D01*
X129243857Y-105883791D01*
X129235468Y-105895551D01*
X129232134Y-105908997D01*
X129234625Y-105922443D01*
X129400002Y-106356145D01*
X129406706Y-106367905D01*
X129418467Y-106375452D01*
X129431912Y-106378823D01*
X129445321Y-106376295D01*
X129457081Y-106369590D01*
X129464629Y-106357830D01*
X129630848Y-105922589D01*
X129632533Y-105909144D01*
X129630005Y-105896541D01*
G37*
G36*
X128990846Y-106331745D02*
G01*
X128983299Y-106319984D01*
X128799458Y-106114930D01*
X128760843Y-106056935D01*
X128744906Y-106025831D01*
X128744906Y-106000625D01*
X128756666Y-105977067D01*
X128780150Y-105966150D01*
X128845619Y-105966150D01*
X128869140Y-105977067D01*
X128880864Y-106000588D01*
X128883392Y-106026600D01*
X128890939Y-106038360D01*
X128902699Y-106045907D01*
X128916145Y-106048435D01*
X128950546Y-106045907D01*
X128961464Y-106038360D01*
X128969011Y-106026600D01*
X128971539Y-105992162D01*
X128968168Y-105977067D01*
X128947176Y-105935595D01*
X128920321Y-105906652D01*
X128911089Y-105900058D01*
X128869946Y-105879395D01*
X128854009Y-105874705D01*
X128771760Y-105874705D01*
X128755824Y-105878076D01*
X128714681Y-105899068D01*
X128684456Y-105925960D01*
X128657601Y-105977251D01*
X128654231Y-105992381D01*
X128654231Y-106033561D01*
X128657601Y-106049534D01*
X128680243Y-106094927D01*
X128721385Y-106157099D01*
X128838915Y-106287378D01*
X128668519Y-106287378D01*
X128655073Y-106290749D01*
X128643313Y-106298296D01*
X128635766Y-106309250D01*
X128633238Y-106343688D01*
X128635766Y-106357134D01*
X128643313Y-106368931D01*
X128655073Y-106376478D01*
X128668519Y-106378823D01*
X128957251Y-106378823D01*
X128970696Y-106376295D01*
X128982457Y-106368747D01*
X128990004Y-106356987D01*
X128992532Y-106344348D01*
X128990846Y-106331745D01*
G37*
G36*
X128528055Y-106258179D02*
G01*
X128516331Y-106249862D01*
X128481893Y-106247334D01*
X128468484Y-106249862D01*
X128457566Y-106258179D01*
X128436574Y-106278182D01*
X128429027Y-106289833D01*
X128426499Y-106323172D01*
X128429027Y-106337313D01*
X128436574Y-106348158D01*
X128457566Y-106368967D01*
X128468484Y-106376478D01*
X128502886Y-106379006D01*
X128516331Y-106376478D01*
X128528055Y-106368967D01*
X128548205Y-106348158D01*
X128555752Y-106337313D01*
X128559123Y-106303168D01*
X128555752Y-106289833D01*
X128548205Y-106278182D01*
X128528055Y-106258179D01*
G37*
G36*
X128110400Y-105882069D02*
G01*
X128119632Y-105891302D01*
X128347108Y-106220370D01*
X128352163Y-106232094D01*
X128353006Y-106244660D01*
X128348793Y-106257226D01*
X128341246Y-106267265D01*
X128330328Y-106273126D01*
X128317762Y-106275654D01*
X128146487Y-106275654D01*
X128146487Y-106343578D01*
X128143959Y-106357024D01*
X128136412Y-106368747D01*
X128124651Y-106376295D01*
X128111242Y-106378823D01*
X128077683Y-106376295D01*
X128065923Y-106368747D01*
X128058376Y-106357024D01*
X128055848Y-106343578D01*
X128055848Y-106275654D01*
X128008001Y-106275654D01*
X127994555Y-106273126D01*
X127983674Y-106265506D01*
X127976091Y-106253636D01*
X127972757Y-106219784D01*
X127976091Y-106205386D01*
X127983674Y-106194358D01*
X127994555Y-106186738D01*
X128008001Y-106184210D01*
X128055848Y-106184210D01*
X128146487Y-106184210D01*
X128215326Y-106184210D01*
X128146487Y-106085621D01*
X128146487Y-106184210D01*
X128055848Y-106184210D01*
X128055848Y-105910975D01*
X128058376Y-105897603D01*
X128070942Y-105881739D01*
X128083545Y-105877050D01*
X128096954Y-105877050D01*
X128110400Y-105882069D01*
G37*
G36*
X127791406Y-105876391D02*
G01*
X127853542Y-105897456D01*
X127866951Y-105905846D01*
X127908093Y-105947099D01*
X127916483Y-105960581D01*
X127937476Y-106022900D01*
X127939161Y-106033854D01*
X127937476Y-106065838D01*
X127916483Y-106128156D01*
X127908093Y-106141602D01*
X127866951Y-106183734D01*
X127853542Y-106192123D01*
X127791406Y-106212347D01*
X127780489Y-106213995D01*
X127748615Y-106212347D01*
X127699925Y-106196373D01*
X127710000Y-106247371D01*
X127729308Y-106275691D01*
X127765394Y-106287378D01*
X127794777Y-106287378D01*
X127825002Y-106277303D01*
X127839253Y-106255468D01*
X127850171Y-106248763D01*
X127882924Y-106246235D01*
X127897176Y-106249606D01*
X127908936Y-106257153D01*
X127916483Y-106269719D01*
X127918168Y-106284007D01*
X127914798Y-106297380D01*
X127893842Y-106338156D01*
X127885415Y-106349000D01*
X127873692Y-106355668D01*
X127800639Y-106378163D01*
X127748615Y-106376478D01*
X127676405Y-106350466D01*
X127626909Y-106279977D01*
X127621853Y-106267411D01*
X127600860Y-106157465D01*
X127601648Y-106053161D01*
X127693221Y-106053161D01*
X127702453Y-106081005D01*
X127715019Y-106099580D01*
X127733484Y-106112256D01*
X127765394Y-106123247D01*
X127774627Y-106123247D01*
X127805695Y-106112256D01*
X127825002Y-106099580D01*
X127837568Y-106081005D01*
X127847643Y-106048911D01*
X127847643Y-106039642D01*
X127837568Y-106008392D01*
X127825002Y-105988938D01*
X127805695Y-105976298D01*
X127774627Y-105966150D01*
X127765394Y-105966150D01*
X127733484Y-105976298D01*
X127715019Y-105988938D01*
X127705787Y-106003299D01*
X127693221Y-106053161D01*
X127601648Y-106053161D01*
X127601703Y-106045871D01*
X127621853Y-105963659D01*
X127631085Y-105946879D01*
X127673071Y-105905736D01*
X127686480Y-105897347D01*
X127748615Y-105876391D01*
X127759533Y-105874705D01*
X127791406Y-105876391D01*
G37*
G36*
X127503224Y-105896541D02*
G01*
X127495677Y-105884780D01*
X127484759Y-105877233D01*
X127470471Y-105874705D01*
X127436912Y-105877233D01*
X127425152Y-105884780D01*
X127417605Y-105896541D01*
X127415077Y-105909986D01*
X127415077Y-106175490D01*
X127269044Y-106030117D01*
X127257284Y-106022570D01*
X127223688Y-106020079D01*
X127209437Y-106022607D01*
X127198519Y-106030154D01*
X127190972Y-106041877D01*
X127188444Y-106055286D01*
X127190972Y-106068695D01*
X127198519Y-106080419D01*
X127310150Y-106191061D01*
X127196834Y-106320168D01*
X127190972Y-106330206D01*
X127188444Y-106346143D01*
X127191815Y-106359552D01*
X127200204Y-106370433D01*
X127209437Y-106376295D01*
X127223688Y-106378823D01*
X127264831Y-106378823D01*
X127279119Y-106376478D01*
X127291685Y-106367245D01*
X127380675Y-106263161D01*
X127415077Y-106297600D01*
X127415077Y-106344604D01*
X127417605Y-106358013D01*
X127425152Y-106369773D01*
X127436912Y-106376478D01*
X127470471Y-106379006D01*
X127484759Y-106376478D01*
X127495677Y-106368931D01*
X127503224Y-106357134D01*
X127505752Y-106343688D01*
X127505752Y-105910023D01*
X127503224Y-105896541D01*
G37*
G36*
X130594424Y-103681427D02*
G01*
X130587720Y-103669667D01*
X130576802Y-103661241D01*
X130540715Y-103642776D01*
X130482793Y-103584780D01*
X130471875Y-103577233D01*
X130457624Y-103574705D01*
X130444178Y-103577233D01*
X130433260Y-103584780D01*
X130425713Y-103596541D01*
X130422343Y-103609986D01*
X130422343Y-104043542D01*
X130425713Y-104056987D01*
X130433260Y-104068747D01*
X130444178Y-104076295D01*
X130478580Y-104078823D01*
X130492025Y-104076295D01*
X130503785Y-104068747D01*
X130511333Y-104056987D01*
X130513860Y-104043542D01*
X130513860Y-103729311D01*
X130545771Y-103744405D01*
X130559180Y-103748618D01*
X130573468Y-103746090D01*
X130585192Y-103738543D01*
X130593618Y-103726783D01*
X130596109Y-103713338D01*
X130594424Y-103681427D01*
G37*
G36*
X130192925Y-103958179D02*
G01*
X130181202Y-103949862D01*
X130146763Y-103947334D01*
X130133355Y-103949862D01*
X130122437Y-103958179D01*
X130101444Y-103978182D01*
X130093897Y-103989833D01*
X130091369Y-104023172D01*
X130093897Y-104037313D01*
X130101444Y-104048158D01*
X130122437Y-104068967D01*
X130133355Y-104076478D01*
X130167756Y-104079006D01*
X130181202Y-104076478D01*
X130192925Y-104068967D01*
X130213075Y-104048158D01*
X130220623Y-104037313D01*
X130223993Y-104003168D01*
X130220623Y-103989833D01*
X130213075Y-103978182D01*
X130192925Y-103958179D01*
G37*
G36*
X129885253Y-103575548D02*
G01*
X129952407Y-103597347D01*
X129964131Y-103604088D01*
X129972521Y-103614969D01*
X129993513Y-103656111D01*
X129996884Y-103672048D01*
X129996884Y-103713154D01*
X129993513Y-103729091D01*
X129972521Y-103770197D01*
X129949879Y-103795366D01*
X129986809Y-103832296D01*
X130014506Y-103882634D01*
X130017877Y-103898608D01*
X130017877Y-103960670D01*
X130014506Y-103975801D01*
X129993550Y-104017750D01*
X129966659Y-104047095D01*
X129952407Y-104055485D01*
X129879354Y-104078163D01*
X129786188Y-104076478D01*
X129724052Y-104055485D01*
X129709801Y-104047095D01*
X129682910Y-104017750D01*
X129661954Y-103975801D01*
X129658583Y-103960670D01*
X129658583Y-103907620D01*
X129750101Y-103907620D01*
X129750101Y-103952940D01*
X129757648Y-103968071D01*
X129771094Y-103977303D01*
X129802967Y-103987378D01*
X129873492Y-103987378D01*
X129905366Y-103977303D01*
X129918812Y-103968071D01*
X129926359Y-103952940D01*
X129926359Y-103907620D01*
X129912107Y-103879081D01*
X129899504Y-103866478D01*
X129866751Y-103849698D01*
X129838211Y-103842994D01*
X129809708Y-103849698D01*
X129776955Y-103866478D01*
X129764352Y-103879081D01*
X129750101Y-103907620D01*
X129658583Y-103907620D01*
X129658583Y-103898608D01*
X129661954Y-103882634D01*
X129689651Y-103832296D01*
X129726580Y-103795366D01*
X129703939Y-103770197D01*
X129682946Y-103729091D01*
X129679576Y-103713154D01*
X129679576Y-103680438D01*
X129770251Y-103680438D01*
X129770251Y-103704765D01*
X129782011Y-103728285D01*
X129809708Y-103741694D01*
X129838248Y-103749241D01*
X129866788Y-103741694D01*
X129894485Y-103728285D01*
X129906245Y-103704765D01*
X129906245Y-103680438D01*
X129903717Y-103676225D01*
X129873492Y-103666150D01*
X129802967Y-103666150D01*
X129772779Y-103676225D01*
X129770251Y-103680438D01*
X129679576Y-103680438D01*
X129679576Y-103672048D01*
X129682946Y-103656111D01*
X129703939Y-103614969D01*
X129712329Y-103604088D01*
X129724052Y-103597347D01*
X129797105Y-103574705D01*
X129885253Y-103575548D01*
G37*
G36*
X129623082Y-103596541D02*
G01*
X129615535Y-103584780D01*
X129603775Y-103577233D01*
X129570179Y-103574705D01*
X129556770Y-103577233D01*
X129545010Y-103585623D01*
X129537463Y-103597383D01*
X129425832Y-103883880D01*
X129314164Y-103597237D01*
X129306617Y-103585440D01*
X129294857Y-103577050D01*
X129260455Y-103574522D01*
X129247009Y-103577050D01*
X129236934Y-103583791D01*
X129228545Y-103595551D01*
X129225211Y-103608997D01*
X129227702Y-103622443D01*
X129393079Y-104056145D01*
X129399783Y-104067905D01*
X129411544Y-104075452D01*
X129424989Y-104078823D01*
X129438398Y-104076295D01*
X129450158Y-104069590D01*
X129457706Y-104057830D01*
X129623925Y-103622589D01*
X129625610Y-103609144D01*
X129623082Y-103596541D01*
G37*
G36*
X128944466Y-103606176D02*
G01*
X128940289Y-103593683D01*
X128931057Y-103582875D01*
X128919297Y-103577050D01*
X128909222Y-103574705D01*
X128702702Y-103574705D01*
X128689293Y-103577233D01*
X128677533Y-103584780D01*
X128669986Y-103596504D01*
X128667458Y-103630906D01*
X128669986Y-103644351D01*
X128677533Y-103655232D01*
X128689293Y-103662779D01*
X128702702Y-103666150D01*
X128858004Y-103666150D01*
X128866394Y-103724768D01*
X128847086Y-103718430D01*
X128774070Y-103720079D01*
X128711971Y-103741145D01*
X128698526Y-103749571D01*
X128657383Y-103790824D01*
X128648993Y-103804306D01*
X128628000Y-103866624D01*
X128626315Y-103919674D01*
X128648993Y-103992910D01*
X128657383Y-104006392D01*
X128698526Y-104047682D01*
X128711971Y-104056071D01*
X128784987Y-104078823D01*
X128858004Y-104077137D01*
X128920139Y-104056181D01*
X128934391Y-104047791D01*
X128961245Y-104018409D01*
X128982238Y-103976460D01*
X128985609Y-103963015D01*
X128983081Y-103948763D01*
X128976376Y-103937003D01*
X128964616Y-103928613D01*
X128950364Y-103926085D01*
X128918454Y-103927771D01*
X128905008Y-103936160D01*
X128886544Y-103968071D01*
X128873135Y-103977303D01*
X128841224Y-103987378D01*
X128790849Y-103987378D01*
X128759782Y-103977193D01*
X128740511Y-103964480D01*
X128727908Y-103944953D01*
X128717833Y-103913556D01*
X128717833Y-103883001D01*
X128727908Y-103851603D01*
X128740511Y-103832076D01*
X128759782Y-103819363D01*
X128790849Y-103809178D01*
X128859689Y-103809178D01*
X128893248Y-103825958D01*
X128909222Y-103829328D01*
X128933548Y-103829328D01*
X128946994Y-103825115D01*
X128957069Y-103815883D01*
X128963773Y-103804196D01*
X128964616Y-103790860D01*
X128944466Y-103606176D01*
G37*
G36*
X128521132Y-103958179D02*
G01*
X128509408Y-103949862D01*
X128474970Y-103947334D01*
X128461561Y-103949862D01*
X128450643Y-103958179D01*
X128429651Y-103978182D01*
X128422104Y-103989833D01*
X128419576Y-104023172D01*
X128422104Y-104037313D01*
X128429651Y-104048158D01*
X128450643Y-104068967D01*
X128461561Y-104076478D01*
X128495963Y-104079006D01*
X128509408Y-104076478D01*
X128521132Y-104068967D01*
X128541282Y-104048158D01*
X128548829Y-104037313D01*
X128552200Y-104003168D01*
X128548829Y-103989833D01*
X128541282Y-103978182D01*
X128521132Y-103958179D01*
G37*
G36*
X128198328Y-103576391D02*
G01*
X128260464Y-103597456D01*
X128273873Y-103605846D01*
X128315015Y-103647099D01*
X128323405Y-103660581D01*
X128344398Y-103722900D01*
X128346083Y-103733854D01*
X128344398Y-103765838D01*
X128323405Y-103828156D01*
X128315015Y-103841602D01*
X128273873Y-103883734D01*
X128260464Y-103892123D01*
X128198328Y-103912347D01*
X128187411Y-103913995D01*
X128155537Y-103912347D01*
X128106847Y-103896373D01*
X128116922Y-103947371D01*
X128136230Y-103975691D01*
X128172317Y-103987378D01*
X128201699Y-103987378D01*
X128231924Y-103977303D01*
X128246176Y-103955468D01*
X128257093Y-103948763D01*
X128289846Y-103946235D01*
X128304098Y-103949606D01*
X128315858Y-103957153D01*
X128323405Y-103969719D01*
X128325090Y-103984007D01*
X128321720Y-103997380D01*
X128300764Y-104038156D01*
X128292337Y-104049000D01*
X128280614Y-104055668D01*
X128207561Y-104078163D01*
X128155537Y-104076478D01*
X128083327Y-104050466D01*
X128033831Y-103979977D01*
X128028775Y-103967411D01*
X128007782Y-103857465D01*
X128008570Y-103753161D01*
X128100143Y-103753161D01*
X128109375Y-103781005D01*
X128121941Y-103799580D01*
X128140406Y-103812256D01*
X128172317Y-103823247D01*
X128181549Y-103823247D01*
X128212617Y-103812256D01*
X128231924Y-103799580D01*
X128244490Y-103781005D01*
X128254565Y-103748911D01*
X128254565Y-103739642D01*
X128244490Y-103708392D01*
X128231924Y-103688938D01*
X128212617Y-103676298D01*
X128181549Y-103666150D01*
X128172317Y-103666150D01*
X128140406Y-103676298D01*
X128121941Y-103688938D01*
X128112709Y-103703299D01*
X128100143Y-103753161D01*
X128008570Y-103753161D01*
X128008625Y-103745871D01*
X128028775Y-103663659D01*
X128038007Y-103646879D01*
X128079993Y-103605736D01*
X128093402Y-103597347D01*
X128155537Y-103576391D01*
X128166455Y-103574705D01*
X128198328Y-103576391D01*
G37*
G36*
X127910146Y-103596541D02*
G01*
X127902599Y-103584780D01*
X127891681Y-103577233D01*
X127877393Y-103574705D01*
X127843834Y-103577233D01*
X127832074Y-103584780D01*
X127824527Y-103596541D01*
X127821999Y-103609986D01*
X127821999Y-103875490D01*
X127675966Y-103730117D01*
X127664206Y-103722570D01*
X127630610Y-103720079D01*
X127616359Y-103722607D01*
X127605441Y-103730154D01*
X127597894Y-103741877D01*
X127595366Y-103755286D01*
X127597894Y-103768695D01*
X127605441Y-103780419D01*
X127717072Y-103891061D01*
X127603756Y-104020168D01*
X127597894Y-104030206D01*
X127595366Y-104046143D01*
X127598737Y-104059552D01*
X127607126Y-104070433D01*
X127616359Y-104076295D01*
X127630610Y-104078823D01*
X127671753Y-104078823D01*
X127686041Y-104076478D01*
X127698608Y-104067245D01*
X127787597Y-103963161D01*
X127821999Y-103997600D01*
X127821999Y-104044604D01*
X127824527Y-104058013D01*
X127832074Y-104069773D01*
X127843834Y-104076478D01*
X127877393Y-104079006D01*
X127891681Y-104076478D01*
X127902599Y-104068931D01*
X127910146Y-104057134D01*
X127912674Y-104043688D01*
X127912674Y-103610023D01*
X127910146Y-103596541D01*
G37*
G36*
X130662933Y-104831745D02*
G01*
X130655386Y-104819984D01*
X130471544Y-104614930D01*
X130432929Y-104556935D01*
X130416992Y-104525831D01*
X130416992Y-104500625D01*
X130428753Y-104477067D01*
X130452237Y-104466150D01*
X130517706Y-104466150D01*
X130541227Y-104477067D01*
X130552950Y-104500588D01*
X130555478Y-104526600D01*
X130563025Y-104538360D01*
X130574785Y-104545907D01*
X130588231Y-104548435D01*
X130622633Y-104545907D01*
X130633550Y-104538360D01*
X130641097Y-104526600D01*
X130643625Y-104492162D01*
X130640255Y-104477067D01*
X130619262Y-104435595D01*
X130592408Y-104406652D01*
X130583175Y-104400058D01*
X130542033Y-104379395D01*
X130526096Y-104374705D01*
X130443847Y-104374705D01*
X130427910Y-104378076D01*
X130386767Y-104399068D01*
X130356542Y-104425960D01*
X130329688Y-104477251D01*
X130326317Y-104492381D01*
X130326317Y-104533561D01*
X130329688Y-104549534D01*
X130352329Y-104594927D01*
X130393472Y-104657099D01*
X130511001Y-104787378D01*
X130340605Y-104787378D01*
X130327160Y-104790749D01*
X130315400Y-104798296D01*
X130307852Y-104809250D01*
X130305325Y-104843688D01*
X130307852Y-104857134D01*
X130315400Y-104868931D01*
X130327160Y-104876478D01*
X130340605Y-104878823D01*
X130629337Y-104878823D01*
X130642783Y-104876295D01*
X130654543Y-104868747D01*
X130662090Y-104856987D01*
X130664618Y-104844348D01*
X130662933Y-104831745D01*
G37*
G36*
X130200141Y-104758179D02*
G01*
X130188418Y-104749862D01*
X130153979Y-104747334D01*
X130140571Y-104749862D01*
X130129653Y-104758179D01*
X130108660Y-104778182D01*
X130101113Y-104789833D01*
X130098585Y-104823172D01*
X130101113Y-104837313D01*
X130108660Y-104848158D01*
X130129653Y-104868967D01*
X130140571Y-104876478D01*
X130174972Y-104879006D01*
X130188418Y-104876478D01*
X130200141Y-104868967D01*
X130220291Y-104848158D01*
X130227839Y-104837313D01*
X130231209Y-104803168D01*
X130227839Y-104789833D01*
X130220291Y-104778182D01*
X130200141Y-104758179D01*
G37*
G36*
X129983950Y-104406176D02*
G01*
X129979773Y-104393683D01*
X129970541Y-104382875D01*
X129958781Y-104377050D01*
X129948706Y-104374705D01*
X129742186Y-104374705D01*
X129728777Y-104377233D01*
X129717017Y-104384780D01*
X129709470Y-104396504D01*
X129706942Y-104430906D01*
X129709470Y-104444351D01*
X129717017Y-104455232D01*
X129728777Y-104462779D01*
X129742186Y-104466150D01*
X129897488Y-104466150D01*
X129905878Y-104524768D01*
X129886570Y-104518430D01*
X129813554Y-104520079D01*
X129751455Y-104541145D01*
X129738009Y-104549571D01*
X129696867Y-104590824D01*
X129688477Y-104604306D01*
X129667484Y-104666624D01*
X129665799Y-104719674D01*
X129688477Y-104792910D01*
X129696867Y-104806392D01*
X129738009Y-104847682D01*
X129751455Y-104856071D01*
X129824471Y-104878823D01*
X129897488Y-104877137D01*
X129959623Y-104856181D01*
X129973875Y-104847791D01*
X130000729Y-104818409D01*
X130021722Y-104776460D01*
X130025093Y-104763015D01*
X130022565Y-104748763D01*
X130015860Y-104737003D01*
X130004100Y-104728613D01*
X129989848Y-104726085D01*
X129957938Y-104727771D01*
X129944492Y-104736160D01*
X129926028Y-104768071D01*
X129912619Y-104777303D01*
X129880708Y-104787378D01*
X129830333Y-104787378D01*
X129799266Y-104777193D01*
X129779995Y-104764480D01*
X129767392Y-104744953D01*
X129757317Y-104713556D01*
X129757317Y-104683001D01*
X129767392Y-104651603D01*
X129779995Y-104632076D01*
X129799266Y-104619363D01*
X129830333Y-104609178D01*
X129899173Y-104609178D01*
X129932732Y-104625958D01*
X129948706Y-104629328D01*
X129973032Y-104629328D01*
X129986478Y-104625115D01*
X129996553Y-104615883D01*
X130003257Y-104604196D01*
X130004100Y-104590860D01*
X129983950Y-104406176D01*
G37*
G36*
X129630298Y-104396541D02*
G01*
X129622751Y-104384780D01*
X129610991Y-104377233D01*
X129577395Y-104374705D01*
X129563986Y-104377233D01*
X129552226Y-104385623D01*
X129544679Y-104397383D01*
X129433048Y-104683880D01*
X129321380Y-104397237D01*
X129313833Y-104385440D01*
X129302073Y-104377050D01*
X129267671Y-104374522D01*
X129254225Y-104377050D01*
X129244150Y-104383791D01*
X129235761Y-104395551D01*
X129232427Y-104408997D01*
X129234918Y-104422443D01*
X129400295Y-104856145D01*
X129406999Y-104867905D01*
X129418760Y-104875452D01*
X129432205Y-104878823D01*
X129445614Y-104876295D01*
X129457374Y-104869590D01*
X129464922Y-104857830D01*
X129631141Y-104422589D01*
X129632826Y-104409144D01*
X129630298Y-104396541D01*
G37*
G36*
X128893760Y-104768071D02*
G01*
X128880351Y-104777303D01*
X128848440Y-104787378D01*
X128798065Y-104787378D01*
X128766998Y-104777303D01*
X128747727Y-104764663D01*
X128735124Y-104745319D01*
X128725049Y-104714215D01*
X128725049Y-104704983D01*
X128735124Y-104672999D01*
X128747727Y-104654498D01*
X128766998Y-104641895D01*
X128798065Y-104630977D01*
X128863535Y-104630134D01*
X128876138Y-104623393D01*
X128885370Y-104613318D01*
X128889583Y-104595660D01*
X128887055Y-104582177D01*
X128881999Y-104573788D01*
X128798065Y-104466150D01*
X128916438Y-104466150D01*
X128929847Y-104462779D01*
X128941607Y-104455232D01*
X128949154Y-104444278D01*
X128951682Y-104430832D01*
X128949154Y-104396394D01*
X128941607Y-104384597D01*
X128929847Y-104377050D01*
X128916438Y-104374705D01*
X128689768Y-104374705D01*
X128676359Y-104377233D01*
X128665441Y-104383938D01*
X128657894Y-104394855D01*
X128654524Y-104407458D01*
X128655366Y-104420061D01*
X128661228Y-104431821D01*
X128754431Y-104551146D01*
X128719187Y-104562064D01*
X128705742Y-104570454D01*
X128664599Y-104612476D01*
X128656209Y-104625921D01*
X128635216Y-104688093D01*
X128633531Y-104720040D01*
X128656209Y-104793130D01*
X128664599Y-104806575D01*
X128705742Y-104847718D01*
X128719187Y-104856145D01*
X128792203Y-104878823D01*
X128865220Y-104877137D01*
X128927355Y-104856181D01*
X128941607Y-104847791D01*
X128968461Y-104818409D01*
X128989454Y-104776460D01*
X128992825Y-104763015D01*
X128990297Y-104748763D01*
X128983592Y-104737003D01*
X128971832Y-104728613D01*
X128957580Y-104726085D01*
X128925670Y-104727771D01*
X128913910Y-104734475D01*
X128908891Y-104741179D01*
X128893760Y-104768071D01*
G37*
G36*
X128528348Y-104758179D02*
G01*
X128516624Y-104749862D01*
X128482186Y-104747334D01*
X128468777Y-104749862D01*
X128457859Y-104758179D01*
X128436867Y-104778182D01*
X128429320Y-104789833D01*
X128426792Y-104823172D01*
X128429320Y-104837313D01*
X128436867Y-104848158D01*
X128457859Y-104868967D01*
X128468777Y-104876478D01*
X128503179Y-104879006D01*
X128516624Y-104876478D01*
X128528348Y-104868967D01*
X128548498Y-104848158D01*
X128556045Y-104837313D01*
X128559416Y-104803168D01*
X128556045Y-104789833D01*
X128548498Y-104778182D01*
X128528348Y-104758179D01*
G37*
G36*
X128350771Y-104396394D02*
G01*
X128343224Y-104384597D01*
X128331464Y-104377050D01*
X128318055Y-104374705D01*
X128029287Y-104374705D01*
X128015841Y-104377233D01*
X128004081Y-104385623D01*
X127996534Y-104397383D01*
X127994006Y-104411671D01*
X127997376Y-104425117D01*
X128203859Y-104858672D01*
X128212285Y-104869590D01*
X128224009Y-104877137D01*
X128255919Y-104878823D01*
X128270208Y-104876295D01*
X128281931Y-104867905D01*
X128289515Y-104856145D01*
X128291164Y-104841856D01*
X128287830Y-104828411D01*
X128115748Y-104466150D01*
X128318055Y-104466150D01*
X128331464Y-104462779D01*
X128343224Y-104455232D01*
X128350771Y-104444278D01*
X128353299Y-104409840D01*
X128350771Y-104396394D01*
G37*
G36*
X127696848Y-104382069D02*
G01*
X127706080Y-104391302D01*
X127933556Y-104720370D01*
X127938611Y-104732094D01*
X127939454Y-104744660D01*
X127935241Y-104757226D01*
X127927694Y-104767265D01*
X127916776Y-104773126D01*
X127904210Y-104775654D01*
X127732934Y-104775654D01*
X127732934Y-104843578D01*
X127730407Y-104857024D01*
X127722859Y-104868747D01*
X127711099Y-104876295D01*
X127697690Y-104878823D01*
X127664131Y-104876295D01*
X127652371Y-104868747D01*
X127644824Y-104857024D01*
X127642296Y-104843578D01*
X127642296Y-104775654D01*
X127594449Y-104775654D01*
X127581003Y-104773126D01*
X127570122Y-104765506D01*
X127562538Y-104753636D01*
X127559205Y-104719784D01*
X127562538Y-104705386D01*
X127570122Y-104694358D01*
X127581003Y-104686738D01*
X127594449Y-104684210D01*
X127642296Y-104684210D01*
X127732934Y-104684210D01*
X127801774Y-104684210D01*
X127732934Y-104585621D01*
X127732934Y-104684210D01*
X127642296Y-104684210D01*
X127642296Y-104410975D01*
X127644824Y-104397603D01*
X127657390Y-104381739D01*
X127669993Y-104377050D01*
X127683402Y-104377050D01*
X127696848Y-104382069D01*
G37*
G36*
X127502931Y-104396541D02*
G01*
X127495384Y-104384780D01*
X127484466Y-104377233D01*
X127470178Y-104374705D01*
X127436619Y-104377233D01*
X127424859Y-104384780D01*
X127417312Y-104396541D01*
X127414784Y-104409986D01*
X127414784Y-104675490D01*
X127268751Y-104530117D01*
X127256991Y-104522570D01*
X127223395Y-104520079D01*
X127209143Y-104522607D01*
X127198226Y-104530154D01*
X127190679Y-104541877D01*
X127188151Y-104555286D01*
X127190679Y-104568695D01*
X127198226Y-104580419D01*
X127309857Y-104691061D01*
X127196541Y-104820168D01*
X127190679Y-104830206D01*
X127188151Y-104846143D01*
X127191521Y-104859552D01*
X127199911Y-104870433D01*
X127209143Y-104876295D01*
X127223395Y-104878823D01*
X127264538Y-104878823D01*
X127278826Y-104876478D01*
X127291392Y-104867245D01*
X127380382Y-104763161D01*
X127414784Y-104797600D01*
X127414784Y-104844604D01*
X127417312Y-104858013D01*
X127424859Y-104869773D01*
X127436619Y-104876478D01*
X127470178Y-104879006D01*
X127484466Y-104876478D01*
X127495384Y-104868931D01*
X127502931Y-104857134D01*
X127505459Y-104843688D01*
X127505459Y-104410023D01*
X127502931Y-104396541D01*
G37*
G36*
X130587921Y-102081427D02*
G01*
X130581217Y-102069667D01*
X130570299Y-102061241D01*
X130534212Y-102042776D01*
X130476290Y-101984780D01*
X130465372Y-101977233D01*
X130451121Y-101974705D01*
X130437675Y-101977233D01*
X130426757Y-101984780D01*
X130419210Y-101996541D01*
X130415840Y-102009986D01*
X130415840Y-102443542D01*
X130419210Y-102456987D01*
X130426757Y-102468747D01*
X130437675Y-102476295D01*
X130472077Y-102478823D01*
X130485522Y-102476295D01*
X130497282Y-102468747D01*
X130504830Y-102456987D01*
X130507357Y-102443542D01*
X130507357Y-102129311D01*
X130539268Y-102144405D01*
X130552677Y-102148618D01*
X130566965Y-102146090D01*
X130578689Y-102138543D01*
X130587115Y-102126783D01*
X130589606Y-102113338D01*
X130587921Y-102081427D01*
G37*
G36*
X130186422Y-102358179D02*
G01*
X130174699Y-102349862D01*
X130140260Y-102347334D01*
X130126852Y-102349862D01*
X130115934Y-102358179D01*
X130094941Y-102378182D01*
X130087394Y-102389833D01*
X130084866Y-102423172D01*
X130087394Y-102437313D01*
X130094941Y-102448158D01*
X130115934Y-102468967D01*
X130126852Y-102476478D01*
X130161253Y-102479006D01*
X130174699Y-102476478D01*
X130186422Y-102468967D01*
X130206572Y-102448158D01*
X130214120Y-102437313D01*
X130217490Y-102403168D01*
X130214120Y-102389833D01*
X130206572Y-102378182D01*
X130186422Y-102358179D01*
G37*
G36*
X129948396Y-102081427D02*
G01*
X129941691Y-102069667D01*
X129930773Y-102061241D01*
X129894687Y-102042776D01*
X129836764Y-101984780D01*
X129825847Y-101977233D01*
X129811595Y-101974705D01*
X129798150Y-101977233D01*
X129787232Y-101984780D01*
X129779685Y-101996541D01*
X129776314Y-102009986D01*
X129776314Y-102443542D01*
X129779685Y-102456987D01*
X129787232Y-102468747D01*
X129798150Y-102476295D01*
X129832551Y-102478823D01*
X129845997Y-102476295D01*
X129857757Y-102468747D01*
X129865304Y-102456987D01*
X129867832Y-102443542D01*
X129867832Y-102129311D01*
X129899742Y-102144405D01*
X129913151Y-102148618D01*
X129927439Y-102146090D01*
X129939163Y-102138543D01*
X129947590Y-102126783D01*
X129950081Y-102113338D01*
X129948396Y-102081427D01*
G37*
G36*
X129556972Y-102006176D02*
G01*
X129552795Y-101993683D01*
X129543563Y-101982875D01*
X129531803Y-101977050D01*
X129521728Y-101974705D01*
X129315208Y-101974705D01*
X129301799Y-101977233D01*
X129290039Y-101984780D01*
X129282492Y-101996504D01*
X129279964Y-102030906D01*
X129282492Y-102044351D01*
X129290039Y-102055232D01*
X129301799Y-102062779D01*
X129315208Y-102066150D01*
X129470510Y-102066150D01*
X129478900Y-102124768D01*
X129459592Y-102118430D01*
X129386576Y-102120079D01*
X129324477Y-102141145D01*
X129311032Y-102149571D01*
X129269889Y-102190824D01*
X129261499Y-102204306D01*
X129240506Y-102266624D01*
X129238821Y-102319674D01*
X129261499Y-102392910D01*
X129269889Y-102406392D01*
X129311032Y-102447682D01*
X129324477Y-102456071D01*
X129397494Y-102478823D01*
X129470510Y-102477137D01*
X129532645Y-102456181D01*
X129546897Y-102447791D01*
X129573751Y-102418409D01*
X129594744Y-102376460D01*
X129598115Y-102363015D01*
X129595587Y-102348763D01*
X129588882Y-102337003D01*
X129577122Y-102328613D01*
X129562870Y-102326085D01*
X129530960Y-102327771D01*
X129517514Y-102336160D01*
X129499050Y-102368071D01*
X129485641Y-102377303D01*
X129453730Y-102387378D01*
X129403355Y-102387378D01*
X129372288Y-102377193D01*
X129353017Y-102364480D01*
X129340414Y-102344953D01*
X129330339Y-102313556D01*
X129330339Y-102283001D01*
X129340414Y-102251603D01*
X129353017Y-102232076D01*
X129372288Y-102219363D01*
X129403355Y-102209178D01*
X129472195Y-102209178D01*
X129505754Y-102225958D01*
X129521728Y-102229328D01*
X129546054Y-102229328D01*
X129559500Y-102225115D01*
X129569575Y-102215883D01*
X129576279Y-102204196D01*
X129577122Y-102190860D01*
X129556972Y-102006176D01*
G37*
G36*
X129203320Y-101996541D02*
G01*
X129195773Y-101984780D01*
X129184013Y-101977233D01*
X129150417Y-101974705D01*
X129137009Y-101977233D01*
X129125248Y-101985623D01*
X129117701Y-101997383D01*
X129006070Y-102283880D01*
X128894402Y-101997237D01*
X128886855Y-101985440D01*
X128875095Y-101977050D01*
X128840693Y-101974522D01*
X128827248Y-101977050D01*
X128817173Y-101983791D01*
X128808783Y-101995551D01*
X128805449Y-102008997D01*
X128807940Y-102022443D01*
X128973317Y-102456145D01*
X128980021Y-102467905D01*
X128991782Y-102475452D01*
X129005227Y-102478823D01*
X129018636Y-102476295D01*
X129030397Y-102469590D01*
X129037944Y-102457830D01*
X129204163Y-102022589D01*
X129205848Y-102009144D01*
X129203320Y-101996541D01*
G37*
G36*
X128502869Y-102081427D02*
G01*
X128496164Y-102069667D01*
X128485247Y-102061241D01*
X128449160Y-102042776D01*
X128391237Y-101984780D01*
X128380320Y-101977233D01*
X128366068Y-101974705D01*
X128352623Y-101977233D01*
X128341705Y-101984780D01*
X128334158Y-101996541D01*
X128330787Y-102009986D01*
X128330787Y-102443542D01*
X128334158Y-102456987D01*
X128341705Y-102468747D01*
X128352623Y-102476295D01*
X128387024Y-102478823D01*
X128400470Y-102476295D01*
X128412230Y-102468747D01*
X128419777Y-102456987D01*
X128422305Y-102443542D01*
X128422305Y-102129311D01*
X128454215Y-102144405D01*
X128467624Y-102148618D01*
X128481913Y-102146090D01*
X128493636Y-102138543D01*
X128502063Y-102126783D01*
X128504554Y-102113338D01*
X128502869Y-102081427D01*
G37*
G36*
X128053523Y-102368071D02*
G01*
X128040114Y-102377303D01*
X128008204Y-102387378D01*
X127957829Y-102387378D01*
X127926761Y-102377303D01*
X127907490Y-102364663D01*
X127894887Y-102345319D01*
X127884812Y-102314215D01*
X127884812Y-102304983D01*
X127894887Y-102272999D01*
X127907490Y-102254498D01*
X127926761Y-102241895D01*
X127957829Y-102230977D01*
X128023298Y-102230134D01*
X128035901Y-102223393D01*
X128045133Y-102213318D01*
X128049346Y-102195660D01*
X128046818Y-102182177D01*
X128041763Y-102173788D01*
X127957829Y-102066150D01*
X128076201Y-102066150D01*
X128089610Y-102062779D01*
X128101370Y-102055232D01*
X128108917Y-102044278D01*
X128111445Y-102030832D01*
X128108917Y-101996394D01*
X128101370Y-101984597D01*
X128089610Y-101977050D01*
X128076201Y-101974705D01*
X127849531Y-101974705D01*
X127836122Y-101977233D01*
X127825205Y-101983938D01*
X127817658Y-101994855D01*
X127814287Y-102007458D01*
X127815130Y-102020061D01*
X127820991Y-102031821D01*
X127914195Y-102151146D01*
X127878950Y-102162064D01*
X127865505Y-102170454D01*
X127824362Y-102212476D01*
X127815972Y-102225921D01*
X127794980Y-102288093D01*
X127793294Y-102320040D01*
X127815972Y-102393130D01*
X127824362Y-102406575D01*
X127865505Y-102447718D01*
X127878950Y-102456145D01*
X127951967Y-102478823D01*
X128024983Y-102477137D01*
X128087118Y-102456181D01*
X128101370Y-102447791D01*
X128128225Y-102418409D01*
X128149217Y-102376460D01*
X128152588Y-102363015D01*
X128150060Y-102348763D01*
X128143355Y-102337003D01*
X128131595Y-102328613D01*
X128117344Y-102326085D01*
X128085433Y-102327771D01*
X128073673Y-102334475D01*
X128068654Y-102341179D01*
X128053523Y-102368071D01*
G37*
G36*
X127716651Y-101996541D02*
G01*
X127709104Y-101984780D01*
X127698186Y-101977233D01*
X127683898Y-101974705D01*
X127650339Y-101977233D01*
X127638579Y-101984780D01*
X127631032Y-101996541D01*
X127628504Y-102009986D01*
X127628504Y-102275490D01*
X127482471Y-102130117D01*
X127470711Y-102122570D01*
X127437115Y-102120079D01*
X127422863Y-102122607D01*
X127411946Y-102130154D01*
X127404399Y-102141877D01*
X127401871Y-102155286D01*
X127404399Y-102168695D01*
X127411946Y-102180419D01*
X127523577Y-102291061D01*
X127410260Y-102420168D01*
X127404399Y-102430206D01*
X127401871Y-102446143D01*
X127405241Y-102459552D01*
X127413631Y-102470433D01*
X127422863Y-102476295D01*
X127437115Y-102478823D01*
X127478258Y-102478823D01*
X127492546Y-102476478D01*
X127505112Y-102467245D01*
X127594102Y-102363161D01*
X127628504Y-102397600D01*
X127628504Y-102444604D01*
X127631032Y-102458013D01*
X127638579Y-102469773D01*
X127650339Y-102476478D01*
X127683898Y-102479006D01*
X127698186Y-102476478D01*
X127709104Y-102468931D01*
X127716651Y-102457134D01*
X127719179Y-102443688D01*
X127719179Y-102010023D01*
X127716651Y-101996541D01*
G37*
D13*
%TO.C,J1*%
X123750000Y-110300000D03*
D14*
X125750000Y-110300000D03*
X127750000Y-110300000D03*
X129750000Y-110300000D03*
%TD*%
D13*
%TO.C,J2*%
X123750000Y-101600000D03*
%TD*%
D15*
%TO.C,R3*%
X123950000Y-104200000D03*
X123950000Y-107125000D03*
%TD*%
%LPD*%
M02*
